<svg width="354" height="358" viewBox="0 0 354 358" fill="none" xmlns="http://www.w3.org/2000/svg">
<g clip-path="url(#clip0_0_1)">
<g filter="url(#filter0_d_0_1)">
<path d="M334 6H26C14.9543 6 6 14.9543 6 26V338C6 349.046 14.9543 358 26 358H334C345.046 358 354 349.046 354 338V26C354 14.9543 345.046 6 334 6Z" fill="#302F3D"/>
</g>
<path d="M31.8984 36.1367V38.5195H25.9414V42.2109H30.5117V44.5645H25.9414V48.5488H32.5332V51H22.8359V36.1367H31.8984ZM44.6816 34.7695V51.1562H42.6113C42.3639 51.1562 42.1784 51.1172 42.0547 51.0391C41.9375 50.9674 41.8789 50.8177 41.8789 50.5898V49.8379C41.5208 50.2025 41.0846 50.515 40.5703 50.7754C40.0625 51.0293 39.4082 51.1562 38.6074 51.1562C37.7936 51.1562 37.0514 50.9577 36.3809 50.5605C35.7103 50.1569 35.1732 49.5514 34.7695 48.7441C34.3724 47.9368 34.1738 46.9538 34.1738 45.7949C34.1738 44.5775 34.4082 43.5098 34.877 42.5918C35.3522 41.6738 36.0163 40.9642 36.8691 40.4629C37.7285 39.9616 38.7181 39.7109 39.8379 39.7109C40.502 39.7109 41.1107 39.8151 41.6641 40.0234L41.6348 39.0469V34.7695H44.6816ZM37.3672 45.6191C37.3672 46.765 37.5527 47.5788 37.9238 48.0605C38.3014 48.5423 38.8418 48.7832 39.5449 48.7832C39.9421 48.7832 40.3262 48.7279 40.6973 48.6172C41.0749 48.5065 41.3874 48.3665 41.6348 48.1973V42.1914C41.4525 42.0677 41.2214 41.9863 40.9414 41.9473C40.6615 41.9017 40.3229 41.8789 39.9258 41.8789C39.4245 41.8789 38.9818 42.0189 38.5977 42.2988C38.2135 42.5788 37.9108 42.9987 37.6895 43.5586C37.4746 44.1185 37.3672 44.8053 37.3672 45.6191ZM57.582 39.8672V51.1562H55.5703C55.3099 51.1562 55.1211 51.1172 55.0039 51.0391C54.8867 50.9674 54.8281 50.8177 54.8281 50.5898V50.082C54.4049 50.3815 53.8874 50.6354 53.2754 50.8438C52.6699 51.0521 52.1035 51.1562 51.5762 51.1562C50.5605 51.1562 49.7858 50.9642 49.252 50.5801C48.7181 50.196 48.36 49.6654 48.1777 48.9883C48.002 48.3112 47.9141 47.4388 47.9141 46.3711V39.8672H50.9609V46.3418C50.9609 47.0384 51.0195 47.5658 51.1367 47.9238C51.2604 48.2754 51.4395 48.513 51.6738 48.6367C51.9147 48.7604 52.2467 48.8223 52.6699 48.8223C52.9954 48.8223 53.3405 48.7539 53.7051 48.6172C54.0697 48.4805 54.3464 48.3372 54.5352 48.1875V39.8672H57.582ZM65.7656 39.7109C66.4232 39.7109 67.0189 39.7695 67.5527 39.8867C68.0866 39.9974 68.4544 40.1276 68.6562 40.2773L68.2754 42.6309C67.9954 42.4811 67.6829 42.3737 67.3379 42.3086C66.9993 42.237 66.5794 42.2012 66.0781 42.2012C65.6094 42.2012 65.1634 42.3021 64.7402 42.5039C64.3171 42.6992 63.9655 43.0215 63.6855 43.4707C63.4056 43.9134 63.2559 44.4863 63.2363 45.1895C63.2168 45.9642 63.321 46.6152 63.5488 47.1426C63.7767 47.6699 64.099 48.0638 64.5156 48.3242C64.9388 48.5781 65.4206 48.7051 65.9609 48.7051C66.4492 48.7051 66.9147 48.6628 67.3574 48.5781C67.8066 48.487 68.1484 48.3763 68.3828 48.2461L68.8223 50.0527C68.4772 50.3848 67.9954 50.6517 67.377 50.8535C66.7585 51.0553 66.1009 51.1562 65.4043 51.1562C64.2845 51.1562 63.334 50.9186 62.5527 50.4434C61.7715 49.9616 61.1855 49.3008 60.7949 48.4609C60.4043 47.6146 60.209 46.651 60.209 45.5703C60.209 44.4505 60.4141 43.4479 60.8242 42.5625C61.2344 41.6771 61.8561 40.9805 62.6895 40.4727C63.5228 39.9648 64.5482 39.7109 65.7656 39.7109ZM75.4434 39.6523C76.5241 39.6523 77.3867 39.7728 78.0312 40.0137C78.6823 40.248 79.1673 40.6615 79.4863 41.2539C79.8053 41.8398 79.9648 42.6634 79.9648 43.7246V51.1562H78.1875C77.8945 51.1562 77.6732 51.1367 77.5234 51.0977C77.3737 51.0586 77.2565 50.9674 77.1719 50.8242C77.0872 50.681 77.0449 50.4531 77.0449 50.1406V50.0625C76.7064 50.375 76.2897 50.6354 75.7949 50.8438C75.3001 51.0521 74.75 51.1562 74.1445 51.1562C73.4284 51.1562 72.7936 51.0033 72.2402 50.6973C71.6934 50.3848 71.2669 49.9551 70.9609 49.4082C70.6615 48.8548 70.5117 48.2298 70.5117 47.5332C70.5117 46.8822 70.6777 46.3255 71.0098 45.8633C71.3483 45.401 71.8301 45.0299 72.4551 44.75C73.4251 44.3203 74.9128 44.1055 76.918 44.1055V43.4023C76.918 42.9857 76.8626 42.6797 76.752 42.4844C76.6478 42.2891 76.4427 42.1556 76.1367 42.084C75.8372 42.0124 75.362 41.9766 74.7109 41.9766C74.3984 41.9766 73.9232 42.0579 73.2852 42.2207C72.6471 42.377 72.1003 42.5592 71.6445 42.7676L70.9707 40.8145C71.2311 40.6582 71.6087 40.4889 72.1035 40.3066C72.5983 40.1243 73.1419 39.9714 73.7344 39.8477C74.3268 39.7174 74.8965 39.6523 75.4434 39.6523ZM75.1895 49.0957C75.515 49.0957 75.8568 49.0306 76.2148 48.9004C76.5729 48.7637 76.8073 48.6237 76.918 48.4805V45.8242C76.5469 45.8242 76.127 45.8665 75.6582 45.9512C75.196 46.0293 74.8509 46.1204 74.623 46.2246C74.3301 46.3353 74.0957 46.485 73.9199 46.6738C73.7441 46.8626 73.6562 47.1426 73.6562 47.5137C73.6562 48.0345 73.7962 48.4284 74.0762 48.6953C74.3626 48.9622 74.7337 49.0957 75.1895 49.0957ZM91.0098 50.0527C90.7428 50.3132 90.3848 50.5345 89.9355 50.7168C89.4863 50.8991 88.9915 51.026 88.4512 51.0977C88.5749 51.3516 88.6628 51.6641 88.7148 52.0352C88.7734 52.4062 88.7962 52.7806 88.7832 53.1582C88.7572 53.9525 88.5098 54.5449 88.041 54.9355C87.5788 55.3327 86.9961 55.5312 86.293 55.5312C85.987 55.5312 85.6452 55.502 85.2676 55.4434C84.8965 55.3913 84.6523 55.3294 84.5352 55.2578L84.7305 53.6465C84.8737 53.7376 85.1243 53.7832 85.4824 53.7832C85.8145 53.7832 86.0879 53.6595 86.3027 53.4121C86.5241 53.1647 86.6445 52.8001 86.6641 52.3184C86.6706 52.2402 86.6738 52.1263 86.6738 51.9766C86.6738 51.612 86.6283 51.3125 86.5371 51.0781C85.6387 50.9349 84.877 50.6094 84.252 50.1016C83.6335 49.5938 83.168 48.9525 82.8555 48.1777C82.5495 47.403 82.3965 46.5339 82.3965 45.5703C82.3965 44.4505 82.6016 43.4479 83.0117 42.5625C83.4219 41.6771 84.0436 40.9805 84.877 40.4727C85.7103 39.9648 86.7357 39.7109 87.9531 39.7109C88.6107 39.7109 89.2064 39.7695 89.7402 39.8867C90.2741 39.9974 90.6419 40.1276 90.8438 40.2773L90.4629 42.6309C90.1829 42.4811 89.8704 42.3737 89.5254 42.3086C89.1868 42.237 88.7669 42.2012 88.2656 42.2012C87.7969 42.2012 87.3509 42.3021 86.9277 42.5039C86.5046 42.6992 86.153 43.0215 85.873 43.4707C85.5931 43.9134 85.4434 44.4863 85.4238 45.1895C85.4043 45.9642 85.5085 46.6152 85.7363 47.1426C85.9642 47.6699 86.2865 48.0638 86.7031 48.3242C87.1263 48.5781 87.6081 48.7051 88.1484 48.7051C88.6367 48.7051 89.1022 48.6628 89.5449 48.5781C89.9941 48.487 90.3359 48.3763 90.5703 48.2461L91.0098 50.0527ZM97.6309 39.6523C98.7116 39.6523 99.5742 39.7728 100.219 40.0137C100.87 40.248 101.355 40.6615 101.674 41.2539C101.993 41.8398 102.152 42.6634 102.152 43.7246V51.1562H100.375C100.082 51.1562 99.8607 51.1367 99.7109 51.0977C99.5612 51.0586 99.444 50.9674 99.3594 50.8242C99.2747 50.681 99.2324 50.4531 99.2324 50.1406V50.0625C98.8939 50.375 98.4772 50.6354 97.9824 50.8438C97.4876 51.0521 96.9375 51.1562 96.332 51.1562C95.6159 51.1562 94.9811 51.0033 94.4277 50.6973C93.8809 50.3848 93.4544 49.9551 93.1484 49.4082C92.849 48.8548 92.6992 48.2298 92.6992 47.5332C92.6992 46.8822 92.8652 46.3255 93.1973 45.8633C93.5358 45.401 94.0176 45.0299 94.6426 44.75C95.6126 44.3203 97.1003 44.1055 99.1055 44.1055V43.4023C99.1055 42.9857 99.0501 42.6797 98.9395 42.4844C98.8353 42.2891 98.6302 42.1556 98.3242 42.084C98.0247 42.0124 97.5495 41.9766 96.8984 41.9766C96.5859 41.9766 96.1107 42.0579 95.4727 42.2207C94.8346 42.377 94.2878 42.5592 93.832 42.7676L93.1582 40.8145C93.4186 40.6582 93.7962 40.4889 94.291 40.3066C94.7858 40.1243 95.3294 39.9714 95.9219 39.8477C96.5143 39.7174 97.084 39.6523 97.6309 39.6523ZM97.377 49.0957C97.7025 49.0957 98.0443 49.0306 98.4023 48.9004C98.7604 48.7637 98.9948 48.6237 99.1055 48.4805V45.8242C98.7344 45.8242 98.3145 45.8665 97.8457 45.9512C97.3835 46.0293 97.0384 46.1204 96.8105 46.2246C96.5176 46.3353 96.2832 46.485 96.1074 46.6738C95.9316 46.8626 95.8438 47.1426 95.8438 47.5137C95.8438 48.0345 95.9837 48.4284 96.2637 48.6953C96.5501 48.9622 96.9212 49.0957 97.377 49.0957ZM93.4609 36.625C93.6888 35.974 94.0566 35.4434 94.5645 35.0332C95.0723 34.623 95.6842 34.418 96.4004 34.418C96.8171 34.418 97.1556 34.4831 97.416 34.6133C97.6764 34.7435 97.9466 34.929 98.2266 35.1699C98.4349 35.3457 98.6107 35.4759 98.7539 35.5605C98.9036 35.6452 99.0762 35.6875 99.2715 35.6875C99.5645 35.6875 99.8314 35.5866 100.072 35.3848C100.313 35.1829 100.551 34.9225 100.785 34.6035L102.016 35.6582C101.781 36.3353 101.417 36.8757 100.922 37.2793C100.434 37.6829 99.8281 37.8848 99.1055 37.8848C98.7279 37.8848 98.4154 37.8229 98.168 37.6992C97.9271 37.5755 97.6634 37.3932 97.377 37.1523C97.1361 36.957 96.9342 36.8138 96.7715 36.7227C96.6087 36.6315 96.4134 36.5859 96.1855 36.5859C95.9316 36.5859 95.6712 36.6836 95.4043 36.8789C95.1439 37.0742 94.903 37.3086 94.6816 37.582L93.4609 36.625ZM104.594 45.3262C104.594 44.1348 104.828 43.1191 105.297 42.2793C105.766 41.4329 106.417 40.7949 107.25 40.3652C108.083 39.929 109.04 39.7109 110.121 39.7109C111.352 39.7109 112.364 39.9714 113.158 40.4922C113.952 41.0065 114.529 41.6999 114.887 42.5723C115.251 43.4382 115.434 44.418 115.434 45.5117C115.434 46.7096 115.199 47.7318 114.73 48.5781C114.262 49.4245 113.611 50.0658 112.777 50.502C111.944 50.9382 110.99 51.1562 109.916 51.1562C108.679 51.1562 107.663 50.8958 106.869 50.375C106.075 49.8542 105.495 49.1576 105.131 48.2852C104.773 47.4062 104.594 46.4199 104.594 45.3262ZM112.279 45.5215C112.279 44.4798 112.094 43.6139 111.723 42.9238C111.352 42.2272 110.788 41.8789 110.033 41.8789C108.51 41.8789 107.748 43.0117 107.748 45.2773C107.748 45.9609 107.826 46.5859 107.982 47.1523C108.145 47.7122 108.396 48.1615 108.734 48.5C109.079 48.8385 109.509 49.0078 110.023 49.0078C111.527 49.0078 112.279 47.8457 112.279 45.5215Z" fill="#837E9F"/>
<path d="M34.5791 76.7578V83.042C34.5749 83.9137 34.2998 84.6268 33.7539 85.1812C33.2122 85.7355 32.4759 86.0465 31.5449 86.1143L31.2212 86.127C30.2098 86.127 29.4036 85.854 28.8027 85.3081C28.2018 84.7622 27.8971 84.0111 27.8887 83.0547V76.7578H29.0947V83.0166C29.0947 83.6852 29.2788 84.2057 29.647 84.5781C30.0151 84.9463 30.5399 85.1304 31.2212 85.1304C31.911 85.1304 32.4378 84.9463 32.8018 84.5781C33.1699 84.21 33.354 83.6916 33.354 83.0229V76.7578H34.5791ZM37.4292 79.1318L37.4673 79.9951C37.992 79.335 38.6776 79.0049 39.5239 79.0049C40.9754 79.0049 41.7075 79.8237 41.7202 81.4614V86H40.5459V81.4551C40.5417 80.96 40.4274 80.5939 40.2031 80.3569C39.9831 80.12 39.6382 80.0015 39.1685 80.0015C38.7876 80.0015 38.4533 80.103 38.1655 80.3062C37.8778 80.5093 37.6535 80.7759 37.4927 81.106V86H36.3184V79.1318H37.4292ZM44.7671 86H43.5928V79.1318H44.7671V86ZM43.4976 77.3101C43.4976 77.1196 43.5547 76.9588 43.6689 76.8276C43.7874 76.6965 43.9609 76.6309 44.1895 76.6309C44.418 76.6309 44.5915 76.6965 44.71 76.8276C44.8285 76.9588 44.8877 77.1196 44.8877 77.3101C44.8877 77.5005 44.8285 77.6592 44.71 77.7861C44.5915 77.9131 44.418 77.9766 44.1895 77.9766C43.9609 77.9766 43.7874 77.9131 43.6689 77.7861C43.5547 77.6592 43.4976 77.5005 43.4976 77.3101ZM48.9185 84.4067L50.6196 79.1318H51.8193L49.3564 86H48.4614L45.9731 79.1318H47.1729L48.9185 84.4067ZM57.0879 86C57.0202 85.8646 56.9652 85.6234 56.9229 85.2764C56.377 85.8434 55.7253 86.127 54.9678 86.127C54.2907 86.127 53.7342 85.9365 53.2983 85.5557C52.8667 85.1706 52.6509 84.6839 52.6509 84.0957C52.6509 83.3805 52.9217 82.8262 53.4634 82.4326C54.0093 82.0348 54.7752 81.8359 55.7612 81.8359H56.9038V81.2964C56.9038 80.8859 56.7811 80.5601 56.5356 80.3188C56.2902 80.0734 55.9284 79.9507 55.4502 79.9507C55.0312 79.9507 54.68 80.0565 54.3965 80.2681C54.113 80.4797 53.9712 80.7357 53.9712 81.0361H52.7905C52.7905 80.6934 52.9111 80.3633 53.1523 80.0459C53.3978 79.7243 53.7279 79.4704 54.1426 79.2842C54.5615 79.098 55.0207 79.0049 55.52 79.0049C56.3114 79.0049 56.9313 79.2038 57.3799 79.6016C57.8285 79.9951 58.0612 80.5389 58.0781 81.2329V84.394C58.0781 85.0246 58.1585 85.526 58.3193 85.8984V86H57.0879ZM55.1392 85.105C55.5073 85.105 55.8564 85.0098 56.1865 84.8193C56.5166 84.6289 56.7557 84.3813 56.9038 84.0767V82.6675H55.9834C54.5446 82.6675 53.8252 83.0885 53.8252 83.9307C53.8252 84.2988 53.9479 84.5866 54.1934 84.7939C54.4388 85.0013 54.7541 85.105 55.1392 85.105ZM61.5122 77.4688V79.1318H62.7944V80.0396H61.5122V84.2988C61.5122 84.5739 61.5693 84.7812 61.6836 84.9209C61.7979 85.0563 61.9925 85.124 62.2676 85.124C62.403 85.124 62.5892 85.0986 62.8262 85.0479V86C62.5173 86.0846 62.2168 86.127 61.9248 86.127C61.4001 86.127 61.0044 85.9683 60.7378 85.6509C60.4712 85.3335 60.3379 84.8828 60.3379 84.2988V80.0396H59.0874V79.1318H60.3379V77.4688H61.5122ZM67.022 86.127C66.091 86.127 65.3335 85.8223 64.7495 85.2129C64.1655 84.5993 63.8735 83.7804 63.8735 82.7563V82.5405C63.8735 81.8592 64.0026 81.252 64.2607 80.7188C64.5231 80.1813 64.887 79.7624 65.3525 79.4619C65.8223 79.1572 66.3301 79.0049 66.876 79.0049C67.7689 79.0049 68.4629 79.299 68.958 79.8872C69.4531 80.4754 69.7007 81.3175 69.7007 82.4136V82.9023H65.0479C65.0648 83.5794 65.2616 84.1274 65.6382 84.5464C66.019 84.9611 66.5015 85.1685 67.0854 85.1685C67.5002 85.1685 67.8514 85.0838 68.1392 84.9146C68.4269 84.7453 68.6787 84.521 68.8945 84.2417L69.6118 84.8003C69.0363 85.6847 68.173 86.127 67.022 86.127ZM66.876 79.9697C66.402 79.9697 66.0042 80.1432 65.6826 80.4902C65.361 80.833 65.1621 81.3154 65.0859 81.9375H68.5264V81.8486C68.4925 81.252 68.3317 80.7907 68.0439 80.4648C67.7562 80.1348 67.3669 79.9697 66.876 79.9697ZM75.0645 84.1782C75.0645 83.8608 74.9438 83.6154 74.7026 83.4419C74.4657 83.2642 74.0488 83.1118 73.4521 82.9849C72.8597 82.8579 72.3879 82.7056 72.0366 82.5278C71.6896 82.3501 71.4315 82.1385 71.2622 81.8931C71.0972 81.6476 71.0146 81.3556 71.0146 81.0171C71.0146 80.4543 71.2516 79.9782 71.7256 79.5889C72.2038 79.1995 72.8132 79.0049 73.5537 79.0049C74.3324 79.0049 74.9629 79.2059 75.4453 79.6079C75.932 80.0099 76.1753 80.5241 76.1753 81.1504H74.9946C74.9946 80.8288 74.8571 80.5516 74.582 80.3188C74.3112 80.0861 73.9684 79.9697 73.5537 79.9697C73.1263 79.9697 72.792 80.0628 72.5508 80.249C72.3096 80.4352 72.189 80.6785 72.189 80.979C72.189 81.2625 72.3011 81.4762 72.5254 81.6201C72.7497 81.764 73.1538 81.9015 73.7378 82.0327C74.326 82.1639 74.8021 82.3205 75.166 82.5024C75.5299 82.6844 75.7987 82.9045 75.9722 83.1626C76.1499 83.4165 76.2388 83.7275 76.2388 84.0957C76.2388 84.7093 75.9933 85.2023 75.5024 85.5747C75.0116 85.9429 74.3747 86.127 73.5918 86.127C73.0417 86.127 72.555 86.0296 72.1318 85.835C71.7087 85.6403 71.3765 85.3695 71.1353 85.0225C70.8983 84.6712 70.7798 84.2925 70.7798 83.8862H71.9541C71.9753 84.2798 72.1318 84.5929 72.4238 84.8257C72.7201 85.0542 73.1094 85.1685 73.5918 85.1685C74.0361 85.1685 74.3916 85.0796 74.6582 84.9019C74.929 84.7199 75.0645 84.4787 75.0645 84.1782ZM32.7373 109.662H30.4521V116H29.5195V109.662H27.2393V108.891H32.7373V109.662ZM35.3545 116.098C34.6383 116.098 34.0557 115.863 33.6064 115.395C33.1572 114.923 32.9326 114.293 32.9326 113.505V113.339C32.9326 112.815 33.0319 112.348 33.2305 111.938C33.4323 111.524 33.7122 111.202 34.0703 110.971C34.4316 110.736 34.8223 110.619 35.2422 110.619C35.929 110.619 36.4629 110.845 36.8438 111.298C37.2246 111.75 37.415 112.398 37.415 113.241V113.617H33.8359C33.849 114.138 34.0003 114.56 34.29 114.882C34.583 115.201 34.9541 115.36 35.4033 115.36C35.7223 115.36 35.9925 115.295 36.2139 115.165C36.4352 115.035 36.6289 114.862 36.7949 114.647L37.3467 115.077C36.904 115.757 36.2399 116.098 35.3545 116.098ZM35.2422 111.361C34.8776 111.361 34.5716 111.495 34.3242 111.762C34.0768 112.025 33.9238 112.396 33.8652 112.875H36.5117V112.807C36.4857 112.348 36.362 111.993 36.1406 111.742C35.9193 111.488 35.6198 111.361 35.2422 111.361ZM35.6816 108.5H36.7754L35.4668 109.936H34.7393L35.6816 108.5ZM40.584 115.36C40.9062 115.36 41.1878 115.263 41.4287 115.067C41.6696 114.872 41.8031 114.628 41.8291 114.335H42.6836C42.6673 114.638 42.5632 114.926 42.3711 115.199C42.179 115.473 41.9219 115.691 41.5996 115.854C41.2806 116.016 40.9421 116.098 40.584 116.098C39.8646 116.098 39.2917 115.858 38.8652 115.38C38.4421 114.898 38.2305 114.241 38.2305 113.407V113.256C38.2305 112.742 38.3249 112.284 38.5137 111.884C38.7025 111.483 38.9727 111.173 39.3242 110.951C39.679 110.73 40.0973 110.619 40.5791 110.619C41.1715 110.619 41.6631 110.797 42.0537 111.151C42.4476 111.506 42.6576 111.967 42.6836 112.533H41.8291C41.8031 112.191 41.6729 111.911 41.4385 111.693C41.2074 111.472 40.9209 111.361 40.5791 111.361C40.1201 111.361 39.7637 111.527 39.5098 111.859C39.2591 112.188 39.1338 112.665 39.1338 113.29V113.461C39.1338 114.07 39.2591 114.538 39.5098 114.867C39.7604 115.196 40.1185 115.36 40.584 115.36ZM44.5537 110.717L44.583 111.381C44.9867 110.873 45.514 110.619 46.165 110.619C47.2816 110.619 47.8447 111.249 47.8545 112.509V116H46.9512V112.504C46.9479 112.123 46.86 111.841 46.6875 111.659C46.5182 111.477 46.2529 111.386 45.8916 111.386C45.5986 111.386 45.3415 111.464 45.1201 111.62C44.8988 111.776 44.7262 111.981 44.6025 112.235V116H43.6992V110.717H44.5537ZM50.1982 116H49.2949V110.717H50.1982V116ZM49.2217 109.315C49.2217 109.169 49.2656 109.045 49.3535 108.944C49.4447 108.843 49.5781 108.793 49.7539 108.793C49.9297 108.793 50.0632 108.843 50.1543 108.944C50.2454 109.045 50.291 109.169 50.291 109.315C50.291 109.462 50.2454 109.584 50.1543 109.682C50.0632 109.779 49.9297 109.828 49.7539 109.828C49.5781 109.828 49.4447 109.779 49.3535 109.682C49.2656 109.584 49.2217 109.462 49.2217 109.315ZM53.7676 115.36C54.0898 115.36 54.3714 115.263 54.6123 115.067C54.8532 114.872 54.9867 114.628 55.0127 114.335H55.8672C55.8509 114.638 55.7467 114.926 55.5547 115.199C55.3626 115.473 55.1055 115.691 54.7832 115.854C54.4642 116.016 54.1257 116.098 53.7676 116.098C53.0482 116.098 52.4753 115.858 52.0488 115.38C51.6257 114.898 51.4141 114.241 51.4141 113.407V113.256C51.4141 112.742 51.5085 112.284 51.6973 111.884C51.8861 111.483 52.1562 111.173 52.5078 110.951C52.8626 110.73 53.2809 110.619 53.7627 110.619C54.3551 110.619 54.8467 110.797 55.2373 111.151C55.6312 111.506 55.8411 111.967 55.8672 112.533H55.0127C54.9867 112.191 54.8564 111.911 54.6221 111.693C54.391 111.472 54.1045 111.361 53.7627 111.361C53.3037 111.361 52.9473 111.527 52.6934 111.859C52.4427 112.188 52.3174 112.665 52.3174 113.29V113.461C52.3174 114.07 52.4427 114.538 52.6934 114.867C52.944 115.196 53.3021 115.36 53.7676 115.36ZM56.6436 113.31C56.6436 112.792 56.7445 112.326 56.9463 111.913C57.1514 111.5 57.4346 111.181 57.7959 110.956C58.1605 110.731 58.5755 110.619 59.041 110.619C59.7604 110.619 60.3415 110.868 60.7842 111.366C61.2301 111.864 61.4531 112.527 61.4531 113.354V113.417C61.4531 113.931 61.3538 114.394 61.1553 114.804C60.96 115.211 60.6784 115.528 60.3105 115.756C59.946 115.984 59.526 116.098 59.0508 116.098C58.3346 116.098 57.7536 115.849 57.3076 115.351C56.8649 114.853 56.6436 114.193 56.6436 113.373V113.31ZM57.5518 113.417C57.5518 114.003 57.6868 114.473 57.957 114.828C58.2305 115.183 58.5951 115.36 59.0508 115.36C59.5098 115.36 59.8743 115.181 60.1445 114.823C60.4147 114.462 60.5498 113.957 60.5498 113.31C60.5498 112.73 60.4115 112.261 60.1348 111.903C59.8613 111.542 59.4967 111.361 59.041 111.361C58.5951 111.361 58.2354 111.539 57.9619 111.894C57.6885 112.248 57.5518 112.756 57.5518 113.417ZM67.2588 116.098C66.5426 116.098 65.96 115.863 65.5107 115.395C65.0615 114.923 64.8369 114.293 64.8369 113.505V113.339C64.8369 112.815 64.9362 112.348 65.1348 111.938C65.3366 111.524 65.6165 111.202 65.9746 110.971C66.3359 110.736 66.7266 110.619 67.1465 110.619C67.8333 110.619 68.3672 110.845 68.748 111.298C69.1289 111.75 69.3193 112.398 69.3193 113.241V113.617H65.7402C65.7533 114.138 65.9046 114.56 66.1943 114.882C66.4873 115.201 66.8584 115.36 67.3076 115.36C67.6266 115.36 67.8968 115.295 68.1182 115.165C68.3395 115.035 68.5332 114.862 68.6992 114.647L69.251 115.077C68.8083 115.757 68.1442 116.098 67.2588 116.098ZM67.1465 111.361C66.7819 111.361 66.4759 111.495 66.2285 111.762C65.9811 112.025 65.8281 112.396 65.7695 112.875H68.416V112.807C68.39 112.348 68.2663 111.993 68.0449 111.742C67.8236 111.488 67.5241 111.361 67.1465 111.361ZM71.2188 110.717L71.2432 111.303C71.6305 110.847 72.153 110.619 72.8105 110.619C73.5495 110.619 74.0524 110.902 74.3193 111.469C74.4951 111.215 74.723 111.01 75.0029 110.854C75.2861 110.697 75.6198 110.619 76.0039 110.619C77.1628 110.619 77.752 111.233 77.7715 112.46V116H76.8682V112.514C76.8682 112.136 76.7819 111.854 76.6094 111.669C76.4368 111.48 76.1471 111.386 75.7402 111.386C75.4049 111.386 75.1266 111.487 74.9053 111.688C74.6839 111.887 74.5553 112.156 74.5195 112.494V116H73.6113V112.538C73.6113 111.77 73.2354 111.386 72.4834 111.386C71.891 111.386 71.4857 111.638 71.2676 112.143V116H70.3643V110.717H71.2188ZM83.8115 116.098C83.0954 116.098 82.5127 115.863 82.0635 115.395C81.6143 114.923 81.3896 114.293 81.3896 113.505V113.339C81.3896 112.815 81.4889 112.348 81.6875 111.938C81.8893 111.524 82.1693 111.202 82.5273 110.971C82.8887 110.736 83.2793 110.619 83.6992 110.619C84.3861 110.619 84.9199 110.845 85.3008 111.298C85.6816 111.75 85.8721 112.398 85.8721 113.241V113.617H82.293C82.306 114.138 82.4574 114.56 82.7471 114.882C83.04 115.201 83.4111 115.36 83.8604 115.36C84.1794 115.36 84.4495 115.295 84.6709 115.165C84.8923 115.035 85.0859 114.862 85.252 114.647L85.8037 115.077C85.361 115.757 84.6969 116.098 83.8115 116.098ZM83.6992 111.361C83.3346 111.361 83.0286 111.495 82.7812 111.762C82.5339 112.025 82.3809 112.396 82.3223 112.875H84.9688V112.807C84.9427 112.348 84.819 111.993 84.5977 111.742C84.3763 111.488 84.0768 111.361 83.6992 111.361ZM87.9033 116H87V108.5H87.9033V116ZM91.5459 116.098C90.8298 116.098 90.2471 115.863 89.7979 115.395C89.3486 114.923 89.124 114.293 89.124 113.505V113.339C89.124 112.815 89.2233 112.348 89.4219 111.938C89.6237 111.524 89.9036 111.202 90.2617 110.971C90.623 110.736 91.0137 110.619 91.4336 110.619C92.1204 110.619 92.6543 110.845 93.0352 111.298C93.416 111.75 93.6064 112.398 93.6064 113.241V113.617H90.0273C90.0404 114.138 90.1917 114.56 90.4814 114.882C90.7744 115.201 91.1455 115.36 91.5947 115.36C91.9137 115.36 92.1839 115.295 92.4053 115.165C92.6266 115.035 92.8203 114.862 92.9863 114.647L93.5381 115.077C93.0954 115.757 92.4313 116.098 91.5459 116.098ZM91.4336 111.361C91.069 111.361 90.763 111.495 90.5156 111.762C90.2682 112.025 90.1152 112.396 90.0566 112.875H92.7031V112.807C92.6771 112.348 92.5534 111.993 92.332 111.742C92.1107 111.488 91.8112 111.361 91.4336 111.361ZM95.8818 109.438V110.717H96.8682V111.415H95.8818V114.691C95.8818 114.903 95.9258 115.062 96.0137 115.17C96.1016 115.274 96.2513 115.326 96.4629 115.326C96.5671 115.326 96.7103 115.307 96.8926 115.268V116C96.6549 116.065 96.4238 116.098 96.1992 116.098C95.7956 116.098 95.4912 115.976 95.2861 115.731C95.0811 115.487 94.9785 115.141 94.9785 114.691V111.415H94.0166V110.717H94.9785V109.438H95.8818ZM100.481 111.527C100.345 111.505 100.197 111.493 100.037 111.493C99.4447 111.493 99.0426 111.745 98.8311 112.25V116H97.9277V110.717H98.8066L98.8213 111.327C99.1175 110.855 99.5374 110.619 100.081 110.619C100.257 110.619 100.39 110.642 100.481 110.688V111.527ZM100.979 113.31C100.979 112.792 101.08 112.326 101.282 111.913C101.487 111.5 101.771 111.181 102.132 110.956C102.496 110.731 102.911 110.619 103.377 110.619C104.096 110.619 104.677 110.868 105.12 111.366C105.566 111.864 105.789 112.527 105.789 113.354V113.417C105.789 113.931 105.69 114.394 105.491 114.804C105.296 115.211 105.014 115.528 104.646 115.756C104.282 115.984 103.862 116.098 103.387 116.098C102.671 116.098 102.09 115.849 101.644 115.351C101.201 114.853 100.979 114.193 100.979 113.373V113.31ZM101.888 113.417C101.888 114.003 102.023 114.473 102.293 114.828C102.566 115.183 102.931 115.36 103.387 115.36C103.846 115.36 104.21 115.181 104.48 114.823C104.751 114.462 104.886 113.957 104.886 113.31C104.886 112.73 104.747 112.261 104.471 111.903C104.197 111.542 103.833 111.361 103.377 111.361C102.931 111.361 102.571 111.539 102.298 111.894C102.024 112.248 101.888 112.756 101.888 113.417ZM109.114 116.098C108.398 116.098 107.815 115.863 107.366 115.395C106.917 114.923 106.692 114.293 106.692 113.505V113.339C106.692 112.815 106.792 112.348 106.99 111.938C107.192 111.524 107.472 111.202 107.83 110.971C108.191 110.736 108.582 110.619 109.002 110.619C109.689 110.619 110.223 110.845 110.604 111.298C110.984 111.75 111.175 112.398 111.175 113.241V113.617H107.596C107.609 114.138 107.76 114.56 108.05 114.882C108.343 115.201 108.714 115.36 109.163 115.36C109.482 115.36 109.752 115.295 109.974 115.165C110.195 115.035 110.389 114.862 110.555 114.647L111.106 115.077C110.664 115.757 110 116.098 109.114 116.098ZM109.002 111.361C108.637 111.361 108.331 111.495 108.084 111.762C107.837 112.025 107.684 112.396 107.625 112.875H110.271V112.807C110.245 112.348 110.122 111.993 109.9 111.742C109.679 111.488 109.38 111.361 109.002 111.361ZM113.206 116H112.303V108.5H113.206V116ZM116.849 116.098C116.132 116.098 115.55 115.863 115.101 115.395C114.651 114.923 114.427 114.293 114.427 113.505V113.339C114.427 112.815 114.526 112.348 114.725 111.938C114.926 111.524 115.206 111.202 115.564 110.971C115.926 110.736 116.316 110.619 116.736 110.619C117.423 110.619 117.957 110.845 118.338 111.298C118.719 111.75 118.909 112.398 118.909 113.241V113.617H115.33C115.343 114.138 115.494 114.56 115.784 114.882C116.077 115.201 116.448 115.36 116.897 115.36C117.216 115.36 117.487 115.295 117.708 115.165C117.929 115.035 118.123 114.862 118.289 114.647L118.841 115.077C118.398 115.757 117.734 116.098 116.849 116.098ZM116.736 111.361C116.372 111.361 116.066 111.495 115.818 111.762C115.571 112.025 115.418 112.396 115.359 112.875H118.006V112.807C117.98 112.348 117.856 111.993 117.635 111.742C117.413 111.488 117.114 111.361 116.736 111.361ZM121.185 109.438V110.717H122.171V111.415H121.185V114.691C121.185 114.903 121.229 115.062 121.316 115.17C121.404 115.274 121.554 115.326 121.766 115.326C121.87 115.326 122.013 115.307 122.195 115.268V116C121.958 116.065 121.727 116.098 121.502 116.098C121.098 116.098 120.794 115.976 120.589 115.731C120.384 115.487 120.281 115.141 120.281 114.691V111.415H119.319V110.717H120.281V109.438H121.185ZM125.784 111.527C125.647 111.505 125.499 111.493 125.34 111.493C124.747 111.493 124.345 111.745 124.134 112.25V116H123.23V110.717H124.109L124.124 111.327C124.42 110.855 124.84 110.619 125.384 110.619C125.56 110.619 125.693 110.642 125.784 110.688V111.527ZM126.282 113.31C126.282 112.792 126.383 112.326 126.585 111.913C126.79 111.5 127.073 111.181 127.435 110.956C127.799 110.731 128.214 110.619 128.68 110.619C129.399 110.619 129.98 110.868 130.423 111.366C130.869 111.864 131.092 112.527 131.092 113.354V113.417C131.092 113.931 130.993 114.394 130.794 114.804C130.599 115.211 130.317 115.528 129.949 115.756C129.585 115.984 129.165 116.098 128.689 116.098C127.973 116.098 127.392 115.849 126.946 115.351C126.504 114.853 126.282 114.193 126.282 113.373V113.31ZM127.19 113.417C127.19 114.003 127.326 114.473 127.596 114.828C127.869 115.183 128.234 115.36 128.689 115.36C129.148 115.36 129.513 115.181 129.783 114.823C130.053 114.462 130.188 113.957 130.188 113.31C130.188 112.73 130.05 112.261 129.773 111.903C129.5 111.542 129.135 111.361 128.68 111.361C128.234 111.361 127.874 111.539 127.601 111.894C127.327 112.248 127.19 112.756 127.19 113.417ZM130.125 109.838V109.887H129.378L128.646 109.057L127.918 109.887H127.171V109.828L128.372 108.5H128.919L130.125 109.838ZM133.079 110.717L133.108 111.381C133.512 110.873 134.039 110.619 134.69 110.619C135.807 110.619 136.37 111.249 136.38 112.509V116H135.477V112.504C135.473 112.123 135.385 111.841 135.213 111.659C135.044 111.477 134.778 111.386 134.417 111.386C134.124 111.386 133.867 111.464 133.646 111.62C133.424 111.776 133.252 111.981 133.128 112.235V116H132.225V110.717H133.079ZM138.724 116H137.82V110.717H138.724V116ZM137.747 109.315C137.747 109.169 137.791 109.045 137.879 108.944C137.97 108.843 138.104 108.793 138.279 108.793C138.455 108.793 138.589 108.843 138.68 108.944C138.771 109.045 138.816 109.169 138.816 109.315C138.816 109.462 138.771 109.584 138.68 109.682C138.589 109.779 138.455 109.828 138.279 109.828C138.104 109.828 137.97 109.779 137.879 109.682C137.791 109.584 137.747 109.462 137.747 109.315ZM142.293 115.36C142.615 115.36 142.897 115.263 143.138 115.067C143.379 114.872 143.512 114.628 143.538 114.335H144.393C144.376 114.638 144.272 114.926 144.08 115.199C143.888 115.473 143.631 115.691 143.309 115.854C142.99 116.016 142.651 116.098 142.293 116.098C141.574 116.098 141.001 115.858 140.574 115.38C140.151 114.898 139.939 114.241 139.939 113.407V113.256C139.939 112.742 140.034 112.284 140.223 111.884C140.411 111.483 140.682 111.173 141.033 110.951C141.388 110.73 141.806 110.619 142.288 110.619C142.881 110.619 143.372 110.797 143.763 111.151C144.157 111.506 144.367 111.967 144.393 112.533H143.538C143.512 112.191 143.382 111.911 143.147 111.693C142.916 111.472 142.63 111.361 142.288 111.361C141.829 111.361 141.473 111.527 141.219 111.859C140.968 112.188 140.843 112.665 140.843 113.29V113.461C140.843 114.07 140.968 114.538 141.219 114.867C141.469 115.196 141.827 115.36 142.293 115.36ZM148.67 116C148.618 115.896 148.576 115.71 148.543 115.443C148.123 115.88 147.622 116.098 147.039 116.098C146.518 116.098 146.09 115.951 145.755 115.658C145.423 115.362 145.257 114.988 145.257 114.535C145.257 113.985 145.465 113.559 145.882 113.256C146.302 112.95 146.891 112.797 147.649 112.797H148.528V112.382C148.528 112.066 148.434 111.815 148.245 111.63C148.056 111.441 147.778 111.347 147.41 111.347C147.088 111.347 146.818 111.428 146.6 111.591C146.382 111.754 146.272 111.951 146.272 112.182H145.364C145.364 111.918 145.457 111.664 145.643 111.42C145.831 111.173 146.085 110.977 146.404 110.834C146.727 110.691 147.08 110.619 147.464 110.619C148.073 110.619 148.549 110.772 148.895 111.078C149.24 111.381 149.419 111.799 149.432 112.333V114.765C149.432 115.25 149.493 115.635 149.617 115.922V116H148.67ZM147.171 115.312C147.454 115.312 147.723 115.238 147.977 115.092C148.23 114.945 148.414 114.755 148.528 114.521V113.437H147.82C146.714 113.437 146.16 113.76 146.16 114.408C146.16 114.691 146.255 114.913 146.443 115.072C146.632 115.232 146.875 115.312 147.171 115.312ZM155.208 113.349H152.825V112.611H155.208V113.349ZM164.178 116H163.235L159.656 110.521V116H158.714V108.891H159.656L163.245 114.394V108.891H164.178V116ZM168.963 116C168.911 115.896 168.868 115.71 168.836 115.443C168.416 115.88 167.915 116.098 167.332 116.098C166.811 116.098 166.383 115.951 166.048 115.658C165.716 115.362 165.55 114.988 165.55 114.535C165.55 113.985 165.758 113.559 166.175 113.256C166.595 112.95 167.184 112.797 167.942 112.797H168.821V112.382C168.821 112.066 168.727 111.815 168.538 111.63C168.349 111.441 168.071 111.347 167.703 111.347C167.381 111.347 167.111 111.428 166.893 111.591C166.674 111.754 166.565 111.951 166.565 112.182H165.657C165.657 111.918 165.75 111.664 165.936 111.42C166.124 111.173 166.378 110.977 166.697 110.834C167.02 110.691 167.373 110.619 167.757 110.619C168.366 110.619 168.842 110.772 169.188 111.078C169.533 111.381 169.712 111.799 169.725 112.333V114.765C169.725 115.25 169.786 115.635 169.91 115.922V116H168.963ZM167.464 115.312C167.747 115.312 168.016 115.238 168.27 115.092C168.523 114.945 168.707 114.755 168.821 114.521V113.437H168.113C167.007 113.437 166.453 113.76 166.453 114.408C166.453 114.691 166.548 114.913 166.736 115.072C166.925 115.232 167.168 115.312 167.464 115.312ZM169.588 108.656C169.588 109.008 169.487 109.293 169.285 109.511C169.087 109.729 168.838 109.838 168.538 109.838C168.405 109.838 168.289 109.822 168.191 109.789C168.094 109.757 167.965 109.69 167.806 109.589C167.649 109.488 167.535 109.428 167.464 109.408C167.396 109.385 167.316 109.374 167.225 109.374C167.091 109.374 166.977 109.426 166.883 109.53C166.788 109.631 166.741 109.761 166.741 109.921L166.136 109.887C166.136 109.538 166.233 109.25 166.429 109.022C166.627 108.795 166.878 108.681 167.181 108.681C167.295 108.681 167.397 108.697 167.488 108.729C167.579 108.762 167.703 108.826 167.859 108.92C168.016 109.014 168.134 109.076 168.216 109.105C168.3 109.135 168.393 109.149 168.494 109.149C168.634 109.149 168.75 109.094 168.841 108.983C168.935 108.873 168.982 108.744 168.982 108.598L169.588 108.656ZM170.901 113.31C170.901 112.792 171.002 112.326 171.204 111.913C171.409 111.5 171.692 111.181 172.054 110.956C172.418 110.731 172.833 110.619 173.299 110.619C174.018 110.619 174.599 110.868 175.042 111.366C175.488 111.864 175.711 112.527 175.711 113.354V113.417C175.711 113.931 175.612 114.394 175.413 114.804C175.218 115.211 174.936 115.528 174.568 115.756C174.204 115.984 173.784 116.098 173.309 116.098C172.592 116.098 172.011 115.849 171.565 115.351C171.123 114.853 170.901 114.193 170.901 113.373V113.31ZM171.81 113.417C171.81 114.003 171.945 114.473 172.215 114.828C172.488 115.183 172.853 115.36 173.309 115.36C173.768 115.36 174.132 115.181 174.402 114.823C174.673 114.462 174.808 113.957 174.808 113.31C174.808 112.73 174.669 112.261 174.393 111.903C174.119 111.542 173.755 111.361 173.299 111.361C172.853 111.361 172.493 111.539 172.22 111.894C171.946 112.248 171.81 112.756 171.81 113.417ZM29.8027 132.36C30.125 132.36 30.4066 132.263 30.6475 132.067C30.8883 131.872 31.0218 131.628 31.0479 131.335H31.9023C31.8861 131.638 31.7819 131.926 31.5898 132.199C31.3978 132.473 31.1406 132.691 30.8184 132.854C30.4993 133.016 30.1608 133.098 29.8027 133.098C29.0833 133.098 28.5104 132.858 28.084 132.38C27.6608 131.898 27.4492 131.241 27.4492 130.407V130.256C27.4492 129.742 27.5436 129.284 27.7324 128.884C27.9212 128.483 28.1914 128.173 28.543 127.951C28.8978 127.73 29.3161 127.619 29.7979 127.619C30.3903 127.619 30.8818 127.797 31.2725 128.151C31.6663 128.506 31.8763 128.967 31.9023 129.533H31.0479C31.0218 129.191 30.8916 128.911 30.6572 128.693C30.4261 128.472 30.1396 128.361 29.7979 128.361C29.3389 128.361 28.9824 128.527 28.7285 128.859C28.4779 129.188 28.3525 129.665 28.3525 130.29V130.461C28.3525 131.07 28.4779 131.538 28.7285 131.867C28.9792 132.196 29.3372 132.36 29.8027 132.36ZM32.6787 130.31C32.6787 129.792 32.7796 129.326 32.9814 128.913C33.1865 128.5 33.4697 128.181 33.8311 127.956C34.1956 127.731 34.6107 127.619 35.0762 127.619C35.7956 127.619 36.3766 127.868 36.8193 128.366C37.2653 128.864 37.4883 129.527 37.4883 130.354V130.417C37.4883 130.931 37.389 131.394 37.1904 131.804C36.9951 132.211 36.7135 132.528 36.3457 132.756C35.9811 132.984 35.5612 133.098 35.0859 133.098C34.3698 133.098 33.7887 132.849 33.3428 132.351C32.9001 131.853 32.6787 131.193 32.6787 130.373V130.31ZM33.5869 130.417C33.5869 131.003 33.722 131.473 33.9922 131.828C34.2656 132.183 34.6302 132.36 35.0859 132.36C35.5449 132.36 35.9095 132.181 36.1797 131.823C36.4499 131.462 36.585 130.957 36.585 130.31C36.585 129.73 36.4466 129.261 36.1699 128.903C35.8965 128.542 35.5319 128.361 35.0762 128.361C34.6302 128.361 34.2705 128.539 33.9971 128.894C33.7236 129.248 33.5869 129.756 33.5869 130.417ZM39.4756 127.717L39.5049 128.381C39.9085 127.873 40.4359 127.619 41.0869 127.619C42.2035 127.619 42.7666 128.249 42.7764 129.509V133H41.873V129.504C41.8698 129.123 41.7819 128.841 41.6094 128.659C41.4401 128.477 41.1748 128.386 40.8135 128.386C40.5205 128.386 40.2633 128.464 40.042 128.62C39.8206 128.776 39.6481 128.981 39.5244 129.235V133H38.6211V127.717H39.4756ZM46.2578 132.36C46.5801 132.36 46.8617 132.263 47.1025 132.067C47.3434 131.872 47.4769 131.628 47.5029 131.335H48.3574C48.3411 131.638 48.237 131.926 48.0449 132.199C47.8529 132.473 47.5957 132.691 47.2734 132.854C46.9544 133.016 46.6159 133.098 46.2578 133.098C45.5384 133.098 44.9655 132.858 44.5391 132.38C44.1159 131.898 43.9043 131.241 43.9043 130.407V130.256C43.9043 129.742 43.9987 129.284 44.1875 128.884C44.3763 128.483 44.6465 128.173 44.998 127.951C45.3529 127.73 45.7712 127.619 46.2529 127.619C46.8454 127.619 47.3369 127.797 47.7275 128.151C48.1214 128.506 48.3314 128.967 48.3574 129.533H47.5029C47.4769 129.191 47.3467 128.911 47.1123 128.693C46.8812 128.472 46.5947 128.361 46.2529 128.361C45.7939 128.361 45.4375 128.527 45.1836 128.859C44.9329 129.188 44.8076 129.665 44.8076 130.29V130.461C44.8076 131.07 44.9329 131.538 45.1836 131.867C45.4342 132.196 45.7923 132.36 46.2578 132.36ZM50.3545 133H49.4512V125.5H50.3545V133ZM55.0664 132.478C54.7148 132.891 54.1989 133.098 53.5186 133.098C52.9554 133.098 52.5257 132.935 52.2295 132.609C51.9365 132.281 51.7884 131.796 51.7852 131.154V127.717H52.6885V131.13C52.6885 131.931 53.014 132.331 53.665 132.331C54.3551 132.331 54.8141 132.074 55.042 131.56V127.717H55.9453V133H55.0859L55.0664 132.478ZM58.3037 133H57.3955V127.717H58.3037V133ZM58.3135 125.505H59.4072L58.0986 126.94H57.3711L58.3135 125.505ZM59.5732 130.314C59.5732 129.504 59.7653 128.853 60.1494 128.361C60.5335 127.867 61.0365 127.619 61.6582 127.619C62.2767 127.619 62.7666 127.831 63.1279 128.254V125.5H64.0312V133H63.2012L63.1572 132.434C62.7959 132.876 62.293 133.098 61.6484 133.098C61.0365 133.098 60.5368 132.847 60.1494 132.346C59.7653 131.844 59.5732 131.19 59.5732 130.383V130.314ZM60.4766 130.417C60.4766 131.016 60.6003 131.485 60.8477 131.823C61.0951 132.162 61.4368 132.331 61.873 132.331C62.446 132.331 62.8643 132.074 63.1279 131.56V129.133C62.8577 128.635 62.4427 128.386 61.8828 128.386C61.4401 128.386 61.0951 128.557 60.8477 128.898C60.6003 129.24 60.4766 129.746 60.4766 130.417ZM65.1982 130.31C65.1982 129.792 65.2992 129.326 65.501 128.913C65.7061 128.5 65.9893 128.181 66.3506 127.956C66.7152 127.731 67.1302 127.619 67.5957 127.619C68.3151 127.619 68.8962 127.868 69.3389 128.366C69.7848 128.864 70.0078 129.527 70.0078 130.354V130.417C70.0078 130.931 69.9085 131.394 69.71 131.804C69.5146 132.211 69.2331 132.528 68.8652 132.756C68.5007 132.984 68.0807 133.098 67.6055 133.098C66.8893 133.098 66.3083 132.849 65.8623 132.351C65.4196 131.853 65.1982 131.193 65.1982 130.373V130.31ZM66.1064 130.417C66.1064 131.003 66.2415 131.473 66.5117 131.828C66.7852 132.183 67.1497 132.36 67.6055 132.36C68.0645 132.36 68.429 132.181 68.6992 131.823C68.9694 131.462 69.1045 130.957 69.1045 130.31C69.1045 129.73 68.9661 129.261 68.6895 128.903C68.416 128.542 68.0514 128.361 67.5957 128.361C67.1497 128.361 66.79 128.539 66.5166 128.894C66.2432 129.248 66.1064 129.756 66.1064 130.417Z" fill="#837E9F"/>
</g>
<defs>
<filter id="filter0_d_0_1" x="6" y="6" width="352" height="356" filterUnits="userSpaceOnUse" color-interpolation-filters="sRGB">
<feFlood flood-opacity="0" result="BackgroundImageFix"/>
<feColorMatrix in="SourceAlpha" type="matrix" values="0 0 0 0 0 0 0 0 0 0 0 0 0 0 0 0 0 0 127 0" result="hardAlpha"/>
<feOffset dx="2" dy="2"/>
<feGaussianBlur stdDeviation="1"/>
<feColorMatrix type="matrix" values="0 0 0 0 0 0 0 0 0 0 0 0 0 0 0 0 0 0 0.2 0"/>
<feBlend mode="normal" in2="BackgroundImageFix" result="effect1_dropShadow_0_1"/>
<feBlend mode="normal" in="SourceGraphic" in2="effect1_dropShadow_0_1" result="shape"/>
</filter>
<clipPath id="clip0_0_1">
<rect width="354" height="358" fill="white"/>
</clipPath>
</defs>
</svg>
