<svg width="354" height="355" viewBox="0 0 354 355" fill="none" xmlns="http://www.w3.org/2000/svg">
<g filter="url(#filter0_d_105_33)">
<rect x="1" y="1" width="348" height="349" rx="20" fill="#302F3D"/>
</g>
<path d="M31.8984 36.1367V38.5195H25.9414V42.2109H30.5117V44.5645H25.9414V48.5488H32.5332V51H22.8359V36.1367H31.8984ZM44.9551 51H41.4688L39.457 47.8652L39.1348 47.3574L38.8809 47.8848L37.084 51H33.5977L37.5137 45.3652L33.5977 39.8672H37.0449L38.959 42.7676L39.3105 43.3535L39.6035 42.7578L41.4395 39.8672H44.877L40.9316 45.3066L44.9551 51ZM52.8848 39.7109C53.6986 39.7109 54.4408 39.9095 55.1113 40.3066C55.7819 40.6973 56.3158 41.293 56.7129 42.0938C57.1165 42.888 57.3184 43.8646 57.3184 45.0234C57.3184 46.2409 57.0807 47.3151 56.6055 48.2461C56.1367 49.1706 55.4727 49.8867 54.6133 50.3945C53.7604 50.9023 52.7741 51.1562 51.6543 51.1562C50.9902 51.1562 50.375 51.0521 49.8086 50.8438L49.8477 52.3574V55.9414H46.8008V39.8672H49.6426V41C50.0007 40.6419 50.4336 40.3392 50.9414 40.0918C51.4492 39.8379 52.097 39.7109 52.8848 39.7109ZM54.125 45.1895C54.125 44.0111 53.9395 43.1842 53.5684 42.709C53.1973 42.2272 52.6569 41.9863 51.9473 41.9863C51.5436 41.9863 51.153 42.0514 50.7754 42.1816C50.4043 42.3118 50.0951 42.4779 49.8477 42.6797V48.5684C50.0365 48.7376 50.2741 48.8548 50.5605 48.9199C50.8535 48.985 51.1888 49.0176 51.5664 49.0176C52.0612 49.0176 52.5007 48.8678 52.8848 48.5684C53.2689 48.2689 53.5716 47.8294 53.793 47.25C54.0143 46.6706 54.125 45.9837 54.125 45.1895ZM68.9199 44.0762C68.9199 45.0137 68.8841 45.7103 68.8125 46.166H62.2305C62.2891 47.084 62.5755 47.7676 63.0898 48.2168C63.6107 48.666 64.3138 48.8906 65.1992 48.8906C65.6224 48.8906 66.1335 48.8353 66.7324 48.7246C67.3379 48.6074 67.7806 48.4707 68.0605 48.3145L68.5586 50.043C68.1745 50.3555 67.5983 50.6191 66.8301 50.834C66.0618 51.0488 65.2611 51.1562 64.4277 51.1562C63.3079 51.1562 62.3542 50.9284 61.5664 50.4727C60.7786 50.0169 60.1829 49.3594 59.7793 48.5C59.3757 47.6341 59.1738 46.599 59.1738 45.3945C59.1738 44.3008 59.3854 43.3242 59.8086 42.4648C60.2318 41.6055 60.847 40.9316 61.6543 40.4434C62.4681 39.9551 63.4349 39.7109 64.5547 39.7109C65.362 39.7109 66.0911 39.8574 66.7422 40.1504C67.3932 40.4434 67.9141 40.9154 68.3047 41.5664C68.7018 42.2174 68.9069 43.054 68.9199 44.0762ZM66.0879 44.4766C66.0944 44.3789 66.0977 44.2357 66.0977 44.0469C66.0977 43.3372 65.9642 42.8001 65.6973 42.4355C65.4303 42.0645 64.9974 41.8789 64.3984 41.8789C63.7995 41.8789 63.321 42.0775 62.9629 42.4746C62.6113 42.8652 62.3835 43.5326 62.2793 44.4766H66.0879ZM77.4062 39.6816C77.8294 39.6816 78.1191 39.7272 78.2754 39.8184V42.7578C78.1257 42.6732 77.9531 42.6081 77.7578 42.5625C77.569 42.5104 77.2956 42.4844 76.9375 42.4844C76 42.4844 75.1732 42.8197 74.457 43.4902V51H71.4102V39.8672H74.1152L74.252 41.3906C74.4147 41.1042 74.6556 40.8307 74.9746 40.5703C75.3001 40.3099 75.6745 40.0983 76.0977 39.9355C76.5273 39.7663 76.9635 39.6816 77.4062 39.6816ZM83.6562 39.8672V51H80.6094V39.8672H83.6562ZM80.2383 36.5762C80.2383 36.2507 80.3294 35.9479 80.5117 35.668C80.694 35.388 80.9349 35.1667 81.2344 35.0039C81.5339 34.8346 81.8496 34.75 82.1816 34.75C82.7155 34.75 83.1419 34.9062 83.4609 35.2188C83.7799 35.5247 83.9395 35.9219 83.9395 36.4102C83.9395 36.7357 83.8483 37.0417 83.666 37.3281C83.4902 37.6081 83.2526 37.8327 82.9531 38.002C82.6602 38.1647 82.3444 38.2461 82.0059 38.2461C81.6738 38.2461 81.3743 38.1745 81.1074 38.0312C80.8405 37.888 80.6289 37.6895 80.4727 37.4355C80.3164 37.1816 80.2383 36.8952 80.2383 36.5762ZM90.4824 34.4082H92.6602L95.4238 38.041L93.8516 38.9199L91.5762 36.5176L89.2129 38.9199L87.6895 38.0508L90.4824 34.4082ZM96.0293 44.0762C96.0293 45.0137 95.9935 45.7103 95.9219 46.166H89.3398C89.3984 47.084 89.6849 47.7676 90.1992 48.2168C90.7201 48.666 91.4232 48.8906 92.3086 48.8906C92.7318 48.8906 93.2428 48.8353 93.8418 48.7246C94.4473 48.6074 94.89 48.4707 95.1699 48.3145L95.668 50.043C95.2839 50.3555 94.7077 50.6191 93.9395 50.834C93.1712 51.0488 92.3704 51.1562 91.5371 51.1562C90.4173 51.1562 89.4635 50.9284 88.6758 50.4727C87.888 50.0169 87.2923 49.3594 86.8887 48.5C86.485 47.6341 86.2832 46.599 86.2832 45.3945C86.2832 44.3008 86.4948 43.3242 86.918 42.4648C87.3411 41.6055 87.9564 40.9316 88.7637 40.4434C89.5775 39.9551 90.5443 39.7109 91.6641 39.7109C92.4714 39.7109 93.2005 39.8574 93.8516 40.1504C94.5026 40.4434 95.0234 40.9154 95.4141 41.5664C95.8112 42.2174 96.0163 43.054 96.0293 44.0762ZM93.1973 44.4766C93.2038 44.3789 93.207 44.2357 93.207 44.0469C93.207 43.3372 93.0736 42.8001 92.8066 42.4355C92.5397 42.0645 92.1068 41.8789 91.5078 41.8789C90.9089 41.8789 90.4303 42.0775 90.0723 42.4746C89.7207 42.8652 89.4928 43.5326 89.3887 44.4766H93.1973ZM101.439 39.8672L101.498 41.0586C101.947 40.7201 102.507 40.4108 103.178 40.1309C103.848 39.8509 104.496 39.7012 105.121 39.6816C105.922 39.6556 106.576 39.7826 107.084 40.0625C107.592 40.3359 107.969 40.7949 108.217 41.4395C108.471 42.0775 108.598 42.9368 108.598 44.0176V51H105.551V44.6719C105.551 44.0404 105.502 43.5521 105.404 43.207C105.307 42.8555 105.141 42.6048 104.906 42.4551C104.672 42.3053 104.34 42.237 103.91 42.25C103.585 42.2565 103.217 42.3314 102.807 42.4746C102.396 42.6178 102.035 42.8262 101.723 43.0996V51H98.6758V39.8672H101.439ZM116.664 39.7109C117.322 39.7109 117.917 39.7695 118.451 39.8867C118.985 39.9974 119.353 40.1276 119.555 40.2773L119.174 42.6309C118.894 42.4811 118.581 42.3737 118.236 42.3086C117.898 42.237 117.478 42.2012 116.977 42.2012C116.508 42.2012 116.062 42.3021 115.639 42.5039C115.215 42.6992 114.864 43.0215 114.584 43.4707C114.304 43.9134 114.154 44.4863 114.135 45.1895C114.115 45.9642 114.219 46.6152 114.447 47.1426C114.675 47.6699 114.997 48.0638 115.414 48.3242C115.837 48.5781 116.319 48.7051 116.859 48.7051C117.348 48.7051 117.813 48.6628 118.256 48.5781C118.705 48.487 119.047 48.3763 119.281 48.2461L119.721 50.0527C119.376 50.3848 118.894 50.6517 118.275 50.8535C117.657 51.0553 116.999 51.1562 116.303 51.1562C115.183 51.1562 114.232 50.9186 113.451 50.4434C112.67 49.9616 112.084 49.3008 111.693 48.4609C111.303 47.6146 111.107 46.651 111.107 45.5703C111.107 44.4505 111.312 43.4479 111.723 42.5625C112.133 41.6771 112.755 40.9805 113.588 40.4727C114.421 39.9648 115.447 39.7109 116.664 39.7109ZM125.16 39.8672V51H122.113V39.8672H125.16ZM121.742 36.5762C121.742 36.2507 121.833 35.9479 122.016 35.668C122.198 35.388 122.439 35.1667 122.738 35.0039C123.038 34.8346 123.354 34.75 123.686 34.75C124.219 34.75 124.646 34.9062 124.965 35.2188C125.284 35.5247 125.443 35.9219 125.443 36.4102C125.443 36.7357 125.352 37.0417 125.17 37.3281C124.994 37.6081 124.757 37.8327 124.457 38.002C124.164 38.1647 123.848 38.2461 123.51 38.2461C123.178 38.2461 122.878 38.1745 122.611 38.0312C122.344 37.888 122.133 37.6895 121.977 37.4355C121.82 37.1816 121.742 36.8952 121.742 36.5762ZM132.787 39.6523C133.868 39.6523 134.73 39.7728 135.375 40.0137C136.026 40.248 136.511 40.6615 136.83 41.2539C137.149 41.8398 137.309 42.6634 137.309 43.7246V51.1562H135.531C135.238 51.1562 135.017 51.1367 134.867 51.0977C134.717 51.0586 134.6 50.9674 134.516 50.8242C134.431 50.681 134.389 50.4531 134.389 50.1406V50.0625C134.05 50.375 133.633 50.6354 133.139 50.8438C132.644 51.0521 132.094 51.1562 131.488 51.1562C130.772 51.1562 130.137 51.0033 129.584 50.6973C129.037 50.3848 128.611 49.9551 128.305 49.4082C128.005 48.8548 127.855 48.2298 127.855 47.5332C127.855 46.8822 128.021 46.3255 128.354 45.8633C128.692 45.401 129.174 45.0299 129.799 44.75C130.769 44.3203 132.257 44.1055 134.262 44.1055V43.4023C134.262 42.9857 134.206 42.6797 134.096 42.4844C133.992 42.2891 133.786 42.1556 133.48 42.084C133.181 42.0124 132.706 41.9766 132.055 41.9766C131.742 41.9766 131.267 42.0579 130.629 42.2207C129.991 42.377 129.444 42.5592 128.988 42.7676L128.314 40.8145C128.575 40.6582 128.952 40.4889 129.447 40.3066C129.942 40.1243 130.486 39.9714 131.078 39.8477C131.671 39.7174 132.24 39.6523 132.787 39.6523ZM132.533 49.0957C132.859 49.0957 133.201 49.0306 133.559 48.9004C133.917 48.7637 134.151 48.6237 134.262 48.4805V45.8242C133.891 45.8242 133.471 45.8665 133.002 45.9512C132.54 46.0293 132.195 46.1204 131.967 46.2246C131.674 46.3353 131.439 46.485 131.264 46.6738C131.088 46.8626 131 47.1426 131 47.5137C131 48.0345 131.14 48.4284 131.42 48.6953C131.706 48.9622 132.077 49.0957 132.533 49.0957ZM140.248 48.0312C140.372 48.1289 140.603 48.2493 140.941 48.3926C141.28 48.5293 141.671 48.6497 142.113 48.7539C142.562 48.8581 143.005 48.9102 143.441 48.9102C144.047 48.9167 144.49 48.8483 144.77 48.7051C145.049 48.5618 145.189 48.321 145.189 47.9824C145.189 47.6699 144.994 47.3867 144.604 47.1328C144.219 46.8789 143.611 46.6152 142.777 46.3418C141.788 46.0163 141.072 45.5736 140.629 45.0137C140.193 44.4538 139.975 43.7637 139.975 42.9434C139.975 42.2533 140.163 41.6673 140.541 41.1855C140.925 40.6973 141.456 40.3294 142.133 40.082C142.81 39.8346 143.588 39.7109 144.467 39.7109C145.176 39.7109 145.811 39.7793 146.371 39.916C146.931 40.0527 147.341 40.196 147.602 40.3457L147.27 42.6895C147.048 42.4876 146.69 42.3118 146.195 42.1621C145.707 42.0124 145.232 41.9375 144.77 41.9375C144.105 41.9375 143.624 42.0091 143.324 42.1523C143.031 42.2891 142.885 42.5169 142.885 42.8359C142.885 43.0638 142.953 43.2591 143.09 43.4219C143.227 43.5781 143.445 43.7311 143.744 43.8809C144.05 44.0241 144.49 44.1934 145.062 44.3887C145.824 44.6491 146.43 44.9355 146.879 45.248C147.335 45.554 147.667 45.9089 147.875 46.3125C148.083 46.7096 148.188 47.1849 148.188 47.7383C148.188 48.8646 147.8 49.7174 147.025 50.2969C146.257 50.8698 145.189 51.1562 143.822 51.1562C143.308 51.1562 142.79 51.1139 142.27 51.0293C141.749 50.9447 141.28 50.8372 140.863 50.707C140.453 50.5703 140.144 50.4336 139.936 50.2969L140.248 48.0312Z" fill="#837E9F"/>
<defs>
<filter id="filter0_d_105_33" x="0" y="0" width="354" height="355" filterUnits="userSpaceOnUse" color-interpolation-filters="sRGB">
<feFlood flood-opacity="0" result="BackgroundImageFix"/>
<feColorMatrix in="SourceAlpha" type="matrix" values="0 0 0 0 0 0 0 0 0 0 0 0 0 0 0 0 0 0 127 0" result="hardAlpha"/>
<feMorphology radius="1" operator="dilate" in="SourceAlpha" result="effect1_dropShadow_105_33"/>
<feOffset dx="2" dy="2"/>
<feGaussianBlur stdDeviation="1"/>
<feComposite in2="hardAlpha" operator="out"/>
<feColorMatrix type="matrix" values="0 0 0 0 0 0 0 0 0 0 0 0 0 0 0 0 0 0 0.2 0"/>
<feBlend mode="normal" in2="BackgroundImageFix" result="effect1_dropShadow_105_33"/>
<feBlend mode="normal" in="SourceGraphic" in2="effect1_dropShadow_105_33" result="shape"/>
</filter>
</defs>
</svg>
