<svg width="354" height="354" viewBox="0 0 354 354" fill="none" xmlns="http://www.w3.org/2000/svg">
<g filter="url(#filter0_d_105_32)">
<rect x="1" y="1" width="348" height="348" rx="20" fill="#302F3D"/>
</g>
<path d="M61 82H45C43.8954 82 43 82.8954 43 84V94C43 95.1046 43.8954 96 45 96H61C62.1046 96 63 95.1046 63 94V84C63 82.8954 62.1046 82 61 82Z" stroke="#837E9F" stroke-width="2" stroke-linecap="round" stroke-linejoin="round"/>
<path d="M57 96V80C57 79.4696 56.7893 78.9609 56.4142 78.5858C56.0391 78.2107 55.5304 78 55 78H51C50.4696 78 49.9609 78.2107 49.5858 78.5858C49.2107 78.9609 49 79.4696 49 80V96" stroke="#837E9F" stroke-width="2" stroke-linecap="round" stroke-linejoin="round"/>
<g clip-path="url(#clip0_105_32)">
<path d="M57 141V137.13C57.0375 136.653 56.9731 136.174 56.811 135.724C56.6489 135.274 56.3929 134.863 56.06 134.52C59.2 134.17 62.5 132.98 62.5 127.52C62.4997 126.124 61.9627 124.781 61 123.77C61.4559 122.549 61.4236 121.198 60.91 120C60.91 120 59.73 119.65 57 121.48C54.708 120.859 52.292 120.859 50 121.48C47.27 119.65 46.09 120 46.09 120C45.5764 121.198 45.5441 122.549 46 123.77C45.0301 124.789 44.4925 126.143 44.5 127.55C44.5 132.97 47.8 134.16 50.94 134.55C50.611 134.89 50.3573 135.295 50.1953 135.74C50.0334 136.184 49.9668 136.658 50 137.13V141M50 138C45 139.5 45 135.5 43 135L50 138Z" stroke="#837E9F" stroke-width="2" stroke-linecap="round" stroke-linejoin="round"/>
</g>
<path d="M53 273C58.5228 273 63 268.523 63 263C63 257.477 58.5228 253 53 253C47.4772 253 43 257.477 43 263C43 268.523 47.4772 273 53 273Z" stroke="#837E9F" stroke-width="2" stroke-linecap="round" stroke-linejoin="round"/>
<path d="M43 263H63" stroke="#837E9F" stroke-width="2" stroke-linecap="round" stroke-linejoin="round"/>
<path d="M53 253C55.5013 255.738 56.9228 259.292 57 263C56.9228 266.708 55.5013 270.262 53 273C50.4987 270.262 49.0772 266.708 49 263C49.0772 259.292 50.4987 255.738 53 253V253Z" stroke="#837E9F" stroke-width="2" stroke-linecap="round" stroke-linejoin="round"/>
<path d="M57 171C58.5913 171 60.1174 171.632 61.2426 172.757C62.3679 173.883 63 175.409 63 177V184H59V177C59 176.47 58.7893 175.961 58.4142 175.586C58.0391 175.211 57.5304 175 57 175C56.4696 175 55.9609 175.211 55.5858 175.586C55.2107 175.961 55 176.47 55 177V184H51V177C51 175.409 51.6321 173.883 52.7574 172.757C53.8826 171.632 55.4087 171 57 171V171Z" stroke="#837E9F" stroke-width="2" stroke-linecap="round" stroke-linejoin="round"/>
<path d="M47 172H43V184H47V172Z" stroke="#837E9F" stroke-width="2" stroke-linecap="round" stroke-linejoin="round"/>
<path d="M45 169C46.1046 169 47 168.105 47 167C47 165.895 46.1046 165 45 165C43.8954 165 43 165.895 43 167C43 168.105 43.8954 169 45 169Z" stroke="#837E9F" stroke-width="2" stroke-linecap="round" stroke-linejoin="round"/>
<path d="M45 299H61C62.1 299 63 299.9 63 301V313C63 314.1 62.1 315 61 315H45C43.9 315 43 314.1 43 313V301C43 299.9 43.9 299 45 299Z" stroke="#837E9F" stroke-width="2" stroke-linecap="round" stroke-linejoin="round"/>
<path d="M63 301L53 308L43 301" stroke="#837E9F" stroke-width="2" stroke-linecap="round" stroke-linejoin="round"/>
<path d="M62 41C62 48 53 54 53 54C53 54 44 48 44 41C44 38.6131 44.9482 36.3239 46.636 34.636C48.3239 32.9482 50.6131 32 53 32C55.3869 32 57.6761 32.9482 59.364 34.636C61.0518 36.3239 62 38.6131 62 41Z" stroke="#837E9F" stroke-width="2" stroke-linecap="round" stroke-linejoin="round"/>
<path d="M53 44C54.6569 44 56 42.6569 56 41C56 39.3431 54.6569 38 53 38C51.3431 38 50 39.3431 50 41C50 42.6569 51.3431 44 53 44Z" stroke="#837E9F" stroke-width="2" stroke-linecap="round" stroke-linejoin="round"/>
<path d="M64 210C63.0424 210.675 61.9821 211.192 60.86 211.53C60.2577 210.838 59.4573 210.347 58.567 210.124C57.6767 209.901 56.7395 209.957 55.8821 210.284C55.0247 210.612 54.2884 211.194 53.773 211.954C53.2575 212.713 52.9877 213.612 53 214.53V215.53C51.2426 215.576 49.5013 215.186 47.931 214.395C46.3607 213.605 45.0103 212.439 44 211C44 211 40 220 49 224C46.9405 225.398 44.4872 226.099 42 226C51 231 62 226 62 214.5C61.9991 214.221 61.9723 213.944 61.92 213.67C62.9406 212.663 63.6608 211.393 64 210V210Z" stroke="#837E9F" stroke-width="2" stroke-linecap="round" stroke-linejoin="round"/>
<defs>
<filter id="filter0_d_105_32" x="0" y="0" width="354" height="354" filterUnits="userSpaceOnUse" color-interpolation-filters="sRGB">
<feFlood flood-opacity="0" result="BackgroundImageFix"/>
<feColorMatrix in="SourceAlpha" type="matrix" values="0 0 0 0 0 0 0 0 0 0 0 0 0 0 0 0 0 0 127 0" result="hardAlpha"/>
<feMorphology radius="1" operator="dilate" in="SourceAlpha" result="effect1_dropShadow_105_32"/>
<feOffset dx="2" dy="2"/>
<feGaussianBlur stdDeviation="1"/>
<feComposite in2="hardAlpha" operator="out"/>
<feColorMatrix type="matrix" values="0 0 0 0 0 0 0 0 0 0 0 0 0 0 0 0 0 0 0.2 0"/>
<feBlend mode="normal" in2="BackgroundImageFix" result="effect1_dropShadow_105_32"/>
<feBlend mode="normal" in="SourceGraphic" in2="effect1_dropShadow_105_32" result="shape"/>
</filter>
<clipPath id="clip0_105_32">
<rect width="24" height="24" fill="white" transform="translate(41 119)"/>
</clipPath>
</defs>
</svg>
