<svg width="354" height="354" viewBox="0 0 354 354" fill="none" xmlns="http://www.w3.org/2000/svg">
<g filter="url(#filter0_d_0_1)">
<path d="M329 1H21C9.9543 1 1 9.9543 1 21V329C1 340.046 9.9543 349 21 349H329C340.046 349 349 340.046 349 329V21C349 9.9543 340.046 1 329 1Z" fill="#302F3D"/>
</g>
<path d="M61 82H45C43.8954 82 43 82.8954 43 84V94C43 95.1046 43.8954 96 45 96H61C62.1046 96 63 95.1046 63 94V84C63 82.8954 62.1046 82 61 82Z" stroke="#837E9F" stroke-width="2" stroke-linecap="round" stroke-linejoin="round"/>
<path d="M57 96V80C57 79.4696 56.7893 78.9609 56.4142 78.5858C56.0391 78.2107 55.5304 78 55 78H51C50.4696 78 49.9609 78.2107 49.5858 78.5858C49.2107 78.9609 49 79.4696 49 80V96" stroke="#837E9F" stroke-width="2" stroke-linecap="round" stroke-linejoin="round"/>
<path d="M57 141V137.13C57.0375 136.653 56.9731 136.174 56.811 135.724C56.6489 135.274 56.3929 134.863 56.06 134.52C59.2 134.17 62.5 132.98 62.5 127.52C62.4997 126.124 61.9627 124.781 61 123.77C61.4559 122.549 61.4236 121.198 60.91 120C60.91 120 59.73 119.65 57 121.48C54.708 120.859 52.292 120.859 50 121.48C47.27 119.65 46.09 120 46.09 120C45.5764 121.198 45.5441 122.549 46 123.77C45.0301 124.789 44.4925 126.143 44.5 127.55C44.5 132.97 47.8 134.16 50.94 134.55C50.611 134.89 50.3573 135.295 50.1953 135.74C50.0334 136.184 49.9668 136.658 50 137.13V141H57ZM50 138C45 139.5 45 135.5 43 135L50 138Z" stroke="#837E9F" stroke-width="2" stroke-linecap="round" stroke-linejoin="round"/>
<path d="M53 273C58.5228 273 63 268.523 63 263C63 257.477 58.5228 253 53 253C47.4772 253 43 257.477 43 263C43 268.523 47.4772 273 53 273Z" stroke="#837E9F" stroke-width="2" stroke-linecap="round" stroke-linejoin="round"/>
<path d="M43 263H63" stroke="#837E9F" stroke-width="2" stroke-linecap="round" stroke-linejoin="round"/>
<path d="M53 253C55.5013 255.738 56.9228 259.292 57 263C56.9228 266.708 55.5013 270.262 53 273C50.4987 270.262 49.0772 266.708 49 263C49.0772 259.292 50.4987 255.738 53 253Z" stroke="#837E9F" stroke-width="2" stroke-linecap="round" stroke-linejoin="round"/>
<path d="M57 171C58.5913 171 60.1174 171.632 61.2426 172.757C62.3679 173.883 63 175.409 63 177V184H59V177C59 176.47 58.7893 175.961 58.4142 175.586C58.0391 175.211 57.5304 175 57 175C56.4696 175 55.9609 175.211 55.5858 175.586C55.2107 175.961 55 176.47 55 177V184H51V177C51 175.409 51.6321 173.883 52.7574 172.757C53.8826 171.632 55.4087 171 57 171Z" stroke="#837E9F" stroke-width="2" stroke-linecap="round" stroke-linejoin="round"/>
<path d="M47 172H43V184H47V172Z" stroke="#837E9F" stroke-width="2" stroke-linecap="round" stroke-linejoin="round"/>
<path d="M45 169C46.1046 169 47 168.105 47 167C47 165.895 46.1046 165 45 165C43.8954 165 43 165.895 43 167C43 168.105 43.8954 169 45 169Z" stroke="#837E9F" stroke-width="2" stroke-linecap="round" stroke-linejoin="round"/>
<path d="M45 299H61C62.1 299 63 299.9 63 301V313C63 314.1 62.1 315 61 315H45C43.9 315 43 314.1 43 313V301C43 299.9 43.9 299 45 299Z" stroke="#837E9F" stroke-width="2" stroke-linecap="round" stroke-linejoin="round"/>
<path d="M63 301L53 308L43 301" stroke="#837E9F" stroke-width="2" stroke-linecap="round" stroke-linejoin="round"/>
<path d="M62 41C62 48 53 54 53 54C53 54 44 48 44 41C44 38.6131 44.9482 36.3239 46.636 34.636C48.3239 32.9482 50.6131 32 53 32C55.3869 32 57.6761 32.9482 59.364 34.636C61.0518 36.3239 62 38.6131 62 41Z" stroke="#837E9F" stroke-width="2" stroke-linecap="round" stroke-linejoin="round"/>
<path d="M53 44C54.6569 44 56 42.6569 56 41C56 39.3431 54.6569 38 53 38C51.3431 38 50 39.3431 50 41C50 42.6569 51.3431 44 53 44Z" stroke="#837E9F" stroke-width="2" stroke-linecap="round" stroke-linejoin="round"/>
<path d="M64 210C63.0424 210.675 61.9821 211.192 60.86 211.53C60.2577 210.838 59.4573 210.347 58.567 210.124C57.6767 209.901 56.7395 209.957 55.8821 210.284C55.0247 210.612 54.2884 211.194 53.773 211.954C53.2575 212.713 52.9877 213.612 53 214.53V215.53C51.2426 215.576 49.5013 215.186 47.931 214.395C46.3607 213.605 45.0103 212.439 44 211C44 211 40 220 49 224C46.9405 225.398 44.4872 226.099 42 226C51 231 62 226 62 214.5C61.9991 214.221 61.9723 213.944 61.92 213.67C62.9406 212.663 63.6608 211.393 64 210Z" stroke="#837E9F" stroke-width="2" stroke-linecap="round" stroke-linejoin="round"/>
<path d="M86.8916 38.3389C87.0651 38.3389 87.3592 38.3262 87.7739 38.3008C88.3537 38.2627 88.8001 38.2437 89.1133 38.2437C90.167 38.2437 90.9541 38.4468 91.4746 38.853C91.9993 39.255 92.2617 39.8136 92.2617 40.5288C92.2617 40.842 92.2088 41.1551 92.103 41.4683C92.0015 41.7772 91.8407 42.0501 91.6206 42.2871C91.4048 42.5241 91.1297 42.687 90.7954 42.7759C91.1805 42.7928 91.5339 42.9113 91.8555 43.1313C92.1813 43.3514 92.4395 43.6392 92.6299 43.9946C92.8203 44.3459 92.9155 44.7161 92.9155 45.1055C92.9155 46.0534 92.6193 46.7876 92.0269 47.3081C91.4344 47.8286 90.4294 48.0889 89.0117 48.0889C88.4701 48.0889 87.7782 48.0592 86.936 48H86.2314V38.3325L86.8916 38.3389ZM89.3989 42.5283C89.6782 42.5283 89.93 42.4606 90.1543 42.3252C90.3828 42.1898 90.5627 41.9867 90.6938 41.7158C90.825 41.445 90.8906 41.117 90.8906 40.7319C90.8906 40.2326 90.7171 39.8602 90.3701 39.6147C90.0231 39.3651 89.5174 39.2402 88.853 39.2402C88.6584 39.2402 88.4256 39.2466 88.1548 39.2593C87.8882 39.272 87.7168 39.2931 87.6406 39.3228V42.4966C87.8226 42.5262 88.0913 42.541 88.4468 42.541L88.9673 42.5347C89.0688 42.5304 89.2127 42.5283 89.3989 42.5283ZM89.1768 47.0605C89.9342 47.0605 90.5076 46.9251 90.897 46.6543C91.2863 46.3792 91.481 45.918 91.481 45.2705C91.481 44.6696 91.299 44.2316 90.9351 43.9565C90.5754 43.6772 90.0104 43.5376 89.2402 43.5376L88.5166 43.5312C88.1104 43.5312 87.8184 43.5439 87.6406 43.5693V46.9146C87.738 46.9738 87.9284 47.014 88.2119 47.0352C88.4954 47.0521 88.8171 47.0605 89.1768 47.0605ZM97.7969 40.6558C98.1354 40.6558 98.3703 40.6854 98.5015 40.7446V42.0522C98.4126 42.0015 98.2962 41.9613 98.1523 41.9316C98.0127 41.8978 97.8117 41.8809 97.5493 41.8809C97.2277 41.8809 96.9294 41.9401 96.6543 42.0586C96.3835 42.1729 96.1549 42.3125 95.9688 42.4775V48H94.5723V40.7764H95.7466L95.8418 41.5762C95.9349 41.4492 96.0851 41.3138 96.2925 41.1699C96.5041 41.026 96.7432 40.9054 97.0098 40.8081C97.2806 40.7065 97.543 40.6558 97.7969 40.6558ZM102.291 40.6558C102.85 40.6558 103.315 40.7192 103.688 40.8462C104.06 40.9731 104.35 41.2059 104.557 41.5444C104.764 41.8787 104.868 42.3506 104.868 42.96V48.1016H104.297C104.106 48.1016 103.963 48.0889 103.865 48.0635C103.768 48.0381 103.692 47.9788 103.637 47.8857C103.582 47.7926 103.554 47.6445 103.554 47.4414V47.3906C103.343 47.5853 103.051 47.7524 102.678 47.8921C102.31 48.0317 101.925 48.1016 101.523 48.1016C101.096 48.1016 100.713 48.019 100.374 47.854C100.04 47.689 99.7773 47.4541 99.5869 47.1494C99.4007 46.8405 99.3076 46.4787 99.3076 46.064C99.3076 45.6069 99.4303 45.2113 99.6758 44.877C99.9255 44.5426 100.272 44.2845 100.717 44.1025C101.11 43.946 101.555 43.8296 102.05 43.7534C102.549 43.673 103.023 43.6328 103.472 43.6328V42.9028C103.472 42.5643 103.417 42.3104 103.307 42.1411C103.201 41.9718 103.04 41.8576 102.824 41.7983C102.608 41.7391 102.31 41.7095 101.929 41.7095C101.726 41.7095 101.491 41.737 101.225 41.792C100.962 41.847 100.715 41.9168 100.482 42.0015C100.253 42.0819 100.084 42.1602 99.9741 42.2363L99.6313 41.3223C99.7414 41.2546 99.9403 41.1678 100.228 41.062C100.52 40.9562 100.85 40.8631 101.218 40.7827C101.591 40.6981 101.948 40.6558 102.291 40.6558ZM101.936 47.0605C102.134 47.0605 102.344 47.0309 102.564 46.9717C102.784 46.9124 102.977 46.8426 103.142 46.7622C103.311 46.6776 103.421 46.6056 103.472 46.5464V44.5215C103.163 44.5215 102.814 44.5511 102.424 44.6104C102.039 44.6696 101.728 44.7563 101.491 44.8706C101.233 44.9933 101.034 45.1372 100.895 45.3022C100.755 45.4673 100.685 45.681 100.685 45.9434C100.685 46.6882 101.102 47.0605 101.936 47.0605ZM106.817 46.5464C106.897 46.6014 107.045 46.6712 107.261 46.7559C107.477 46.8363 107.729 46.9082 108.017 46.9717C108.304 47.0352 108.59 47.0669 108.874 47.0669C109.288 47.0669 109.606 46.9886 109.826 46.832C110.05 46.6755 110.162 46.4575 110.162 46.1782C110.162 45.9116 110.035 45.6831 109.781 45.4927C109.532 45.3022 109.161 45.1034 108.67 44.896C108.031 44.6252 107.534 44.3078 107.179 43.9438C106.827 43.5799 106.652 43.1208 106.652 42.5664C106.652 42.1559 106.766 41.8089 106.995 41.5254C107.227 41.2376 107.541 41.0218 107.934 40.8779C108.328 40.734 108.772 40.6621 109.267 40.6621C109.656 40.6621 110.022 40.7044 110.365 40.7891C110.708 40.8737 110.953 40.9562 111.102 41.0366L110.873 42.0903C110.755 41.9888 110.545 41.8978 110.245 41.8174C109.944 41.7327 109.633 41.6904 109.312 41.6904C108.867 41.6904 108.527 41.7624 108.29 41.9062C108.057 42.0501 107.94 42.2469 107.94 42.4966C107.94 42.7082 107.993 42.8901 108.099 43.0425C108.209 43.1948 108.364 43.3281 108.562 43.4424C108.761 43.5566 109.022 43.6794 109.343 43.8105C109.961 44.0602 110.469 44.3628 110.867 44.7183C111.264 45.0695 111.463 45.5223 111.463 46.0767C111.463 46.5083 111.36 46.8765 111.152 47.1812C110.949 47.4816 110.655 47.7101 110.27 47.8667C109.889 48.0233 109.436 48.1016 108.912 48.1016C108.442 48.1016 107.985 48.0487 107.541 47.9429C107.1 47.8371 106.789 47.7186 106.607 47.5874L106.817 46.5464ZM114.726 40.7764V48H113.33V40.7764H114.726ZM113.063 38.5928C113.063 38.415 113.112 38.25 113.209 38.0977C113.311 37.9453 113.442 37.8247 113.603 37.7358C113.763 37.647 113.926 37.6025 114.091 37.6025C114.379 37.6025 114.599 37.6829 114.751 37.8438C114.908 38.0046 114.986 38.2098 114.986 38.4595C114.986 38.6457 114.938 38.8149 114.84 38.9673C114.743 39.1196 114.616 39.2381 114.459 39.3228C114.303 39.4074 114.136 39.4497 113.958 39.4497C113.797 39.4497 113.649 39.4159 113.514 39.3481C113.378 39.2762 113.268 39.1746 113.184 39.0435C113.103 38.9123 113.063 38.762 113.063 38.5928ZM118.598 37.4375V48H117.202V37.4375H118.598Z" fill="#837E9F"/>
<path d="M82.291 302.125V303.66H83.4746V304.498H82.291V308.43C82.291 308.684 82.3438 308.875 82.4492 309.004C82.5547 309.129 82.7344 309.191 82.9883 309.191C83.1133 309.191 83.2852 309.168 83.5039 309.121V310C83.2188 310.078 82.9414 310.117 82.6719 310.117C82.1875 310.117 81.8223 309.971 81.5762 309.678C81.3301 309.385 81.207 308.969 81.207 308.43V304.498H80.0527V303.66H81.207V302.125H82.291ZM87.2891 309.232C87.6758 309.232 88.0137 309.115 88.3027 308.881C88.5918 308.646 88.752 308.354 88.7832 308.002H89.8086C89.7891 308.365 89.6641 308.711 89.4336 309.039C89.2031 309.367 88.8945 309.629 88.5078 309.824C88.125 310.02 87.7188 310.117 87.2891 310.117C86.4258 310.117 85.7383 309.83 85.2266 309.256C84.7188 308.678 84.4648 307.889 84.4648 306.889V306.707C84.4648 306.09 84.5781 305.541 84.8047 305.061C85.0312 304.58 85.3555 304.207 85.7773 303.941C86.2031 303.676 86.7051 303.543 87.2832 303.543C87.9941 303.543 88.584 303.756 89.0527 304.182C89.5254 304.607 89.7773 305.16 89.8086 305.84H88.7832C88.752 305.43 88.5957 305.094 88.3145 304.832C88.0371 304.566 87.6934 304.434 87.2832 304.434C86.7324 304.434 86.3047 304.633 86 305.031C85.6992 305.426 85.5488 305.998 85.5488 306.748V306.953C85.5488 307.684 85.6992 308.246 86 308.641C86.3008 309.035 86.7305 309.232 87.2891 309.232ZM92.1113 304.428C92.5918 303.838 93.2168 303.543 93.9863 303.543C95.3262 303.543 96.002 304.299 96.0137 305.811V310H94.9297V305.805C94.9258 305.348 94.8203 305.01 94.6133 304.791C94.4102 304.572 94.0918 304.463 93.6582 304.463C93.3066 304.463 92.998 304.557 92.7324 304.744C92.4668 304.932 92.2598 305.178 92.1113 305.482V310H91.0273V301H92.1113V304.428ZM101.551 310C101.488 309.875 101.438 309.652 101.398 309.332C100.895 309.855 100.293 310.117 99.5938 310.117C98.9688 310.117 98.4551 309.941 98.0527 309.59C97.6543 309.234 97.4551 308.785 97.4551 308.242C97.4551 307.582 97.7051 307.07 98.2051 306.707C98.709 306.34 99.416 306.156 100.326 306.156H101.381V305.658C101.381 305.279 101.268 304.979 101.041 304.756C100.814 304.529 100.48 304.416 100.039 304.416C99.6523 304.416 99.3281 304.514 99.0664 304.709C98.8047 304.904 98.6738 305.141 98.6738 305.418H97.584C97.584 305.102 97.6953 304.797 97.918 304.504C98.1445 304.207 98.4492 303.973 98.832 303.801C99.2188 303.629 99.6426 303.543 100.104 303.543C100.834 303.543 101.406 303.727 101.82 304.094C102.234 304.457 102.449 304.959 102.465 305.6V308.518C102.465 309.1 102.539 309.562 102.688 309.906V310H101.551ZM99.752 309.174C100.092 309.174 100.414 309.086 100.719 308.91C101.023 308.734 101.244 308.506 101.381 308.225V306.924H100.531C99.2031 306.924 98.5391 307.312 98.5391 308.09C98.5391 308.43 98.6523 308.695 98.8789 308.887C99.1055 309.078 99.3965 309.174 99.752 309.174ZM107.229 304.633C107.064 304.605 106.887 304.592 106.695 304.592C105.984 304.592 105.502 304.895 105.248 305.5V310H104.164V303.66H105.219L105.236 304.393C105.592 303.826 106.096 303.543 106.748 303.543C106.959 303.543 107.119 303.57 107.229 303.625V304.633ZM109.408 310H108.324V301H109.408V310ZM113.779 310.117C112.92 310.117 112.221 309.836 111.682 309.273C111.143 308.707 110.873 307.951 110.873 307.006V306.807C110.873 306.178 110.992 305.617 111.23 305.125C111.473 304.629 111.809 304.242 112.238 303.965C112.672 303.684 113.141 303.543 113.645 303.543C114.469 303.543 115.109 303.814 115.566 304.357C116.023 304.9 116.252 305.678 116.252 306.689V307.141H111.957C111.973 307.766 112.154 308.271 112.502 308.658C112.854 309.041 113.299 309.232 113.838 309.232C114.221 309.232 114.545 309.154 114.811 308.998C115.076 308.842 115.309 308.635 115.508 308.377L116.17 308.893C115.639 309.709 114.842 310.117 113.779 310.117ZM113.645 304.434C113.207 304.434 112.84 304.594 112.543 304.914C112.246 305.23 112.062 305.676 111.992 306.25H115.168V306.168C115.137 305.617 114.988 305.191 114.723 304.891C114.457 304.586 114.098 304.434 113.645 304.434ZM121.203 308.318C121.203 308.025 121.092 307.799 120.869 307.639C120.65 307.475 120.266 307.334 119.715 307.217C119.168 307.1 118.732 306.959 118.408 306.795C118.088 306.631 117.85 306.436 117.693 306.209C117.541 305.982 117.465 305.713 117.465 305.4C117.465 304.881 117.684 304.441 118.121 304.082C118.562 303.723 119.125 303.543 119.809 303.543C120.527 303.543 121.109 303.729 121.555 304.1C122.004 304.471 122.229 304.945 122.229 305.523H121.139C121.139 305.227 121.012 304.971 120.758 304.756C120.508 304.541 120.191 304.434 119.809 304.434C119.414 304.434 119.105 304.52 118.883 304.691C118.66 304.863 118.549 305.088 118.549 305.365C118.549 305.627 118.652 305.824 118.859 305.957C119.066 306.09 119.439 306.217 119.979 306.338C120.521 306.459 120.961 306.604 121.297 306.771C121.633 306.939 121.881 307.143 122.041 307.381C122.205 307.615 122.287 307.902 122.287 308.242C122.287 308.809 122.061 309.264 121.607 309.607C121.154 309.947 120.566 310.117 119.844 310.117C119.336 310.117 118.887 310.027 118.496 309.848C118.105 309.668 117.799 309.418 117.576 309.098C117.357 308.773 117.248 308.424 117.248 308.049H118.332C118.352 308.412 118.496 308.701 118.766 308.916C119.039 309.127 119.398 309.232 119.844 309.232C120.254 309.232 120.582 309.15 120.828 308.986C121.078 308.818 121.203 308.596 121.203 308.318ZM123.436 306.777C123.436 305.805 123.666 305.023 124.127 304.434C124.588 303.84 125.191 303.543 125.938 303.543C126.68 303.543 127.268 303.797 127.701 304.305V301H128.785V310H127.789L127.736 309.32C127.303 309.852 126.699 310.117 125.926 310.117C125.191 310.117 124.592 309.816 124.127 309.215C123.666 308.613 123.436 307.828 123.436 306.859V306.777ZM124.52 306.9C124.52 307.619 124.668 308.182 124.965 308.588C125.262 308.994 125.672 309.197 126.195 309.197C126.883 309.197 127.385 308.889 127.701 308.271V305.359C127.377 304.762 126.879 304.463 126.207 304.463C125.676 304.463 125.262 304.668 124.965 305.078C124.668 305.488 124.52 306.096 124.52 306.9ZM134.387 310C134.324 309.875 134.273 309.652 134.234 309.332C133.73 309.855 133.129 310.117 132.43 310.117C131.805 310.117 131.291 309.941 130.889 309.59C130.49 309.234 130.291 308.785 130.291 308.242C130.291 307.582 130.541 307.07 131.041 306.707C131.545 306.34 132.252 306.156 133.162 306.156H134.217V305.658C134.217 305.279 134.104 304.979 133.877 304.756C133.65 304.529 133.316 304.416 132.875 304.416C132.488 304.416 132.164 304.514 131.902 304.709C131.641 304.904 131.51 305.141 131.51 305.418H130.42C130.42 305.102 130.531 304.797 130.754 304.504C130.98 304.207 131.285 303.973 131.668 303.801C132.055 303.629 132.479 303.543 132.939 303.543C133.67 303.543 134.242 303.727 134.656 304.094C135.07 304.457 135.285 304.959 135.301 305.6V308.518C135.301 309.1 135.375 309.562 135.523 309.906V310H134.387ZM132.588 309.174C132.928 309.174 133.25 309.086 133.555 308.91C133.859 308.734 134.08 308.506 134.217 308.225V306.924H133.367C132.039 306.924 131.375 307.312 131.375 308.09C131.375 308.43 131.488 308.695 131.715 308.887C131.941 309.078 132.232 309.174 132.588 309.174ZM138.998 308.529L140.568 303.66H141.676L139.402 310H138.576L136.279 303.66H137.387L138.998 308.529ZM143.896 310H142.812V303.66H143.896V310ZM142.725 301.979C142.725 301.803 142.777 301.654 142.883 301.533C142.992 301.412 143.152 301.352 143.363 301.352C143.574 301.352 143.734 301.412 143.844 301.533C143.953 301.654 144.008 301.803 144.008 301.979C144.008 302.154 143.953 302.301 143.844 302.418C143.734 302.535 143.574 302.594 143.363 302.594C143.152 302.594 142.992 302.535 142.883 302.418C142.777 302.301 142.725 302.154 142.725 301.979ZM146.814 310H145.73V301H146.814V310ZM152.469 310C152.406 309.875 152.355 309.652 152.316 309.332C151.812 309.855 151.211 310.117 150.512 310.117C149.887 310.117 149.373 309.941 148.971 309.59C148.572 309.234 148.373 308.785 148.373 308.242C148.373 307.582 148.623 307.07 149.123 306.707C149.627 306.34 150.334 306.156 151.244 306.156H152.299V305.658C152.299 305.279 152.186 304.979 151.959 304.756C151.732 304.529 151.398 304.416 150.957 304.416C150.57 304.416 150.246 304.514 149.984 304.709C149.723 304.904 149.592 305.141 149.592 305.418H148.502C148.502 305.102 148.613 304.797 148.836 304.504C149.062 304.207 149.367 303.973 149.75 303.801C150.137 303.629 150.561 303.543 151.021 303.543C151.752 303.543 152.324 303.727 152.738 304.094C153.152 304.457 153.367 304.959 153.383 305.6V308.518C153.383 309.1 153.457 309.562 153.605 309.906V310H152.469ZM150.67 309.174C151.01 309.174 151.332 309.086 151.637 308.91C151.941 308.734 152.162 308.506 152.299 308.225V306.924H151.449C150.121 306.924 149.457 307.312 149.457 308.09C149.457 308.43 149.57 308.695 149.797 308.887C150.023 309.078 150.314 309.174 150.67 309.174ZM158.773 308.318C158.773 308.025 158.662 307.799 158.439 307.639C158.221 307.475 157.836 307.334 157.285 307.217C156.738 307.1 156.303 306.959 155.979 306.795C155.658 306.631 155.42 306.436 155.264 306.209C155.111 305.982 155.035 305.713 155.035 305.4C155.035 304.881 155.254 304.441 155.691 304.082C156.133 303.723 156.695 303.543 157.379 303.543C158.098 303.543 158.68 303.729 159.125 304.1C159.574 304.471 159.799 304.945 159.799 305.523H158.709C158.709 305.227 158.582 304.971 158.328 304.756C158.078 304.541 157.762 304.434 157.379 304.434C156.984 304.434 156.676 304.52 156.453 304.691C156.23 304.863 156.119 305.088 156.119 305.365C156.119 305.627 156.223 305.824 156.43 305.957C156.637 306.09 157.01 306.217 157.549 306.338C158.092 306.459 158.531 306.604 158.867 306.771C159.203 306.939 159.451 307.143 159.611 307.381C159.775 307.615 159.857 307.902 159.857 308.242C159.857 308.809 159.631 309.264 159.178 309.607C158.725 309.947 158.137 310.117 157.414 310.117C156.906 310.117 156.457 310.027 156.066 309.848C155.676 309.668 155.369 309.418 155.146 309.098C154.928 308.773 154.818 308.424 154.818 308.049H155.902C155.922 308.412 156.066 308.701 156.336 308.916C156.609 309.127 156.969 309.232 157.414 309.232C157.824 309.232 158.152 309.15 158.398 308.986C158.648 308.818 158.773 308.596 158.773 308.318ZM164.961 308.318C164.961 308.025 164.85 307.799 164.627 307.639C164.408 307.475 164.023 307.334 163.473 307.217C162.926 307.1 162.49 306.959 162.166 306.795C161.846 306.631 161.607 306.436 161.451 306.209C161.299 305.982 161.223 305.713 161.223 305.4C161.223 304.881 161.441 304.441 161.879 304.082C162.32 303.723 162.883 303.543 163.566 303.543C164.285 303.543 164.867 303.729 165.312 304.1C165.762 304.471 165.986 304.945 165.986 305.523H164.896C164.896 305.227 164.77 304.971 164.516 304.756C164.266 304.541 163.949 304.434 163.566 304.434C163.172 304.434 162.863 304.52 162.641 304.691C162.418 304.863 162.307 305.088 162.307 305.365C162.307 305.627 162.41 305.824 162.617 305.957C162.824 306.09 163.197 306.217 163.736 306.338C164.279 306.459 164.719 306.604 165.055 306.771C165.391 306.939 165.639 307.143 165.799 307.381C165.963 307.615 166.045 307.902 166.045 308.242C166.045 308.809 165.818 309.264 165.365 309.607C164.912 309.947 164.324 310.117 163.602 310.117C163.094 310.117 162.645 310.027 162.254 309.848C161.863 309.668 161.557 309.418 161.334 309.098C161.115 308.773 161.006 308.424 161.006 308.049H162.09C162.109 308.412 162.254 308.701 162.523 308.916C162.797 309.127 163.156 309.232 163.602 309.232C164.012 309.232 164.34 309.15 164.586 308.986C164.836 308.818 164.961 308.596 164.961 308.318ZM170.088 310.117C169.229 310.117 168.529 309.836 167.99 309.273C167.451 308.707 167.182 307.951 167.182 307.006V306.807C167.182 306.178 167.301 305.617 167.539 305.125C167.781 304.629 168.117 304.242 168.547 303.965C168.98 303.684 169.449 303.543 169.953 303.543C170.777 303.543 171.418 303.814 171.875 304.357C172.332 304.9 172.561 305.678 172.561 306.689V307.141H168.266C168.281 307.766 168.463 308.271 168.811 308.658C169.162 309.041 169.607 309.232 170.146 309.232C170.529 309.232 170.854 309.154 171.119 308.998C171.385 308.842 171.617 308.635 171.816 308.377L172.479 308.893C171.947 309.709 171.15 310.117 170.088 310.117ZM169.953 304.434C169.516 304.434 169.148 304.594 168.852 304.914C168.555 305.23 168.371 305.676 168.301 306.25H171.477V306.168C171.445 305.617 171.297 305.191 171.031 304.891C170.766 304.586 170.406 304.434 169.953 304.434ZM174.846 303.66L174.881 304.457C175.365 303.848 175.998 303.543 176.779 303.543C178.119 303.543 178.795 304.299 178.807 305.811V310H177.723V305.805C177.719 305.348 177.613 305.01 177.406 304.791C177.203 304.572 176.885 304.463 176.451 304.463C176.1 304.463 175.791 304.557 175.525 304.744C175.26 304.932 175.053 305.178 174.904 305.482V310H173.82V303.66H174.846ZM189.805 307.059C189.758 308.004 189.523 308.75 189.102 309.297C188.68 309.844 188.115 310.117 187.408 310.117C186.678 310.117 186.209 309.789 186.002 309.133C185.791 309.465 185.549 309.713 185.275 309.877C185.006 310.037 184.727 310.117 184.438 310.117C183.883 310.117 183.463 309.891 183.178 309.438C182.893 308.984 182.787 308.357 182.861 307.557C182.92 306.912 183.066 306.338 183.301 305.834C183.539 305.326 183.844 304.928 184.215 304.639C184.59 304.35 184.982 304.205 185.393 304.205C185.709 304.205 185.992 304.248 186.242 304.334C186.492 304.416 186.773 304.58 187.086 304.826L186.781 308.072C186.707 308.975 186.957 309.426 187.531 309.426C187.973 309.426 188.33 309.207 188.604 308.77C188.877 308.332 189.025 307.762 189.049 307.059C189.123 305.539 188.84 304.381 188.199 303.584C187.562 302.787 186.592 302.389 185.287 302.389C184.502 302.389 183.805 302.584 183.195 302.975C182.586 303.361 182.105 303.922 181.754 304.656C181.402 305.391 181.205 306.238 181.162 307.199C181.115 308.168 181.232 309.01 181.514 309.725C181.795 310.436 182.223 310.979 182.797 311.354C183.375 311.732 184.072 311.922 184.889 311.922C185.24 311.922 185.592 311.879 185.943 311.793C186.299 311.707 186.594 311.596 186.828 311.459L187.045 312.133C186.803 312.285 186.48 312.41 186.078 312.508C185.68 312.605 185.275 312.654 184.865 312.654C183.889 312.654 183.049 312.434 182.346 311.992C181.643 311.555 181.115 310.922 180.764 310.094C180.416 309.27 180.266 308.305 180.312 307.199C180.359 306.125 180.6 305.16 181.033 304.305C181.467 303.445 182.055 302.783 182.797 302.318C183.539 301.85 184.377 301.615 185.311 301.615C186.283 301.615 187.117 301.834 187.812 302.271C188.508 302.709 189.025 303.34 189.365 304.164C189.705 304.988 189.852 305.953 189.805 307.059ZM183.793 307.557C183.738 308.111 183.789 308.537 183.945 308.834C184.105 309.131 184.357 309.279 184.701 309.279C184.936 309.279 185.16 309.18 185.375 308.98C185.594 308.781 185.773 308.496 185.914 308.125L185.92 308.072L186.189 305.125C185.971 305.012 185.736 304.955 185.486 304.955C185.029 304.955 184.65 305.188 184.35 305.652C184.053 306.117 183.867 306.752 183.793 307.557ZM190.965 306.777C190.965 305.789 191.193 305.004 191.65 304.422C192.107 303.836 192.713 303.543 193.467 303.543C194.24 303.543 194.844 303.816 195.277 304.363L195.33 303.66H196.32V309.848C196.32 310.668 196.076 311.314 195.588 311.787C195.104 312.26 194.451 312.496 193.631 312.496C193.174 312.496 192.727 312.398 192.289 312.203C191.852 312.008 191.518 311.74 191.287 311.4L191.85 310.75C192.314 311.324 192.883 311.611 193.555 311.611C194.082 311.611 194.492 311.463 194.785 311.166C195.082 310.869 195.23 310.451 195.23 309.912V309.367C194.797 309.867 194.205 310.117 193.455 310.117C192.713 310.117 192.111 309.818 191.65 309.221C191.193 308.623 190.965 307.809 190.965 306.777ZM192.055 306.9C192.055 307.615 192.201 308.178 192.494 308.588C192.787 308.994 193.197 309.197 193.725 309.197C194.408 309.197 194.91 308.887 195.23 308.266V305.371C194.898 304.766 194.4 304.463 193.736 304.463C193.209 304.463 192.797 304.668 192.5 305.078C192.203 305.488 192.055 306.096 192.055 306.9ZM198.98 303.66L199.01 304.363C199.475 303.816 200.102 303.543 200.891 303.543C201.777 303.543 202.381 303.883 202.701 304.562C202.912 304.258 203.186 304.012 203.521 303.824C203.861 303.637 204.262 303.543 204.723 303.543C206.113 303.543 206.82 304.279 206.844 305.752V310H205.76V305.816C205.76 305.363 205.656 305.025 205.449 304.803C205.242 304.576 204.895 304.463 204.406 304.463C204.004 304.463 203.67 304.584 203.404 304.826C203.139 305.064 202.984 305.387 202.941 305.793V310H201.852V305.846C201.852 304.924 201.4 304.463 200.498 304.463C199.787 304.463 199.301 304.766 199.039 305.371V310H197.955V303.66H198.98ZM212.398 310C212.336 309.875 212.285 309.652 212.246 309.332C211.742 309.855 211.141 310.117 210.441 310.117C209.816 310.117 209.303 309.941 208.9 309.59C208.502 309.234 208.303 308.785 208.303 308.242C208.303 307.582 208.553 307.07 209.053 306.707C209.557 306.34 210.264 306.156 211.174 306.156H212.229V305.658C212.229 305.279 212.115 304.979 211.889 304.756C211.662 304.529 211.328 304.416 210.887 304.416C210.5 304.416 210.176 304.514 209.914 304.709C209.652 304.904 209.521 305.141 209.521 305.418H208.432C208.432 305.102 208.543 304.797 208.766 304.504C208.992 304.207 209.297 303.973 209.68 303.801C210.066 303.629 210.49 303.543 210.951 303.543C211.682 303.543 212.254 303.727 212.668 304.094C213.082 304.457 213.297 304.959 213.312 305.6V308.518C213.312 309.1 213.387 309.562 213.535 309.906V310H212.398ZM210.6 309.174C210.939 309.174 211.262 309.086 211.566 308.91C211.871 308.734 212.092 308.506 212.229 308.225V306.924H211.379C210.051 306.924 209.387 307.312 209.387 308.09C209.387 308.43 209.5 308.695 209.727 308.887C209.953 309.078 210.244 309.174 210.6 309.174ZM216.189 310H215.105V303.66H216.189V310ZM215.018 301.979C215.018 301.803 215.07 301.654 215.176 301.533C215.285 301.412 215.445 301.352 215.656 301.352C215.867 301.352 216.027 301.412 216.137 301.533C216.246 301.654 216.301 301.803 216.301 301.979C216.301 302.154 216.246 302.301 216.137 302.418C216.027 302.535 215.867 302.594 215.656 302.594C215.445 302.594 215.285 302.535 215.176 302.418C215.07 302.301 215.018 302.154 215.018 301.979ZM219.107 310H218.023V301H219.107V310ZM220.871 309.432C220.871 309.244 220.926 309.088 221.035 308.963C221.148 308.838 221.316 308.775 221.539 308.775C221.762 308.775 221.93 308.838 222.043 308.963C222.16 309.088 222.219 309.244 222.219 309.432C222.219 309.611 222.16 309.762 222.043 309.883C221.93 310.004 221.762 310.064 221.539 310.064C221.316 310.064 221.148 310.004 221.035 309.883C220.926 309.762 220.871 309.611 220.871 309.432ZM226.555 309.232C226.941 309.232 227.279 309.115 227.568 308.881C227.857 308.646 228.018 308.354 228.049 308.002H229.074C229.055 308.365 228.93 308.711 228.699 309.039C228.469 309.367 228.16 309.629 227.773 309.824C227.391 310.02 226.984 310.117 226.555 310.117C225.691 310.117 225.004 309.83 224.492 309.256C223.984 308.678 223.73 307.889 223.73 306.889V306.707C223.73 306.09 223.844 305.541 224.07 305.061C224.297 304.58 224.621 304.207 225.043 303.941C225.469 303.676 225.971 303.543 226.549 303.543C227.26 303.543 227.85 303.756 228.318 304.182C228.791 304.607 229.043 305.16 229.074 305.84H228.049C228.018 305.43 227.861 305.094 227.58 304.832C227.303 304.566 226.959 304.434 226.549 304.434C225.998 304.434 225.57 304.633 225.266 305.031C224.965 305.426 224.814 305.998 224.814 306.748V306.953C224.814 307.684 224.965 308.246 225.266 308.641C225.566 309.035 225.996 309.232 226.555 309.232ZM230.006 306.771C230.006 306.15 230.127 305.592 230.369 305.096C230.615 304.6 230.955 304.217 231.389 303.947C231.826 303.678 232.324 303.543 232.883 303.543C233.746 303.543 234.443 303.842 234.975 304.439C235.51 305.037 235.777 305.832 235.777 306.824V306.9C235.777 307.518 235.658 308.072 235.42 308.564C235.186 309.053 234.848 309.434 234.406 309.707C233.969 309.98 233.465 310.117 232.895 310.117C232.035 310.117 231.338 309.818 230.803 309.221C230.271 308.623 230.006 307.832 230.006 306.848V306.771ZM231.096 306.9C231.096 307.604 231.258 308.168 231.582 308.594C231.91 309.02 232.348 309.232 232.895 309.232C233.445 309.232 233.883 309.018 234.207 308.588C234.531 308.154 234.693 307.549 234.693 306.771C234.693 306.076 234.527 305.514 234.195 305.084C233.867 304.65 233.43 304.434 232.883 304.434C232.348 304.434 231.916 304.646 231.588 305.072C231.26 305.498 231.096 306.107 231.096 306.9ZM238.156 303.66L238.186 304.363C238.65 303.816 239.277 303.543 240.066 303.543C240.953 303.543 241.557 303.883 241.877 304.562C242.088 304.258 242.361 304.012 242.697 303.824C243.037 303.637 243.438 303.543 243.898 303.543C245.289 303.543 245.996 304.279 246.02 305.752V310H244.936V305.816C244.936 305.363 244.832 305.025 244.625 304.803C244.418 304.576 244.07 304.463 243.582 304.463C243.18 304.463 242.846 304.584 242.58 304.826C242.314 305.064 242.16 305.387 242.117 305.793V310H241.027V305.846C241.027 304.924 240.576 304.463 239.674 304.463C238.963 304.463 238.477 304.766 238.215 305.371V310H237.131V303.66H238.156Z" fill="#837E9F"/>
<path d="M86.8252 178.879L87.7393 175.245H88.5522L87.168 180H86.5088L85.353 176.396L84.228 180H83.5688L82.189 175.245H82.9976L83.9336 178.805L85.041 175.245H85.6958L86.8252 178.879ZM93.5928 178.879L94.5068 175.245H95.3198L93.9355 180H93.2764L92.1206 176.396L90.9956 180H90.3364L88.9565 175.245H89.7651L90.7012 178.805L91.8086 175.245H92.4634L93.5928 178.879ZM100.36 178.879L101.274 175.245H102.087L100.703 180H100.044L98.8882 176.396L97.7632 180H97.104L95.7241 175.245H96.5327L97.4688 178.805L98.5762 175.245H99.231L100.36 178.879ZM102.391 179.574C102.391 179.433 102.432 179.316 102.514 179.222C102.599 179.128 102.725 179.082 102.892 179.082C103.059 179.082 103.185 179.128 103.27 179.222C103.357 179.316 103.401 179.433 103.401 179.574C103.401 179.708 103.357 179.821 103.27 179.912C103.185 180.003 103.059 180.048 102.892 180.048C102.725 180.048 102.599 180.003 102.514 179.912C102.432 179.821 102.391 179.708 102.391 179.574ZM105.629 180H104.816V173.25H105.629V180ZM107.818 180H107.005V175.245H107.818V180ZM106.939 173.984C106.939 173.852 106.979 173.741 107.058 173.65C107.14 173.559 107.26 173.514 107.418 173.514C107.576 173.514 107.696 173.559 107.778 173.65C107.86 173.741 107.901 173.852 107.901 173.984C107.901 174.116 107.86 174.226 107.778 174.313C107.696 174.401 107.576 174.445 107.418 174.445C107.26 174.445 107.14 174.401 107.058 174.313C106.979 174.226 106.939 174.116 106.939 173.984ZM109.892 175.245L109.918 175.843C110.282 175.386 110.756 175.157 111.342 175.157C112.347 175.157 112.854 175.724 112.863 176.858V180H112.05V176.854C112.047 176.511 111.968 176.257 111.812 176.093C111.66 175.929 111.421 175.847 111.096 175.847C110.833 175.847 110.601 175.917 110.402 176.058C110.203 176.199 110.047 176.383 109.936 176.612V180H109.123V175.245H109.892ZM115.416 177.798L114.906 178.33V180H114.093V173.25H114.906V177.333L115.341 176.81L116.822 175.245H117.811L115.961 177.231L118.026 180H117.073L115.416 177.798ZM120.536 180.088C119.891 180.088 119.367 179.877 118.962 179.455C118.558 179.03 118.356 178.463 118.356 177.754V177.605C118.356 177.133 118.445 176.713 118.624 176.344C118.806 175.972 119.058 175.682 119.38 175.474C119.705 175.263 120.057 175.157 120.435 175.157C121.053 175.157 121.533 175.361 121.876 175.768C122.219 176.175 122.39 176.758 122.39 177.517V177.855H119.169C119.181 178.324 119.317 178.704 119.578 178.994C119.841 179.281 120.175 179.424 120.58 179.424C120.867 179.424 121.11 179.366 121.309 179.249C121.508 179.131 121.683 178.976 121.832 178.783L122.329 179.169C121.93 179.782 121.333 180.088 120.536 180.088ZM120.435 175.825C120.106 175.825 119.831 175.945 119.608 176.186C119.386 176.423 119.248 176.757 119.195 177.188H121.577V177.126C121.554 176.713 121.442 176.394 121.243 176.168C121.044 175.939 120.774 175.825 120.435 175.825ZM123.137 177.583C123.137 176.854 123.31 176.268 123.656 175.825C124.001 175.38 124.454 175.157 125.014 175.157C125.57 175.157 126.011 175.348 126.336 175.729V173.25H127.149V180H126.402L126.363 179.49C126.038 179.889 125.585 180.088 125.005 180.088C124.454 180.088 124.004 179.862 123.656 179.411C123.31 178.96 123.137 178.371 123.137 177.645V177.583ZM123.95 177.675C123.95 178.214 124.062 178.636 124.284 178.941C124.507 179.246 124.814 179.398 125.207 179.398C125.723 179.398 126.099 179.167 126.336 178.704V176.52C126.093 176.071 125.72 175.847 125.216 175.847C124.817 175.847 124.507 176.001 124.284 176.309C124.062 176.616 123.95 177.072 123.95 177.675ZM129.298 180H128.485V175.245H129.298V180ZM128.419 173.984C128.419 173.852 128.459 173.741 128.538 173.65C128.62 173.559 128.74 173.514 128.898 173.514C129.057 173.514 129.177 173.559 129.259 173.65C129.341 173.741 129.382 173.852 129.382 173.984C129.382 174.116 129.341 174.226 129.259 174.313C129.177 174.401 129.057 174.445 128.898 174.445C128.74 174.445 128.62 174.401 128.538 174.313C128.459 174.226 128.419 174.116 128.419 173.984ZM131.373 175.245L131.399 175.843C131.762 175.386 132.237 175.157 132.823 175.157C133.828 175.157 134.334 175.724 134.343 176.858V180H133.53V176.854C133.527 176.511 133.448 176.257 133.293 176.093C133.141 175.929 132.902 175.847 132.577 175.847C132.313 175.847 132.082 175.917 131.882 176.058C131.683 176.199 131.528 176.383 131.417 176.612V180H130.604V175.245H131.373ZM135.587 179.574C135.587 179.433 135.628 179.316 135.71 179.222C135.795 179.128 135.921 179.082 136.088 179.082C136.255 179.082 136.381 179.128 136.466 179.222C136.554 179.316 136.598 179.433 136.598 179.574C136.598 179.708 136.554 179.821 136.466 179.912C136.381 180.003 136.255 180.048 136.088 180.048C135.921 180.048 135.795 180.003 135.71 179.912C135.628 179.821 135.587 179.708 135.587 179.574ZM139.85 179.424C140.14 179.424 140.393 179.336 140.61 179.161C140.827 178.985 140.947 178.765 140.97 178.501H141.739C141.725 178.774 141.631 179.033 141.458 179.279C141.285 179.525 141.054 179.722 140.764 179.868C140.477 180.015 140.172 180.088 139.85 180.088C139.202 180.088 138.687 179.873 138.303 179.442C137.922 179.008 137.731 178.417 137.731 177.667V177.53C137.731 177.067 137.816 176.656 137.986 176.295C138.156 175.935 138.399 175.655 138.716 175.456C139.035 175.257 139.412 175.157 139.845 175.157C140.378 175.157 140.821 175.317 141.172 175.636C141.527 175.956 141.716 176.37 141.739 176.88H140.97C140.947 176.572 140.83 176.32 140.619 176.124C140.411 175.925 140.153 175.825 139.845 175.825C139.432 175.825 139.111 175.975 138.883 176.273C138.657 176.569 138.544 176.999 138.544 177.561V177.715C138.544 178.263 138.657 178.685 138.883 178.98C139.108 179.276 139.431 179.424 139.85 179.424ZM142.438 177.579C142.438 177.113 142.529 176.694 142.71 176.322C142.895 175.95 143.15 175.663 143.475 175.46C143.803 175.258 144.177 175.157 144.596 175.157C145.243 175.157 145.766 175.381 146.165 175.83C146.566 176.278 146.767 176.874 146.767 177.618V177.675C146.767 178.138 146.677 178.554 146.499 178.923C146.323 179.29 146.069 179.575 145.738 179.78C145.41 179.985 145.032 180.088 144.604 180.088C143.96 180.088 143.437 179.864 143.036 179.416C142.637 178.967 142.438 178.374 142.438 177.636V177.579ZM143.255 177.675C143.255 178.203 143.377 178.626 143.62 178.945C143.866 179.265 144.194 179.424 144.604 179.424C145.018 179.424 145.346 179.263 145.589 178.941C145.832 178.616 145.954 178.162 145.954 177.579C145.954 177.057 145.829 176.635 145.58 176.313C145.334 175.988 145.006 175.825 144.596 175.825C144.194 175.825 143.871 175.985 143.625 176.304C143.378 176.624 143.255 177.081 143.255 177.675ZM148.551 175.245L148.573 175.772C148.921 175.362 149.392 175.157 149.983 175.157C150.648 175.157 151.101 175.412 151.341 175.922C151.5 175.693 151.705 175.509 151.957 175.368C152.211 175.228 152.512 175.157 152.857 175.157C153.9 175.157 154.431 175.709 154.448 176.814V180H153.635V176.862C153.635 176.522 153.558 176.269 153.402 176.102C153.247 175.932 152.986 175.847 152.62 175.847C152.318 175.847 152.068 175.938 151.869 176.12C151.669 176.298 151.554 176.54 151.521 176.845V180H150.704V176.884C150.704 176.193 150.366 175.847 149.689 175.847C149.156 175.847 148.791 176.074 148.595 176.528V180H147.782V175.245H148.551ZM155.841 180.549H155.143L157.814 173.602H158.509L155.841 180.549ZM160.271 180H159.458V175.245H160.271V180ZM159.392 173.984C159.392 173.852 159.432 173.741 159.511 173.65C159.593 173.559 159.713 173.514 159.871 173.514C160.029 173.514 160.149 173.559 160.231 173.65C160.313 173.741 160.354 173.852 160.354 173.984C160.354 174.116 160.313 174.226 160.231 174.313C160.149 174.401 160.029 174.445 159.871 174.445C159.713 174.445 159.593 174.401 159.511 174.313C159.432 174.226 159.392 174.116 159.392 173.984ZM162.345 175.245L162.372 175.843C162.735 175.386 163.209 175.157 163.795 175.157C164.8 175.157 165.307 175.724 165.316 176.858V180H164.503V176.854C164.5 176.511 164.421 176.257 164.266 176.093C164.113 175.929 163.875 175.847 163.549 175.847C163.286 175.847 163.054 175.917 162.855 176.058C162.656 176.199 162.5 176.383 162.389 176.612V180H161.576V175.245H162.345ZM166.705 180.549H166.006L168.678 173.602H169.372L166.705 180.549ZM171.354 174.094V175.245H172.242V175.874H171.354V178.822C171.354 179.013 171.394 179.156 171.473 179.253C171.552 179.347 171.687 179.394 171.877 179.394C171.971 179.394 172.1 179.376 172.264 179.341V180C172.05 180.059 171.842 180.088 171.64 180.088C171.276 180.088 171.002 179.978 170.818 179.758C170.633 179.539 170.541 179.227 170.541 178.822V175.874H169.675V175.245H170.541V174.094H171.354ZM175.103 179.424C175.393 179.424 175.646 179.336 175.863 179.161C176.08 178.985 176.2 178.765 176.223 178.501H176.992C176.978 178.774 176.884 179.033 176.711 179.279C176.538 179.525 176.307 179.722 176.017 179.868C175.729 180.015 175.425 180.088 175.103 180.088C174.455 180.088 173.939 179.873 173.556 179.442C173.175 179.008 172.984 178.417 172.984 177.667V177.53C172.984 177.067 173.069 176.656 173.239 176.295C173.409 175.935 173.652 175.655 173.969 175.456C174.288 175.257 174.665 175.157 175.098 175.157C175.631 175.157 176.074 175.317 176.425 175.636C176.78 175.956 176.969 176.37 176.992 176.88H176.223C176.2 176.572 176.083 176.32 175.872 176.124C175.664 175.925 175.406 175.825 175.098 175.825C174.685 175.825 174.364 175.975 174.136 176.273C173.91 176.569 173.797 176.999 173.797 177.561V177.715C173.797 178.263 173.91 178.685 174.136 178.98C174.361 179.276 174.684 179.424 175.103 179.424ZM178.719 175.821C179.08 175.378 179.548 175.157 180.125 175.157C181.13 175.157 181.637 175.724 181.646 176.858V180H180.833V176.854C180.83 176.511 180.751 176.257 180.596 176.093C180.443 175.929 180.205 175.847 179.879 175.847C179.616 175.847 179.384 175.917 179.185 176.058C178.986 176.199 178.831 176.383 178.719 176.612V180H177.906V173.25H178.719V175.821ZM185.799 180C185.752 179.906 185.714 179.739 185.685 179.499C185.307 179.892 184.855 180.088 184.331 180.088C183.862 180.088 183.477 179.956 183.175 179.692C182.876 179.426 182.727 179.089 182.727 178.682C182.727 178.187 182.915 177.803 183.29 177.53C183.667 177.255 184.198 177.117 184.88 177.117H185.671V176.744C185.671 176.459 185.586 176.234 185.417 176.067C185.247 175.897 184.996 175.812 184.665 175.812C184.375 175.812 184.132 175.885 183.936 176.032C183.739 176.178 183.641 176.355 183.641 176.563H182.824C182.824 176.326 182.907 176.098 183.074 175.878C183.244 175.655 183.473 175.479 183.76 175.351C184.05 175.222 184.368 175.157 184.713 175.157C185.261 175.157 185.69 175.295 186.001 175.57C186.312 175.843 186.473 176.219 186.484 176.7V178.888C186.484 179.325 186.54 179.672 186.651 179.93V180H185.799ZM184.45 179.38C184.705 179.38 184.946 179.314 185.175 179.183C185.403 179.051 185.569 178.879 185.671 178.668V177.693H185.034C184.038 177.693 183.54 177.984 183.54 178.567C183.54 178.822 183.625 179.021 183.795 179.165C183.965 179.309 184.183 179.38 184.45 179.38ZM190.057 175.975C189.934 175.954 189.801 175.944 189.657 175.944C189.124 175.944 188.762 176.171 188.572 176.625V180H187.759V175.245H188.55L188.563 175.794C188.83 175.37 189.208 175.157 189.697 175.157C189.855 175.157 189.975 175.178 190.057 175.219V175.975ZM191.692 180H190.879V173.25H191.692V180ZM194.97 180.088C194.326 180.088 193.801 179.877 193.397 179.455C192.993 179.03 192.791 178.463 192.791 177.754V177.605C192.791 177.133 192.88 176.713 193.059 176.344C193.24 175.972 193.492 175.682 193.814 175.474C194.14 175.263 194.491 175.157 194.869 175.157C195.487 175.157 195.968 175.361 196.311 175.768C196.653 176.175 196.825 176.758 196.825 177.517V177.855H193.604C193.615 178.324 193.751 178.704 194.012 178.994C194.276 179.281 194.61 179.424 195.014 179.424C195.301 179.424 195.544 179.366 195.744 179.249C195.943 179.131 196.117 178.976 196.267 178.783L196.763 179.169C196.365 179.782 195.767 180.088 194.97 180.088ZM194.869 175.825C194.541 175.825 194.266 175.945 194.043 176.186C193.82 176.423 193.683 176.757 193.63 177.188H196.012V177.126C195.988 176.713 195.877 176.394 195.678 176.168C195.479 175.939 195.209 175.825 194.869 175.825ZM200.538 178.739C200.538 178.519 200.455 178.349 200.288 178.229C200.124 178.106 199.835 178 199.422 177.913C199.012 177.825 198.685 177.719 198.442 177.596C198.202 177.473 198.023 177.327 197.906 177.157C197.792 176.987 197.734 176.785 197.734 176.55C197.734 176.161 197.898 175.831 198.227 175.562C198.558 175.292 198.979 175.157 199.492 175.157C200.031 175.157 200.468 175.296 200.802 175.575C201.139 175.853 201.307 176.209 201.307 176.643H200.49C200.49 176.42 200.395 176.228 200.204 176.067C200.017 175.906 199.779 175.825 199.492 175.825C199.196 175.825 198.965 175.89 198.798 176.019C198.631 176.147 198.547 176.316 198.547 176.524C198.547 176.72 198.625 176.868 198.78 176.968C198.936 177.067 199.215 177.163 199.62 177.253C200.027 177.344 200.356 177.453 200.608 177.579C200.86 177.705 201.046 177.857 201.167 178.036C201.29 178.211 201.351 178.427 201.351 178.682C201.351 179.106 201.181 179.448 200.841 179.706C200.501 179.96 200.061 180.088 199.519 180.088C199.138 180.088 198.801 180.021 198.508 179.886C198.215 179.751 197.985 179.563 197.818 179.323C197.654 179.08 197.572 178.818 197.572 178.537H198.385C198.399 178.809 198.508 179.026 198.71 179.187C198.915 179.345 199.185 179.424 199.519 179.424C199.826 179.424 200.072 179.363 200.257 179.24C200.444 179.114 200.538 178.947 200.538 178.739ZM204.102 177.614H201.958V176.95H204.102V177.614ZM205.781 180H204.968V173.25H205.781V180ZM210.021 180C209.975 179.906 209.937 179.739 209.907 179.499C209.529 179.892 209.078 180.088 208.554 180.088C208.085 180.088 207.7 179.956 207.398 179.692C207.099 179.426 206.95 179.089 206.95 178.682C206.95 178.187 207.137 177.803 207.512 177.53C207.89 177.255 208.42 177.117 209.103 177.117H209.894V176.744C209.894 176.459 209.809 176.234 209.639 176.067C209.469 175.897 209.219 175.812 208.888 175.812C208.598 175.812 208.354 175.885 208.158 176.032C207.962 176.178 207.864 176.355 207.864 176.563H207.046C207.046 176.326 207.13 176.098 207.297 175.878C207.467 175.655 207.695 175.479 207.982 175.351C208.272 175.222 208.59 175.157 208.936 175.157C209.484 175.157 209.913 175.295 210.224 175.57C210.534 175.843 210.695 176.219 210.707 176.7V178.888C210.707 179.325 210.763 179.672 210.874 179.93V180H210.021ZM208.672 179.38C208.927 179.38 209.169 179.314 209.397 179.183C209.626 179.051 209.792 178.879 209.894 178.668V177.693H209.257C208.261 177.693 207.763 177.984 207.763 178.567C207.763 178.822 207.848 179.021 208.018 179.165C208.188 179.309 208.406 179.38 208.672 179.38ZM214.75 178.739C214.75 178.519 214.667 178.349 214.5 178.229C214.335 178.106 214.047 178 213.634 177.913C213.224 177.825 212.897 177.719 212.654 177.596C212.414 177.473 212.235 177.327 212.118 177.157C212.003 176.987 211.946 176.785 211.946 176.55C211.946 176.161 212.11 175.831 212.438 175.562C212.77 175.292 213.191 175.157 213.704 175.157C214.243 175.157 214.68 175.296 215.014 175.575C215.351 175.853 215.519 176.209 215.519 176.643H214.702C214.702 176.42 214.606 176.228 214.416 176.067C214.229 175.906 213.991 175.825 213.704 175.825C213.408 175.825 213.177 175.89 213.01 176.019C212.843 176.147 212.759 176.316 212.759 176.524C212.759 176.72 212.837 176.868 212.992 176.968C213.147 177.067 213.427 177.163 213.832 177.253C214.239 177.344 214.568 177.453 214.82 177.579C215.072 177.705 215.258 177.857 215.378 178.036C215.501 178.211 215.563 178.427 215.563 178.682C215.563 179.106 215.393 179.448 215.053 179.706C214.713 179.96 214.272 180.088 213.73 180.088C213.35 180.088 213.013 180.021 212.72 179.886C212.427 179.751 212.197 179.563 212.03 179.323C211.866 179.08 211.784 178.818 211.784 178.537H212.597C212.611 178.809 212.72 179.026 212.922 179.187C213.127 179.345 213.396 179.424 213.73 179.424C214.038 179.424 214.284 179.363 214.469 179.24C214.656 179.114 214.75 178.947 214.75 178.739ZM219.391 178.739C219.391 178.519 219.307 178.349 219.14 178.229C218.976 178.106 218.688 178 218.274 177.913C217.864 177.825 217.538 177.719 217.294 177.596C217.054 177.473 216.875 177.327 216.758 177.157C216.644 176.987 216.587 176.785 216.587 176.55C216.587 176.161 216.751 175.831 217.079 175.562C217.41 175.292 217.832 175.157 218.345 175.157C218.884 175.157 219.32 175.296 219.654 175.575C219.991 175.853 220.16 176.209 220.16 176.643H219.342C219.342 176.42 219.247 176.228 219.057 176.067C218.869 175.906 218.632 175.825 218.345 175.825C218.049 175.825 217.817 175.89 217.65 176.019C217.483 176.147 217.4 176.316 217.4 176.524C217.4 176.72 217.478 176.868 217.633 176.968C217.788 177.067 218.068 177.163 218.472 177.253C218.879 177.344 219.209 177.453 219.461 177.579C219.713 177.705 219.899 177.857 220.019 178.036C220.142 178.211 220.204 178.427 220.204 178.682C220.204 179.106 220.034 179.448 219.694 179.706C219.354 179.96 218.913 180.088 218.371 180.088C217.99 180.088 217.653 180.021 217.36 179.886C217.067 179.751 216.837 179.563 216.67 179.323C216.506 179.08 216.424 178.818 216.424 178.537H217.237C217.252 178.809 217.36 179.026 217.562 179.187C217.768 179.345 218.037 179.424 218.371 179.424C218.679 179.424 218.925 179.363 219.109 179.24C219.297 179.114 219.391 178.947 219.391 178.739ZM223.236 180.088C222.591 180.088 222.067 179.877 221.663 179.455C221.258 179.03 221.056 178.463 221.056 177.754V177.605C221.056 177.133 221.146 176.713 221.324 176.344C221.506 175.972 221.758 175.682 222.08 175.474C222.405 175.263 222.757 175.157 223.135 175.157C223.753 175.157 224.233 175.361 224.576 175.768C224.919 176.175 225.09 176.758 225.09 177.517V177.855H221.869C221.881 178.324 222.017 178.704 222.278 178.994C222.542 179.281 222.875 179.424 223.28 179.424C223.567 179.424 223.81 179.366 224.009 179.249C224.208 179.131 224.383 178.976 224.532 178.783L225.029 179.169C224.63 179.782 224.033 180.088 223.236 180.088ZM223.135 175.825C222.807 175.825 222.531 175.945 222.309 176.186C222.086 176.423 221.948 176.757 221.896 177.188H224.277V177.126C224.254 176.713 224.143 176.394 223.943 176.168C223.744 175.939 223.475 175.825 223.135 175.825ZM226.804 175.245L226.831 175.843C227.194 175.386 227.668 175.157 228.254 175.157C229.259 175.157 229.766 175.724 229.775 176.858V180H228.962V176.854C228.959 176.511 228.88 176.257 228.725 176.093C228.572 175.929 228.333 175.847 228.008 175.847C227.745 175.847 227.513 175.917 227.314 176.058C227.115 176.199 226.959 176.383 226.848 176.612V180H226.035V175.245H226.804ZM232.693 177.614H230.548V176.95H232.693V177.614ZM233.778 176.792L234.104 173.602H237.382V174.353H234.793L234.6 176.098C234.914 175.913 235.27 175.821 235.668 175.821C236.251 175.821 236.714 176.014 237.057 176.401C237.399 176.785 237.571 177.305 237.571 177.961C237.571 178.62 237.392 179.14 237.035 179.521C236.68 179.899 236.184 180.088 235.545 180.088C234.979 180.088 234.518 179.931 234.161 179.618C233.803 179.304 233.6 178.871 233.55 178.317H234.319C234.369 178.683 234.499 178.96 234.71 179.147C234.921 179.332 235.199 179.424 235.545 179.424C235.923 179.424 236.219 179.295 236.433 179.038C236.649 178.78 236.758 178.424 236.758 177.97C236.758 177.542 236.641 177.199 236.406 176.941C236.175 176.681 235.866 176.55 235.479 176.55C235.125 176.55 234.846 176.628 234.644 176.783L234.429 176.959L233.778 176.792ZM241.891 177.851H242.778V178.515H241.891V180H241.073V178.515H238.16V178.036L241.025 173.602H241.891V177.851ZM239.083 177.851H241.073V174.713L240.977 174.889L239.083 177.851ZM247.524 177.271C247.524 178.223 247.362 178.931 247.037 179.394C246.711 179.856 246.203 180.088 245.512 180.088C244.829 180.088 244.324 179.862 243.996 179.411C243.667 178.957 243.498 178.28 243.486 177.381V176.295C243.486 175.355 243.648 174.656 243.974 174.199C244.299 173.742 244.809 173.514 245.503 173.514C246.191 173.514 246.698 173.735 247.023 174.177C247.349 174.617 247.516 175.296 247.524 176.216V177.271ZM246.711 176.159C246.711 175.471 246.615 174.97 246.421 174.656C246.228 174.34 245.922 174.182 245.503 174.182C245.087 174.182 244.784 174.338 244.593 174.652C244.403 174.965 244.305 175.447 244.299 176.098V177.398C244.299 178.09 244.398 178.601 244.598 178.932C244.8 179.26 245.104 179.424 245.512 179.424C245.913 179.424 246.21 179.269 246.404 178.958C246.6 178.648 246.703 178.159 246.711 177.491V176.159ZM252.446 175.271C252.446 175.591 252.361 175.875 252.191 176.124C252.024 176.373 251.797 176.568 251.51 176.708C251.844 176.852 252.108 177.062 252.301 177.337C252.498 177.612 252.596 177.924 252.596 178.273C252.596 178.827 252.408 179.268 252.033 179.596C251.661 179.924 251.17 180.088 250.561 180.088C249.946 180.088 249.452 179.924 249.08 179.596C248.711 179.265 248.526 178.824 248.526 178.273C248.526 177.927 248.62 177.615 248.808 177.337C248.998 177.059 249.26 176.848 249.594 176.704C249.31 176.563 249.086 176.369 248.922 176.12C248.758 175.871 248.676 175.588 248.676 175.271C248.676 174.732 248.849 174.305 249.194 173.988C249.54 173.672 249.996 173.514 250.561 173.514C251.124 173.514 251.578 173.672 251.923 173.988C252.272 174.305 252.446 174.732 252.446 175.271ZM251.783 178.255C251.783 177.898 251.668 177.606 251.44 177.381C251.214 177.155 250.918 177.042 250.552 177.042C250.186 177.042 249.892 177.154 249.669 177.376C249.449 177.599 249.339 177.892 249.339 178.255C249.339 178.619 249.446 178.904 249.66 179.112C249.877 179.32 250.177 179.424 250.561 179.424C250.942 179.424 251.241 179.32 251.458 179.112C251.674 178.901 251.783 178.616 251.783 178.255ZM250.561 174.182C250.242 174.182 249.982 174.281 249.783 174.48C249.587 174.677 249.489 174.945 249.489 175.285C249.489 175.61 249.585 175.874 249.779 176.076C249.975 176.275 250.236 176.375 250.561 176.375C250.886 176.375 251.146 176.275 251.339 176.076C251.535 175.874 251.633 175.61 251.633 175.285C251.633 174.959 251.532 174.694 251.33 174.489C251.128 174.284 250.872 174.182 250.561 174.182ZM256.639 180C256.592 179.906 256.554 179.739 256.524 179.499C256.146 179.892 255.695 180.088 255.171 180.088C254.702 180.088 254.317 179.956 254.015 179.692C253.716 179.426 253.567 179.089 253.567 178.682C253.567 178.187 253.754 177.803 254.129 177.53C254.507 177.255 255.038 177.117 255.72 177.117H256.511V176.744C256.511 176.459 256.426 176.234 256.256 176.067C256.086 175.897 255.836 175.812 255.505 175.812C255.215 175.812 254.972 175.885 254.775 176.032C254.579 176.178 254.481 176.355 254.481 176.563H253.664C253.664 176.326 253.747 176.098 253.914 175.878C254.084 175.655 254.312 175.479 254.6 175.351C254.89 175.222 255.208 175.157 255.553 175.157C256.101 175.157 256.53 175.295 256.841 175.57C257.151 175.843 257.312 176.219 257.324 176.7V178.888C257.324 179.325 257.38 179.672 257.491 179.93V180H256.639ZM255.29 179.38C255.544 179.38 255.786 179.314 256.015 179.183C256.243 179.051 256.409 178.879 256.511 178.668V177.693H255.874C254.878 177.693 254.38 177.984 254.38 178.567C254.38 178.822 254.465 179.021 254.635 179.165C254.805 179.309 255.023 179.38 255.29 179.38ZM262.527 177.271C262.527 178.223 262.365 178.931 262.04 179.394C261.714 179.856 261.206 180.088 260.515 180.088C259.832 180.088 259.327 179.862 258.999 179.411C258.67 178.957 258.5 178.28 258.489 177.381V176.295C258.489 175.355 258.651 174.656 258.977 174.199C259.302 173.742 259.812 173.514 260.506 173.514C261.194 173.514 261.701 173.735 262.026 174.177C262.352 174.617 262.519 175.296 262.527 176.216V177.271ZM261.714 176.159C261.714 175.471 261.618 174.97 261.424 174.656C261.231 174.34 260.925 174.182 260.506 174.182C260.09 174.182 259.787 174.338 259.596 174.652C259.406 174.965 259.308 175.447 259.302 176.098V177.398C259.302 178.09 259.401 178.601 259.601 178.932C259.803 179.26 260.107 179.424 260.515 179.424C260.916 179.424 261.213 179.269 261.407 178.958C261.603 178.648 261.706 178.159 261.714 177.491V176.159ZM266.241 180H265.423V174.582L263.784 175.184V174.445L266.113 173.571H266.241V180ZM272.055 177.851H272.942V178.515H272.055V180H271.237V178.515H268.324V178.036L271.189 173.602H272.055V177.851ZM269.247 177.851H271.237V174.713L271.141 174.889L269.247 177.851ZM277.688 177.271C277.688 178.223 277.526 178.931 277.201 179.394C276.875 179.856 276.367 180.088 275.676 180.088C274.993 180.088 274.488 179.862 274.16 179.411C273.832 178.957 273.662 178.28 273.65 177.381V176.295C273.65 175.355 273.812 174.656 274.138 174.199C274.463 173.742 274.973 173.514 275.667 173.514C276.355 173.514 276.862 173.735 277.188 174.177C277.513 174.617 277.68 175.296 277.688 176.216V177.271ZM276.875 176.159C276.875 175.471 276.779 174.97 276.585 174.656C276.392 174.34 276.086 174.182 275.667 174.182C275.251 174.182 274.948 174.338 274.757 174.652C274.567 174.965 274.469 175.447 274.463 176.098V177.398C274.463 178.09 274.562 178.601 274.762 178.932C274.964 179.26 275.269 179.424 275.676 179.424C276.077 179.424 276.375 179.269 276.568 178.958C276.764 178.648 276.867 178.159 276.875 177.491V176.159Z" fill="#837E9F"/>
<path d="M88.4585 125.761H85.4878V134H84.2754V125.761H81.311V124.758H88.4585V125.761ZM91.7656 133.168C92.1846 133.168 92.5506 133.042 92.8638 132.788C93.1769 132.534 93.3504 132.216 93.3843 131.835H94.4951C94.474 132.229 94.3385 132.604 94.0889 132.959C93.8392 133.314 93.5049 133.598 93.0859 133.81C92.6712 134.021 92.2311 134.127 91.7656 134.127C90.8304 134.127 90.0856 133.816 89.5312 133.194C88.9811 132.568 88.7061 131.713 88.7061 130.629V130.433C88.7061 129.764 88.8288 129.169 89.0742 128.649C89.3197 128.128 89.6709 127.724 90.1279 127.437C90.5892 127.149 91.133 127.005 91.7593 127.005C92.5295 127.005 93.1685 127.236 93.6763 127.697C94.1883 128.158 94.4613 128.757 94.4951 129.493H93.3843C93.3504 129.049 93.1812 128.685 92.8765 128.401C92.576 128.114 92.2036 127.97 91.7593 127.97C91.1626 127.97 90.6992 128.186 90.3691 128.617C90.0433 129.045 89.8804 129.665 89.8804 130.477V130.699C89.8804 131.491 90.0433 132.1 90.3691 132.527C90.695 132.955 91.1605 133.168 91.7656 133.168ZM96.9897 127.963C97.5103 127.324 98.1873 127.005 99.021 127.005C100.472 127.005 101.205 127.824 101.217 129.461V134H100.043V129.455C100.039 128.96 99.9245 128.594 99.7002 128.357C99.4801 128.12 99.1353 128.001 98.6655 128.001C98.2847 128.001 97.9504 128.103 97.6626 128.306C97.3748 128.509 97.1506 128.776 96.9897 129.106V134H95.8154V124.25H96.9897V127.963ZM107.216 134C107.148 133.865 107.093 133.623 107.051 133.276C106.505 133.843 105.853 134.127 105.096 134.127C104.419 134.127 103.862 133.937 103.426 133.556C102.995 133.171 102.779 132.684 102.779 132.096C102.779 131.381 103.05 130.826 103.591 130.433C104.137 130.035 104.903 129.836 105.889 129.836H107.032V129.296C107.032 128.886 106.909 128.56 106.664 128.319C106.418 128.073 106.056 127.951 105.578 127.951C105.159 127.951 104.808 128.056 104.524 128.268C104.241 128.48 104.099 128.736 104.099 129.036H102.918C102.918 128.693 103.039 128.363 103.28 128.046C103.526 127.724 103.856 127.47 104.271 127.284C104.689 127.098 105.149 127.005 105.648 127.005C106.439 127.005 107.059 127.204 107.508 127.602C107.956 127.995 108.189 128.539 108.206 129.233V132.394C108.206 133.025 108.286 133.526 108.447 133.898V134H107.216ZM105.267 133.105C105.635 133.105 105.984 133.01 106.314 132.819C106.645 132.629 106.884 132.381 107.032 132.077V130.667H106.111C104.673 130.667 103.953 131.089 103.953 131.931C103.953 132.299 104.076 132.587 104.321 132.794C104.567 133.001 104.882 133.105 105.267 133.105ZM113.367 128.186C113.189 128.156 112.996 128.141 112.789 128.141C112.019 128.141 111.496 128.469 111.221 129.125V134H110.047V127.132H111.189L111.208 127.925C111.594 127.312 112.139 127.005 112.846 127.005C113.075 127.005 113.248 127.035 113.367 127.094V128.186ZM115.728 134H114.554V124.25H115.728V134ZM120.463 134.127C119.532 134.127 118.775 133.822 118.191 133.213C117.607 132.599 117.315 131.78 117.315 130.756V130.541C117.315 129.859 117.444 129.252 117.702 128.719C117.965 128.181 118.328 127.762 118.794 127.462C119.264 127.157 119.771 127.005 120.317 127.005C121.21 127.005 121.904 127.299 122.399 127.887C122.895 128.475 123.142 129.318 123.142 130.414V130.902H118.489C118.506 131.579 118.703 132.127 119.08 132.546C119.46 132.961 119.943 133.168 120.527 133.168C120.942 133.168 121.293 133.084 121.581 132.915C121.868 132.745 122.12 132.521 122.336 132.242L123.053 132.8C122.478 133.685 121.614 134.127 120.463 134.127ZM120.317 127.97C119.843 127.97 119.446 128.143 119.124 128.49C118.802 128.833 118.604 129.315 118.527 129.938H121.968V129.849C121.934 129.252 121.773 128.791 121.485 128.465C121.198 128.135 120.808 127.97 120.317 127.97ZM128.506 132.178C128.506 131.861 128.385 131.615 128.144 131.442C127.907 131.264 127.49 131.112 126.894 130.985C126.301 130.858 125.829 130.706 125.478 130.528C125.131 130.35 124.873 130.139 124.704 129.893C124.539 129.648 124.456 129.356 124.456 129.017C124.456 128.454 124.693 127.978 125.167 127.589C125.645 127.2 126.255 127.005 126.995 127.005C127.774 127.005 128.404 127.206 128.887 127.608C129.373 128.01 129.617 128.524 129.617 129.15H128.436C128.436 128.829 128.299 128.552 128.023 128.319C127.753 128.086 127.41 127.97 126.995 127.97C126.568 127.97 126.233 128.063 125.992 128.249C125.751 128.435 125.63 128.679 125.63 128.979C125.63 129.263 125.743 129.476 125.967 129.62C126.191 129.764 126.595 129.902 127.179 130.033C127.767 130.164 128.243 130.32 128.607 130.502C128.971 130.684 129.24 130.904 129.414 131.163C129.591 131.417 129.68 131.728 129.68 132.096C129.68 132.709 129.435 133.202 128.944 133.575C128.453 133.943 127.816 134.127 127.033 134.127C126.483 134.127 125.996 134.03 125.573 133.835C125.15 133.64 124.818 133.369 124.577 133.022C124.34 132.671 124.221 132.292 124.221 131.886H125.396C125.417 132.28 125.573 132.593 125.865 132.826C126.161 133.054 126.551 133.168 127.033 133.168C127.478 133.168 127.833 133.08 128.1 132.902C128.37 132.72 128.506 132.479 128.506 132.178ZM131.394 134V124.758H134.003C134.807 124.758 135.518 124.936 136.136 125.291C136.754 125.646 137.23 126.152 137.564 126.808C137.903 127.464 138.074 128.217 138.078 129.068V129.658C138.078 130.53 137.909 131.294 137.57 131.95C137.236 132.606 136.756 133.109 136.129 133.46C135.507 133.812 134.782 133.992 133.952 134H131.394ZM132.613 125.761V133.003H133.895C134.834 133.003 135.564 132.711 136.085 132.127C136.61 131.543 136.872 130.712 136.872 129.633V129.093C136.872 128.044 136.625 127.229 136.129 126.649C135.639 126.065 134.94 125.769 134.035 125.761H132.613ZM143.981 134C143.914 133.865 143.859 133.623 143.816 133.276C143.271 133.843 142.619 134.127 141.861 134.127C141.184 134.127 140.628 133.937 140.192 133.556C139.76 133.171 139.544 132.684 139.544 132.096C139.544 131.381 139.815 130.826 140.357 130.433C140.903 130.035 141.669 129.836 142.655 129.836H143.797V129.296C143.797 128.886 143.675 128.56 143.429 128.319C143.184 128.073 142.822 127.951 142.344 127.951C141.925 127.951 141.574 128.056 141.29 128.268C141.007 128.48 140.865 128.736 140.865 129.036H139.684C139.684 128.693 139.805 128.363 140.046 128.046C140.291 127.724 140.621 127.47 141.036 127.284C141.455 127.098 141.914 127.005 142.414 127.005C143.205 127.005 143.825 127.204 144.273 127.602C144.722 127.995 144.955 128.539 144.972 129.233V132.394C144.972 133.025 145.052 133.526 145.213 133.898V134H143.981ZM142.033 133.105C142.401 133.105 142.75 133.01 143.08 132.819C143.41 132.629 143.649 132.381 143.797 132.077V130.667H142.877C141.438 130.667 140.719 131.089 140.719 131.931C140.719 132.299 140.841 132.587 141.087 132.794C141.332 133.001 141.648 133.105 142.033 133.105ZM148.977 132.407L150.678 127.132H151.878L149.415 134H148.52L146.032 127.132H147.231L148.977 132.407ZM154.284 134H153.109V127.132H154.284V134ZM153.014 125.31C153.014 125.12 153.071 124.959 153.186 124.828C153.304 124.696 153.478 124.631 153.706 124.631C153.935 124.631 154.108 124.696 154.227 124.828C154.345 124.959 154.404 125.12 154.404 125.31C154.404 125.5 154.345 125.659 154.227 125.786C154.108 125.913 153.935 125.977 153.706 125.977C153.478 125.977 153.304 125.913 153.186 125.786C153.071 125.659 153.014 125.5 153.014 125.31ZM157.578 133.003H161.958V134H156.353V124.758H157.578V133.003ZM167.404 134C167.337 133.865 167.282 133.623 167.239 133.276C166.693 133.843 166.042 134.127 165.284 134.127C164.607 134.127 164.051 133.937 163.615 133.556C163.183 133.171 162.967 132.684 162.967 132.096C162.967 131.381 163.238 130.826 163.78 130.433C164.326 130.035 165.092 129.836 166.078 129.836H167.22V129.296C167.22 128.886 167.097 128.56 166.852 128.319C166.607 128.073 166.245 127.951 165.767 127.951C165.348 127.951 164.996 128.056 164.713 128.268C164.429 128.48 164.288 128.736 164.288 129.036H163.107C163.107 128.693 163.228 128.363 163.469 128.046C163.714 127.724 164.044 127.47 164.459 127.284C164.878 127.098 165.337 127.005 165.836 127.005C166.628 127.005 167.248 127.204 167.696 127.602C168.145 127.995 168.378 128.539 168.395 129.233V132.394C168.395 133.025 168.475 133.526 168.636 133.898V134H167.404ZM165.456 133.105C165.824 133.105 166.173 133.01 166.503 132.819C166.833 132.629 167.072 132.381 167.22 132.077V130.667H166.3C164.861 130.667 164.142 131.089 164.142 131.931C164.142 132.299 164.264 132.587 164.51 132.794C164.755 133.001 165.07 133.105 165.456 133.105ZM174.234 132.178C174.234 131.861 174.114 131.615 173.873 131.442C173.636 131.264 173.219 131.112 172.622 130.985C172.03 130.858 171.558 130.706 171.207 130.528C170.86 130.35 170.601 130.139 170.432 129.893C170.267 129.648 170.185 129.356 170.185 129.017C170.185 128.454 170.422 127.978 170.896 127.589C171.374 127.2 171.983 127.005 172.724 127.005C173.502 127.005 174.133 127.206 174.615 127.608C175.102 128.01 175.345 128.524 175.345 129.15H174.165C174.165 128.829 174.027 128.552 173.752 128.319C173.481 128.086 173.138 127.97 172.724 127.97C172.296 127.97 171.962 128.063 171.721 128.249C171.479 128.435 171.359 128.679 171.359 128.979C171.359 129.263 171.471 129.476 171.695 129.62C171.92 129.764 172.324 129.902 172.908 130.033C173.496 130.164 173.972 130.32 174.336 130.502C174.7 130.684 174.969 130.904 175.142 131.163C175.32 131.417 175.409 131.728 175.409 132.096C175.409 132.709 175.163 133.202 174.672 133.575C174.181 133.943 173.545 134.127 172.762 134.127C172.212 134.127 171.725 134.03 171.302 133.835C170.879 133.64 170.546 133.369 170.305 133.022C170.068 132.671 169.95 132.292 169.95 131.886H171.124C171.145 132.28 171.302 132.593 171.594 132.826C171.89 133.054 172.279 133.168 172.762 133.168C173.206 133.168 173.562 133.08 173.828 132.902C174.099 132.72 174.234 132.479 174.234 132.178ZM180.938 132.178C180.938 131.861 180.817 131.615 180.576 131.442C180.339 131.264 179.922 131.112 179.325 130.985C178.733 130.858 178.261 130.706 177.91 130.528C177.563 130.35 177.305 130.139 177.135 129.893C176.97 129.648 176.888 129.356 176.888 129.017C176.888 128.454 177.125 127.978 177.599 127.589C178.077 127.2 178.686 127.005 179.427 127.005C180.205 127.005 180.836 127.206 181.318 127.608C181.805 128.01 182.048 128.524 182.048 129.15H180.868C180.868 128.829 180.73 128.552 180.455 128.319C180.184 128.086 179.841 127.97 179.427 127.97C178.999 127.97 178.665 128.063 178.424 128.249C178.183 128.435 178.062 128.679 178.062 128.979C178.062 129.263 178.174 129.476 178.398 129.62C178.623 129.764 179.027 129.902 179.611 130.033C180.199 130.164 180.675 130.32 181.039 130.502C181.403 130.684 181.672 130.904 181.845 131.163C182.023 131.417 182.112 131.728 182.112 132.096C182.112 132.709 181.866 133.202 181.375 133.575C180.885 133.943 180.248 134.127 179.465 134.127C178.915 134.127 178.428 134.03 178.005 133.835C177.582 133.64 177.25 133.369 177.008 133.022C176.771 132.671 176.653 132.292 176.653 131.886H177.827C177.848 132.28 178.005 132.593 178.297 132.826C178.593 133.054 178.982 133.168 179.465 133.168C179.909 133.168 180.265 133.08 180.531 132.902C180.802 132.72 180.938 132.479 180.938 132.178ZM186.492 134.127C185.561 134.127 184.803 133.822 184.219 133.213C183.635 132.599 183.343 131.78 183.343 130.756V130.541C183.343 129.859 183.472 129.252 183.73 128.719C183.993 128.181 184.357 127.762 184.822 127.462C185.292 127.157 185.8 127.005 186.346 127.005C187.239 127.005 187.933 127.299 188.428 127.887C188.923 128.475 189.17 129.318 189.17 130.414V130.902H184.518C184.535 131.579 184.731 132.127 185.108 132.546C185.489 132.961 185.971 133.168 186.555 133.168C186.97 133.168 187.321 133.084 187.609 132.915C187.897 132.745 188.148 132.521 188.364 132.242L189.082 132.8C188.506 133.685 187.643 134.127 186.492 134.127ZM186.346 127.97C185.872 127.97 185.474 128.143 185.152 128.49C184.831 128.833 184.632 129.315 184.556 129.938H187.996V129.849C187.962 129.252 187.801 128.791 187.514 128.465C187.226 128.135 186.837 127.97 186.346 127.97ZM191.646 127.132L191.684 127.995C192.209 127.335 192.894 127.005 193.741 127.005C195.192 127.005 195.924 127.824 195.937 129.461V134H194.763V129.455C194.758 128.96 194.644 128.594 194.42 128.357C194.2 128.12 193.855 128.001 193.385 128.001C193.004 128.001 192.67 128.103 192.382 128.306C192.095 128.509 191.87 128.776 191.709 129.106V134H190.535V127.132H191.646Z" fill="#837E9F"/>
<path d="M89.1758 222H87.9507L83.2979 214.878V222H82.0728V212.758H83.2979L87.9634 219.912V212.758H89.1758V222ZM91.3911 222.793H90.3818L94.2412 212.758H95.2441L91.3911 222.793ZM96.6978 222V212.758H99.3066C100.111 212.758 100.822 212.936 101.439 213.291C102.057 213.646 102.533 214.152 102.868 214.808C103.206 215.464 103.378 216.217 103.382 217.068V217.658C103.382 218.53 103.213 219.294 102.874 219.95C102.54 220.606 102.059 221.109 101.433 221.46C100.811 221.812 100.085 221.992 99.2559 222H96.6978ZM97.9165 213.761V221.003H99.1987C100.138 221.003 100.868 220.711 101.389 220.127C101.913 219.543 102.176 218.712 102.176 217.633V217.093C102.176 216.044 101.928 215.229 101.433 214.649C100.942 214.065 100.244 213.769 99.3384 213.761H97.9165Z" fill="#837E9F"/>
<path d="M87.1758 269H85.9507L81.2979 261.878V269H80.0728V259.758H81.2979L85.9634 266.912V259.758H87.1758V269ZM89.3911 269.793H88.3818L92.2412 259.758H93.2441L89.3911 269.793ZM94.6978 269V259.758H97.3066C98.1107 259.758 98.8216 259.936 99.4395 260.291C100.057 260.646 100.533 261.152 100.868 261.808C101.206 262.464 101.378 263.217 101.382 264.068V264.658C101.382 265.53 101.213 266.294 100.874 266.95C100.54 267.606 100.059 268.109 99.4331 268.46C98.811 268.812 98.0853 268.992 97.2559 269H94.6978ZM95.9165 260.761V268.003H97.1987C98.1382 268.003 98.8682 267.711 99.3887 267.127C99.9134 266.543 100.176 265.712 100.176 264.633V264.093C100.176 263.044 99.9282 262.229 99.4331 261.649C98.9422 261.065 98.244 260.769 97.3384 260.761H95.9165Z" fill="#837E9F"/>
<path d="M86.4624 90.2612H84.2915V94H83.0664V84.7578H86.126C87.167 84.7578 87.9668 84.9948 88.5254 85.4688C89.0882 85.9427 89.3696 86.6325 89.3696 87.5381C89.3696 88.1136 89.2131 88.6151 88.8999 89.0425C88.591 89.4699 88.1593 89.7894 87.605 90.001L89.7759 93.9238V94H88.4683L86.4624 90.2612ZM84.2915 89.2646H86.1641C86.7692 89.2646 87.2495 89.1081 87.605 88.7949C87.9647 88.4818 88.1445 88.0628 88.1445 87.5381C88.1445 86.9668 87.9731 86.5288 87.6304 86.2241C87.2918 85.9194 86.8009 85.765 86.1577 85.7607H84.2915V89.2646ZM93.7495 94.127C92.8185 94.127 92.061 93.8223 91.4771 93.2129C90.8931 92.5993 90.6011 91.7804 90.6011 90.7563V90.5405C90.6011 89.8592 90.7301 89.252 90.9883 88.7188C91.2507 88.1813 91.6146 87.7624 92.0801 87.4619C92.5498 87.1572 93.0576 87.0049 93.6035 87.0049C94.4964 87.0049 95.1904 87.299 95.6855 87.8872C96.1807 88.4754 96.4282 89.3175 96.4282 90.4136V90.9023H91.7754C91.7923 91.5794 91.9891 92.1274 92.3657 92.5464C92.7466 92.9611 93.229 93.1685 93.813 93.1685C94.2277 93.1685 94.5789 93.0838 94.8667 92.9146C95.1545 92.7453 95.4062 92.521 95.6221 92.2417L96.3394 92.8003C95.7638 93.6847 94.9006 94.127 93.7495 94.127ZM93.6035 87.9697C93.1296 87.9697 92.7318 88.1432 92.4102 88.4902C92.0885 88.833 91.8896 89.3154 91.8135 89.9375H95.2539V89.8486C95.2201 89.252 95.0592 88.7907 94.7715 88.4648C94.4837 88.1348 94.0944 87.9697 93.6035 87.9697ZM98.3706 94V88.0396H97.2852V87.1318H98.3706V86.4272C98.3706 85.6909 98.5674 85.1217 98.9609 84.7197C99.3545 84.3177 99.911 84.1167 100.63 84.1167C100.901 84.1167 101.17 84.1527 101.437 84.2246L101.373 85.1768C101.174 85.1387 100.963 85.1196 100.738 85.1196C100.357 85.1196 100.063 85.2318 99.856 85.4561C99.6486 85.6761 99.5449 85.9935 99.5449 86.4082V87.1318H101.011V88.0396H99.5449V94H98.3706ZM105.01 94.127C104.079 94.127 103.322 93.8223 102.738 93.2129C102.154 92.5993 101.862 91.7804 101.862 90.7563V90.5405C101.862 89.8592 101.991 89.252 102.249 88.7188C102.511 88.1813 102.875 87.7624 103.341 87.4619C103.811 87.1572 104.318 87.0049 104.864 87.0049C105.757 87.0049 106.451 87.299 106.946 87.8872C107.441 88.4754 107.689 89.3175 107.689 90.4136V90.9023H103.036C103.053 91.5794 103.25 92.1274 103.626 92.5464C104.007 92.9611 104.49 93.1685 105.074 93.1685C105.488 93.1685 105.84 93.0838 106.127 92.9146C106.415 92.7453 106.667 92.521 106.883 92.2417L107.6 92.8003C107.025 93.6847 106.161 94.127 105.01 94.127ZM104.864 87.9697C104.39 87.9697 103.993 88.1432 103.671 88.4902C103.349 88.833 103.15 89.3154 103.074 89.9375H106.515V89.8486C106.481 89.252 106.32 88.7907 106.032 88.4648C105.744 88.1348 105.355 87.9697 104.864 87.9697ZM110.33 94H109.155V87.1318H110.33V94ZM109.06 85.3101C109.06 85.1196 109.117 84.9588 109.231 84.8276C109.35 84.6965 109.523 84.6309 109.752 84.6309C109.98 84.6309 110.154 84.6965 110.272 84.8276C110.391 84.9588 110.45 85.1196 110.45 85.3101C110.45 85.5005 110.391 85.6592 110.272 85.7861C110.154 85.9131 109.98 85.9766 109.752 85.9766C109.523 85.9766 109.35 85.9131 109.231 85.7861C109.117 85.6592 109.06 85.5005 109.06 85.3101ZM116.214 92.1782C116.214 91.8608 116.093 91.6154 115.852 91.4419C115.615 91.2642 115.198 91.1118 114.602 90.9849C114.009 90.8579 113.537 90.7056 113.186 90.5278C112.839 90.3501 112.581 90.1385 112.412 89.8931C112.247 89.6476 112.164 89.3556 112.164 89.0171C112.164 88.4543 112.401 87.9782 112.875 87.5889C113.353 87.1995 113.963 87.0049 114.703 87.0049C115.482 87.0049 116.112 87.2059 116.595 87.6079C117.081 88.0099 117.325 88.5241 117.325 89.1504H116.144C116.144 88.8288 116.007 88.5516 115.731 88.3188C115.461 88.0861 115.118 87.9697 114.703 87.9697C114.276 87.9697 113.941 88.0628 113.7 88.249C113.459 88.4352 113.338 88.6785 113.338 88.979C113.338 89.2625 113.451 89.4762 113.675 89.6201C113.899 89.764 114.303 89.9015 114.887 90.0327C115.475 90.1639 115.951 90.3205 116.315 90.5024C116.679 90.6844 116.948 90.9045 117.122 91.1626C117.299 91.4165 117.388 91.7275 117.388 92.0957C117.388 92.7093 117.143 93.2023 116.652 93.5747C116.161 93.9429 115.524 94.127 114.741 94.127C114.191 94.127 113.704 94.0296 113.281 93.835C112.858 93.6403 112.526 93.3695 112.285 93.0225C112.048 92.6712 111.929 92.2925 111.929 91.8862H113.104C113.125 92.2798 113.281 92.5929 113.573 92.8257C113.869 93.0542 114.259 93.1685 114.741 93.1685C115.186 93.1685 115.541 93.0796 115.808 92.9019C116.078 92.7199 116.214 92.4787 116.214 92.1782ZM123.158 93.3208C122.701 93.8582 122.03 94.127 121.146 94.127C120.414 94.127 119.855 93.9154 119.47 93.4922C119.089 93.0648 118.897 92.4342 118.893 91.6006V87.1318H120.067V91.5688C120.067 92.6099 120.49 93.1304 121.336 93.1304C122.234 93.1304 122.83 92.7961 123.126 92.1274V87.1318H124.301V94H123.184L123.158 93.3208ZM128.846 93.1685C129.265 93.1685 129.631 93.0415 129.944 92.7876C130.257 92.5337 130.431 92.2163 130.464 91.8354H131.575C131.554 92.229 131.419 92.6035 131.169 92.959C130.919 93.3145 130.585 93.598 130.166 93.8096C129.751 94.0212 129.311 94.127 128.846 94.127C127.91 94.127 127.166 93.8159 126.611 93.1938C126.061 92.5675 125.786 91.7127 125.786 90.6294V90.4326C125.786 89.764 125.909 89.1694 126.154 88.6489C126.4 88.1284 126.751 87.7243 127.208 87.4365C127.669 87.1488 128.213 87.0049 128.839 87.0049C129.61 87.0049 130.249 87.2355 130.756 87.6968C131.268 88.158 131.541 88.7568 131.575 89.4932H130.464C130.431 89.0488 130.261 88.6849 129.957 88.4014C129.656 88.1136 129.284 87.9697 128.839 87.9697C128.243 87.9697 127.779 88.1855 127.449 88.6172C127.123 89.0446 126.96 89.6646 126.96 90.4771V90.6992C126.96 91.4906 127.123 92.0999 127.449 92.5273C127.775 92.9548 128.241 93.1685 128.846 93.1685ZM132.584 90.5024C132.584 89.8296 132.716 89.2244 132.978 88.687C133.245 88.1496 133.613 87.7349 134.083 87.4429C134.556 87.1509 135.096 87.0049 135.701 87.0049C136.636 87.0049 137.392 87.3286 137.967 87.9761C138.547 88.6235 138.837 89.4847 138.837 90.5596V90.6421C138.837 91.3107 138.708 91.9116 138.45 92.4448C138.196 92.9738 137.83 93.3864 137.352 93.6826C136.878 93.9788 136.332 94.127 135.714 94.127C134.783 94.127 134.028 93.8032 133.448 93.1558C132.872 92.5083 132.584 91.6514 132.584 90.585V90.5024ZM133.765 90.6421C133.765 91.4038 133.941 92.0153 134.292 92.4766C134.647 92.9378 135.121 93.1685 135.714 93.1685C136.311 93.1685 136.785 92.9357 137.136 92.4702C137.487 92.0005 137.663 91.3446 137.663 90.5024C137.663 89.7492 137.483 89.1398 137.123 88.6743C136.768 88.2046 136.294 87.9697 135.701 87.9697C135.121 87.9697 134.654 88.2004 134.298 88.6616C133.943 89.1229 133.765 89.783 133.765 90.6421ZM144.309 92.1782C144.309 91.8608 144.188 91.6154 143.947 91.4419C143.71 91.2642 143.293 91.1118 142.696 90.9849C142.104 90.8579 141.632 90.7056 141.281 90.5278C140.934 90.3501 140.676 90.1385 140.506 89.8931C140.341 89.6476 140.259 89.3556 140.259 89.0171C140.259 88.4543 140.496 87.9782 140.97 87.5889C141.448 87.1995 142.057 87.0049 142.798 87.0049C143.576 87.0049 144.207 87.2059 144.689 87.6079C145.176 88.0099 145.419 88.5241 145.419 89.1504H144.239C144.239 88.8288 144.101 88.5516 143.826 88.3188C143.555 88.0861 143.213 87.9697 142.798 87.9697C142.37 87.9697 142.036 88.0628 141.795 88.249C141.554 88.4352 141.433 88.6785 141.433 88.979C141.433 89.2625 141.545 89.4762 141.77 89.6201C141.994 89.764 142.398 89.9015 142.982 90.0327C143.57 90.1639 144.046 90.3205 144.41 90.5024C144.774 90.6844 145.043 90.9045 145.216 91.1626C145.394 91.4165 145.483 91.7275 145.483 92.0957C145.483 92.7093 145.237 93.2023 144.747 93.5747C144.256 93.9429 143.619 94.127 142.836 94.127C142.286 94.127 141.799 94.0296 141.376 93.835C140.953 93.6403 140.621 93.3695 140.379 93.0225C140.142 92.6712 140.024 92.2925 140.024 91.8862H141.198C141.219 92.2798 141.376 92.5929 141.668 92.8257C141.964 93.0542 142.354 93.1685 142.836 93.1685C143.28 93.1685 143.636 93.0796 143.902 92.9019C144.173 92.7199 144.309 92.4787 144.309 92.1782Z" fill="#837E9F"/>
<defs>
<filter id="filter0_d_0_1" x="1" y="1" width="352" height="352" filterUnits="userSpaceOnUse" color-interpolation-filters="sRGB">
<feFlood flood-opacity="0" result="BackgroundImageFix"/>
<feColorMatrix in="SourceAlpha" type="matrix" values="0 0 0 0 0 0 0 0 0 0 0 0 0 0 0 0 0 0 127 0" result="hardAlpha"/>
<feOffset dx="2" dy="2"/>
<feGaussianBlur stdDeviation="1"/>
<feColorMatrix type="matrix" values="0 0 0 0 0 0 0 0 0 0 0 0 0 0 0 0 0 0 0.2 0"/>
<feBlend mode="normal" in2="BackgroundImageFix" result="effect1_dropShadow_0_1"/>
<feBlend mode="normal" in="SourceGraphic" in2="effect1_dropShadow_0_1" result="shape"/>
</filter>
</defs>
</svg>
