<svg width="958" height="92" viewBox="0 0 958 92" fill="none" xmlns="http://www.w3.org/2000/svg">
<g filter="url(#filter0_d_105_48)">
<rect x="1" y="1" width="952" height="86" rx="20" fill="#302F3D"/>
</g>
<path d="M37.6309 36.1367L39.6133 43.9492L40.3652 47.2305L40.9316 43.9492L42.7188 36.1367H46.957L48.7344 51H45.6875L44.9551 43.0312L44.6914 38.4805L43.5977 43.0312L41.4688 51.1465H39.0078L36.6543 43.0312L35.5508 38.4805L35.1992 43.0312L34.5645 51L31.6836 51.0098L33.2656 36.1367H37.6309ZM60.7656 39.8672L57.2988 51.293C56.9082 52.569 56.3874 53.5716 55.7363 54.3008C55.0853 55.0299 54.3594 55.5117 53.5586 55.7461C53.3893 55.7982 53.1387 55.8438 52.8066 55.8828C52.4811 55.9284 52.237 55.9512 52.0742 55.9512C51.9049 55.9512 51.6283 55.9284 51.2441 55.8828C50.86 55.8438 50.6419 55.8047 50.5898 55.7656V53.2949C50.707 53.334 50.8926 53.3763 51.1465 53.4219C51.4069 53.4674 51.5892 53.4902 51.6934 53.4902C52.1556 53.4902 52.5527 53.4479 52.8848 53.3633C53.2233 53.2786 53.5553 53.054 53.8809 52.6895C54.2129 52.3314 54.4766 51.7682 54.6719 51H53.3633L49.584 39.8672H52.8848L54.5742 45.8145L55.3848 49.0273L56.1367 45.8145L57.4941 39.8672H60.7656ZM70.3359 36.1367C70.9284 36.1367 71.7129 36.1107 72.6895 36.0586C73.6009 36.0065 74.278 35.9805 74.7207 35.9805C76.485 35.9805 77.8294 36.3906 78.7539 37.2109C79.6849 38.0312 80.1504 39.3301 80.1504 41.1074C80.1504 42.2402 79.9193 43.2103 79.457 44.0176C79.0013 44.8249 78.3275 45.4401 77.4355 45.8633C76.5501 46.2865 75.4727 46.498 74.2031 46.498C73.526 46.498 72.9596 46.4915 72.5039 46.4785V51H69.3984V36.1367H70.3359ZM74.125 44.1445C74.9974 44.1445 75.7038 43.9134 76.2441 43.4512C76.791 42.9889 77.0645 42.1947 77.0645 41.0684C77.0645 40.1243 76.8105 39.4082 76.3027 38.9199C75.7949 38.4251 75.0592 38.1973 74.0957 38.2363C73.7181 38.2493 73.4089 38.2656 73.168 38.2852C72.9336 38.2982 72.7122 38.3275 72.5039 38.373V44.0664C72.9271 44.1185 73.4674 44.1445 74.125 44.1445ZM88.3828 39.6816C88.806 39.6816 89.0957 39.7272 89.252 39.8184V42.7578C89.1022 42.6732 88.9297 42.6081 88.7344 42.5625C88.5456 42.5104 88.2721 42.4844 87.9141 42.4844C86.9766 42.4844 86.1497 42.8197 85.4336 43.4902V51H82.3867V39.8672H85.0918L85.2285 41.3906C85.3913 41.1042 85.6322 40.8307 85.9512 40.5703C86.2767 40.3099 86.651 40.0983 87.0742 39.9355C87.5039 39.7663 87.9401 39.6816 88.3828 39.6816ZM90.8242 45.3262C90.8242 44.1348 91.0586 43.1191 91.5273 42.2793C91.9961 41.4329 92.6471 40.7949 93.4805 40.3652C94.3138 39.929 95.2708 39.7109 96.3516 39.7109C97.582 39.7109 98.5944 39.9714 99.3887 40.4922C100.183 41.0065 100.759 41.6999 101.117 42.5723C101.482 43.4382 101.664 44.418 101.664 45.5117C101.664 46.7096 101.43 47.7318 100.961 48.5781C100.492 49.4245 99.8411 50.0658 99.0078 50.502C98.1745 50.9382 97.2207 51.1562 96.1465 51.1562C94.9095 51.1562 93.8939 50.8958 93.0996 50.375C92.3053 49.8542 91.7259 49.1576 91.3613 48.2852C91.0033 47.4062 90.8242 46.4199 90.8242 45.3262ZM98.5098 45.5215C98.5098 44.4798 98.3242 43.6139 97.9531 42.9238C97.582 42.2272 97.0189 41.8789 96.2637 41.8789C94.7402 41.8789 93.9785 43.0117 93.9785 45.2773C93.9785 45.9609 94.0566 46.5859 94.2129 47.1523C94.3757 47.7122 94.6263 48.1615 94.9648 48.5C95.3099 48.8385 95.7396 49.0078 96.2539 49.0078C97.7578 49.0078 98.5098 47.8457 98.5098 45.5215ZM101.586 53.7539C101.677 53.7995 101.85 53.8451 102.104 53.8906C102.357 53.9427 102.566 53.9688 102.729 53.9688C103.126 53.9688 103.435 53.8743 103.656 53.6855C103.884 53.5033 104.047 53.1973 104.145 52.7676C104.249 52.3379 104.301 51.7454 104.301 50.9902V39.8672H107.348V50.1992C107.348 52.2044 106.999 53.6628 106.303 54.5742C105.613 55.4922 104.61 55.9512 103.295 55.9512C103.093 55.9512 102.787 55.9219 102.377 55.8633C101.967 55.8112 101.703 55.7624 101.586 55.7168V53.7539ZM103.92 36.5664C103.92 36.2409 104.011 35.9382 104.193 35.6582C104.376 35.3783 104.617 35.1569 104.916 34.9941C105.215 34.8249 105.531 34.7402 105.863 34.7402C106.397 34.7402 106.824 34.8965 107.143 35.209C107.462 35.515 107.621 35.9121 107.621 36.4004C107.621 36.7259 107.53 37.0319 107.348 37.3184C107.172 37.5983 106.934 37.8229 106.635 37.9922C106.342 38.1549 106.026 38.2363 105.688 38.2363C105.355 38.2363 105.056 38.1647 104.789 38.0215C104.522 37.8783 104.311 37.6797 104.154 37.4258C103.998 37.1719 103.92 36.8854 103.92 36.5664ZM119.564 44.0762C119.564 45.0137 119.529 45.7103 119.457 46.166H112.875C112.934 47.084 113.22 47.7676 113.734 48.2168C114.255 48.666 114.958 48.8906 115.844 48.8906C116.267 48.8906 116.778 48.8353 117.377 48.7246C117.982 48.6074 118.425 48.4707 118.705 48.3145L119.203 50.043C118.819 50.3555 118.243 50.6191 117.475 50.834C116.706 51.0488 115.906 51.1562 115.072 51.1562C113.952 51.1562 112.999 50.9284 112.211 50.4727C111.423 50.0169 110.827 49.3594 110.424 48.5C110.02 47.6341 109.818 46.599 109.818 45.3945C109.818 44.3008 110.03 43.3242 110.453 42.4648C110.876 41.6055 111.492 40.9316 112.299 40.4434C113.113 39.9551 114.079 39.7109 115.199 39.7109C116.007 39.7109 116.736 39.8574 117.387 40.1504C118.038 40.4434 118.559 40.9154 118.949 41.5664C119.346 42.2174 119.551 43.054 119.564 44.0762ZM116.732 44.4766C116.739 44.3789 116.742 44.2357 116.742 44.0469C116.742 43.3372 116.609 42.8001 116.342 42.4355C116.075 42.0645 115.642 41.8789 115.043 41.8789C114.444 41.8789 113.965 42.0775 113.607 42.4746C113.256 42.8652 113.028 43.5326 112.924 44.4766H116.732ZM126.996 39.7109C127.654 39.7109 128.249 39.7695 128.783 39.8867C129.317 39.9974 129.685 40.1276 129.887 40.2773L129.506 42.6309C129.226 42.4811 128.913 42.3737 128.568 42.3086C128.23 42.237 127.81 42.2012 127.309 42.2012C126.84 42.2012 126.394 42.3021 125.971 42.5039C125.548 42.6992 125.196 43.0215 124.916 43.4707C124.636 43.9134 124.486 44.4863 124.467 45.1895C124.447 45.9642 124.551 46.6152 124.779 47.1426C125.007 47.6699 125.329 48.0638 125.746 48.3242C126.169 48.5781 126.651 48.7051 127.191 48.7051C127.68 48.7051 128.145 48.6628 128.588 48.5781C129.037 48.487 129.379 48.3763 129.613 48.2461L130.053 50.0527C129.708 50.3848 129.226 50.6517 128.607 50.8535C127.989 51.0553 127.331 51.1562 126.635 51.1562C125.515 51.1562 124.564 50.9186 123.783 50.4434C123.002 49.9616 122.416 49.3008 122.025 48.4609C121.635 47.6146 121.439 46.651 121.439 45.5703C121.439 44.4505 121.645 43.4479 122.055 42.5625C122.465 41.6771 123.087 40.9805 123.92 40.4727C124.753 39.9648 125.779 39.7109 126.996 39.7109ZM132.807 41.9766H131.469V40.3262C131.898 40.2025 132.208 40.1081 132.396 40.043C132.592 39.9714 132.764 39.877 132.914 39.7598C133.064 39.6361 133.181 39.4733 133.266 39.2715C133.402 38.946 133.646 38.2982 133.998 37.3281H135.854V39.8672H138.871V41.9766H135.854V46.4492C135.854 47.1914 135.893 47.7318 135.971 48.0703C136.049 48.4089 136.173 48.627 136.342 48.7246C136.511 48.8158 136.771 48.8613 137.123 48.8613C137.396 48.8613 137.709 48.8158 138.061 48.7246C138.419 48.627 138.682 48.5163 138.852 48.3926L139.223 50.1016C138.917 50.375 138.458 50.6191 137.846 50.834C137.24 51.0488 136.586 51.1562 135.883 51.1562C135.134 51.1562 134.535 51.0423 134.086 50.8145C133.643 50.5801 133.318 50.2122 133.109 49.7109C132.908 49.2031 132.807 48.5293 132.807 47.6895V41.9766ZM141.107 48.0312C141.231 48.1289 141.462 48.2493 141.801 48.3926C142.139 48.5293 142.53 48.6497 142.973 48.7539C143.422 48.8581 143.865 48.9102 144.301 48.9102C144.906 48.9167 145.349 48.8483 145.629 48.7051C145.909 48.5618 146.049 48.321 146.049 47.9824C146.049 47.6699 145.854 47.3867 145.463 47.1328C145.079 46.8789 144.47 46.6152 143.637 46.3418C142.647 46.0163 141.931 45.5736 141.488 45.0137C141.052 44.4538 140.834 43.7637 140.834 42.9434C140.834 42.2533 141.023 41.6673 141.4 41.1855C141.785 40.6973 142.315 40.3294 142.992 40.082C143.669 39.8346 144.447 39.7109 145.326 39.7109C146.036 39.7109 146.671 39.7793 147.23 39.916C147.79 40.0527 148.201 40.196 148.461 40.3457L148.129 42.6895C147.908 42.4876 147.549 42.3118 147.055 42.1621C146.566 42.0124 146.091 41.9375 145.629 41.9375C144.965 41.9375 144.483 42.0091 144.184 42.1523C143.891 42.2891 143.744 42.5169 143.744 42.8359C143.744 43.0638 143.812 43.2591 143.949 43.4219C144.086 43.5781 144.304 43.7311 144.604 43.8809C144.91 44.0241 145.349 44.1934 145.922 44.3887C146.684 44.6491 147.289 44.9355 147.738 45.248C148.194 45.554 148.526 45.9089 148.734 46.3125C148.943 46.7096 149.047 47.1849 149.047 47.7383C149.047 48.8646 148.66 49.7174 147.885 50.2969C147.117 50.8698 146.049 51.1562 144.682 51.1562C144.167 51.1562 143.65 51.1139 143.129 51.0293C142.608 50.9447 142.139 50.8372 141.723 50.707C141.312 50.5703 141.003 50.4336 140.795 50.2969L141.107 48.0312Z" fill="#837E9F"/>
<path d="M853.771 38.5957L856.231 45.5957L856.689 47.2021L857.161 45.5957L859.513 38.5957H861.112L857.318 49.0889H856.04L852.15 38.5957H853.771ZM868.283 44.0371C868.283 44.4062 868.279 44.6934 868.27 44.8984C868.26 45.099 868.24 45.2767 868.208 45.4316H863.402C863.407 45.4635 863.409 45.5091 863.409 45.5684C863.487 47.1725 864.28 47.9746 865.788 47.9746C866.062 47.9746 866.408 47.9313 866.827 47.8447C867.246 47.7581 867.547 47.6602 867.729 47.5508L868.017 48.4121C867.766 48.6172 867.385 48.7858 866.875 48.918C866.365 49.0456 865.868 49.1094 865.385 49.1094C864.651 49.1094 864.027 48.9521 863.512 48.6377C862.997 48.3187 862.605 47.8584 862.336 47.2568C862.067 46.6553 861.933 45.9329 861.933 45.0898C861.933 44.3242 862.065 43.6429 862.329 43.0459C862.598 42.4489 862.992 41.9795 863.512 41.6377C864.036 41.2913 864.669 41.1113 865.412 41.0977C865.936 41.0885 866.412 41.1956 866.841 41.4189C867.269 41.6423 867.611 41.9772 867.866 42.4238C868.126 42.8704 868.265 43.4082 868.283 44.0371ZM866.875 44.4336C866.884 44.2878 866.889 44.1807 866.889 44.1123C866.889 43.5335 866.77 43.0641 866.533 42.7041C866.301 42.3441 865.9 42.1641 865.33 42.1641C864.824 42.1641 864.403 42.3441 864.065 42.7041C863.733 43.0596 863.525 43.6361 863.443 44.4336H866.875ZM868.413 51.2627C868.486 51.2992 868.609 51.3333 868.782 51.3652C868.955 51.3971 869.099 51.4131 869.213 51.4131C869.609 51.4131 869.885 51.2445 870.04 50.9072C870.195 50.57 870.272 50.0436 870.272 49.3281V41.2207H871.776V48.7471C871.776 50.055 871.574 51.0007 871.168 51.584C870.767 52.1719 870.165 52.4658 869.363 52.4658C869.213 52.4658 869.028 52.4567 868.81 52.4385C868.591 52.4248 868.459 52.4043 868.413 52.377V51.2627ZM870.013 38.8691C870.013 38.6777 870.065 38.5 870.17 38.3359C870.279 38.1719 870.421 38.042 870.594 37.9463C870.767 37.8506 870.942 37.8027 871.12 37.8027C871.43 37.8027 871.667 37.8893 871.831 38.0625C872 38.2357 872.084 38.4567 872.084 38.7256C872.084 38.9261 872.032 39.1084 871.927 39.2725C871.822 39.4365 871.685 39.5641 871.517 39.6553C871.348 39.7464 871.168 39.792 870.977 39.792C870.803 39.792 870.644 39.7555 870.498 39.6826C870.352 39.6051 870.234 39.4958 870.143 39.3545C870.056 39.2132 870.013 39.0514 870.013 38.8691ZM876.732 41.0908C877.334 41.0908 877.835 41.1592 878.236 41.2959C878.637 41.4326 878.95 41.6833 879.173 42.0479C879.396 42.4079 879.508 42.916 879.508 43.5723V49.1094H878.893C878.688 49.1094 878.533 49.0957 878.428 49.0684C878.323 49.041 878.241 48.9772 878.182 48.877C878.122 48.7767 878.093 48.6172 878.093 48.3984V48.3438C877.865 48.5534 877.55 48.7334 877.149 48.8838C876.753 49.0342 876.338 49.1094 875.905 49.1094C875.445 49.1094 875.033 49.0205 874.668 48.8428C874.308 48.665 874.025 48.4121 873.82 48.084C873.62 47.7513 873.52 47.3617 873.52 46.915C873.52 46.4229 873.652 45.9967 873.916 45.6367C874.185 45.2767 874.559 44.9987 875.037 44.8027C875.461 44.6341 875.939 44.5088 876.473 44.4268C877.01 44.3402 877.521 44.2969 878.004 44.2969V43.5107C878.004 43.1462 877.945 42.8727 877.826 42.6904C877.712 42.5081 877.539 42.3851 877.307 42.3213C877.074 42.2575 876.753 42.2256 876.343 42.2256C876.124 42.2256 875.871 42.2552 875.584 42.3145C875.301 42.3737 875.035 42.4489 874.784 42.54C874.538 42.6266 874.356 42.7109 874.237 42.793L873.868 41.8086C873.987 41.7357 874.201 41.6423 874.511 41.5283C874.825 41.4144 875.181 41.3141 875.577 41.2275C875.978 41.1364 876.363 41.0908 876.732 41.0908ZM876.35 47.9883C876.564 47.9883 876.789 47.9564 877.026 47.8926C877.263 47.8288 877.471 47.7536 877.648 47.667C877.831 47.5758 877.949 47.4984 878.004 47.4346V45.2539C877.671 45.2539 877.295 45.2858 876.876 45.3496C876.461 45.4134 876.126 45.5068 875.871 45.6299C875.593 45.762 875.379 45.917 875.229 46.0947C875.078 46.2725 875.003 46.5026 875.003 46.7852C875.003 47.5872 875.452 47.9883 876.35 47.9883ZM886.658 42.3418H885.646V41.5283L885.893 41.46C886.102 41.4007 886.257 41.3529 886.357 41.3164C886.458 41.2754 886.544 41.2207 886.617 41.1523C886.695 41.0794 886.756 40.9814 886.802 40.8584C886.87 40.6852 886.97 40.373 887.103 39.9219L887.253 39.4297H888.155V41.207H890.356V42.3418H888.155V46.2861C888.155 46.8057 888.176 47.1748 888.217 47.3936C888.258 47.6077 888.333 47.7467 888.442 47.8105C888.556 47.8743 888.748 47.9062 889.017 47.9062C889.213 47.9062 889.45 47.8743 889.728 47.8105C890.01 47.7467 890.217 47.6807 890.35 47.6123L890.609 48.4736C890.386 48.6377 890.065 48.7858 889.646 48.918C889.231 49.0456 888.834 49.1094 888.456 49.1094C887.886 49.1094 887.444 48.9681 887.13 48.6855C886.815 48.3984 886.658 47.8812 886.658 47.1338V42.3418ZM891.566 45.0352C891.566 44.2012 891.719 43.4902 892.024 42.9023C892.33 42.3099 892.751 41.861 893.289 41.5557C893.827 41.2503 894.438 41.0977 895.121 41.0977C895.91 41.0977 896.559 41.2799 897.069 41.6445C897.58 42.0091 897.953 42.4967 898.19 43.1074C898.427 43.7181 898.546 44.4062 898.546 45.1719C898.546 46.0059 898.393 46.7191 898.088 47.3115C897.783 47.904 897.361 48.3529 896.823 48.6582C896.285 48.959 895.673 49.1094 894.984 49.1094C894.201 49.1094 893.553 48.9271 893.043 48.5625C892.533 48.1979 892.159 47.7103 891.922 47.0996C891.685 46.4889 891.566 45.8008 891.566 45.0352ZM897.021 45.1992C897.021 44.6159 896.949 44.0986 896.803 43.6475C896.661 43.1917 896.443 42.834 896.146 42.5742C895.85 42.3099 895.479 42.1777 895.032 42.1777C894.399 42.1777 893.916 42.4193 893.583 42.9023C893.255 43.3809 893.091 44.0667 893.091 44.96C893.091 45.5387 893.164 46.0628 893.31 46.5322C893.455 46.9971 893.676 47.3662 893.973 47.6396C894.269 47.9085 894.636 48.043 895.073 48.043C895.707 48.043 896.19 47.7946 896.522 47.2979C896.855 46.8011 897.021 46.1016 897.021 45.1992ZM906.53 37.625V49.1094H905.881C905.703 49.1094 905.56 49.0957 905.45 49.0684C905.345 49.041 905.261 48.984 905.197 48.8975C905.138 48.8109 905.108 48.681 905.108 48.5078V48.2275C904.862 48.4782 904.571 48.6878 904.233 48.8564C903.896 49.0251 903.465 49.1094 902.941 49.1094C902.376 49.1094 901.861 48.9727 901.396 48.6992C900.936 48.4212 900.567 48.0042 900.289 47.4482C900.011 46.8877 899.872 46.2018 899.872 45.3906C899.872 44.5566 900.034 43.8138 900.357 43.1621C900.681 42.5104 901.137 42.0046 901.725 41.6445C902.317 41.2799 903.001 41.0977 903.775 41.0977C904.213 41.0977 904.637 41.1615 905.047 41.2891L905.026 40.8721V37.625H906.53ZM901.403 45.2607C901.403 46.1585 901.57 46.8285 901.902 47.2705C902.24 47.708 902.725 47.9268 903.358 47.9268C903.691 47.9268 903.999 47.8652 904.281 47.7422C904.568 47.6146 904.817 47.4665 905.026 47.2979V42.5332C904.89 42.4147 904.707 42.3281 904.479 42.2734C904.252 42.2188 903.967 42.1914 903.625 42.1914C903.201 42.1914 902.821 42.3099 902.483 42.5469C902.146 42.7839 901.882 43.1348 901.69 43.5996C901.499 44.0599 901.403 44.6136 901.403 45.2607ZM908.328 45.0352C908.328 44.2012 908.481 43.4902 908.786 42.9023C909.091 42.3099 909.513 41.861 910.051 41.5557C910.589 41.2503 911.199 41.0977 911.883 41.0977C912.671 41.0977 913.321 41.2799 913.831 41.6445C914.341 42.0091 914.715 42.4967 914.952 43.1074C915.189 43.7181 915.308 44.4062 915.308 45.1719C915.308 46.0059 915.155 46.7191 914.85 47.3115C914.544 47.904 914.123 48.3529 913.585 48.6582C913.047 48.959 912.434 49.1094 911.746 49.1094C910.962 49.1094 910.315 48.9271 909.805 48.5625C909.294 48.1979 908.921 47.7103 908.684 47.0996C908.447 46.4889 908.328 45.8008 908.328 45.0352ZM913.783 45.1992C913.783 44.6159 913.71 44.0986 913.564 43.6475C913.423 43.1917 913.204 42.834 912.908 42.5742C912.612 42.3099 912.241 42.1777 911.794 42.1777C911.16 42.1777 910.677 42.4193 910.345 42.9023C910.017 43.3809 909.853 44.0667 909.853 44.96C909.853 45.5387 909.925 46.0628 910.071 46.5322C910.217 46.9971 910.438 47.3662 910.734 47.6396C911.031 47.9085 911.397 48.043 911.835 48.043C912.468 48.043 912.951 47.7946 913.284 47.2979C913.617 46.8011 913.783 46.1016 913.783 45.1992ZM916.962 47.4346C917.049 47.4938 917.208 47.569 917.44 47.6602C917.673 47.7467 917.944 47.8242 918.254 47.8926C918.564 47.9609 918.871 47.9951 919.177 47.9951C919.623 47.9951 919.965 47.9108 920.202 47.7422C920.444 47.5736 920.564 47.3389 920.564 47.0381C920.564 46.751 920.428 46.5049 920.154 46.2998C919.885 46.0947 919.487 45.8805 918.958 45.6572C918.27 45.3656 917.734 45.0238 917.352 44.6318C916.973 44.2399 916.784 43.7454 916.784 43.1484C916.784 42.7064 916.907 42.3327 917.153 42.0273C917.404 41.7174 917.741 41.485 918.165 41.3301C918.589 41.1751 919.067 41.0977 919.601 41.0977C920.02 41.0977 920.414 41.1432 920.783 41.2344C921.152 41.3255 921.417 41.4144 921.576 41.501L921.33 42.6357C921.202 42.5264 920.977 42.4284 920.653 42.3418C920.33 42.2507 919.995 42.2051 919.648 42.2051C919.17 42.2051 918.803 42.2826 918.548 42.4375C918.297 42.5924 918.172 42.8044 918.172 43.0732C918.172 43.3011 918.229 43.4971 918.343 43.6611C918.461 43.8252 918.628 43.9688 918.842 44.0918C919.056 44.2148 919.336 44.347 919.683 44.4883C920.348 44.7572 920.895 45.083 921.323 45.4658C921.752 45.8441 921.966 46.3317 921.966 46.9287C921.966 47.3936 921.854 47.79 921.631 48.1182C921.412 48.4417 921.095 48.6878 920.681 48.8564C920.271 49.0251 919.783 49.1094 919.218 49.1094C918.712 49.1094 918.22 49.0524 917.741 48.9385C917.267 48.8245 916.932 48.6969 916.736 48.5557L916.962 47.4346Z" fill="#837E9F"/>
<defs>
<filter id="filter0_d_105_48" x="0" y="0" width="958" height="92" filterUnits="userSpaceOnUse" color-interpolation-filters="sRGB">
<feFlood flood-opacity="0" result="BackgroundImageFix"/>
<feColorMatrix in="SourceAlpha" type="matrix" values="0 0 0 0 0 0 0 0 0 0 0 0 0 0 0 0 0 0 127 0" result="hardAlpha"/>
<feMorphology radius="1" operator="dilate" in="SourceAlpha" result="effect1_dropShadow_105_48"/>
<feOffset dx="2" dy="2"/>
<feGaussianBlur stdDeviation="1"/>
<feComposite in2="hardAlpha" operator="out"/>
<feColorMatrix type="matrix" values="0 0 0 0 0 0 0 0 0 0 0 0 0 0 0 0 0 0 0.2 0"/>
<feBlend mode="normal" in2="BackgroundImageFix" result="effect1_dropShadow_105_48"/>
<feBlend mode="normal" in="SourceGraphic" in2="effect1_dropShadow_105_48" result="shape"/>
</filter>
</defs>
</svg>
