<svg width="467" height="192" viewBox="0 0 467 192" fill="none" xmlns="http://www.w3.org/2000/svg">
<g filter="url(#filter0_d_205_44)">
<rect x="1" y="1" width="461" height="186" rx="20" fill="#302F3D"/>
</g>
<path d="M78.875 38.9375C79.5 38.9375 80.0208 39.0495 80.4375 39.2734C80.8594 39.4974 81.1797 39.8646 81.3984 40.375C81.6172 40.8802 81.7266 41.5547 81.7266 42.3984V48H79.2891V42.9297C79.2891 42.4349 79.2552 42.0521 79.1875 41.7812C79.1198 41.5052 78.9974 41.3073 78.8203 41.1875C78.6484 41.0625 78.3958 41 78.0625 41C77.7604 41 77.4401 41.0625 77.1016 41.1875C76.7682 41.3125 76.4844 41.4688 76.25 41.6562C76.2708 41.8854 76.2812 42.1589 76.2812 42.4766V48H73.8438V42.9375C73.8438 42.4479 73.8073 42.0651 73.7344 41.7891C73.6667 41.513 73.5443 41.3125 73.3672 41.1875C73.1953 41.0625 72.9479 41 72.625 41C72.3698 41 72.0651 41.0573 71.7109 41.1719C71.3568 41.2865 71.0521 41.4557 70.7969 41.6797V48H68.3594V39.0938H70.5703L70.6172 40.0469C70.9766 39.776 71.4245 39.5286 71.9609 39.3047C72.4974 39.0755 73.0156 38.9531 73.5156 38.9375C74.0677 38.9167 74.5339 38.9948 74.9141 39.1719C75.2943 39.3438 75.5938 39.625 75.8125 40.0156C76.1615 39.7448 76.6146 39.4974 77.1719 39.2734C77.7292 39.0495 78.2969 38.9375 78.875 38.9375ZM92.0781 39.0938L89.3047 48.2344C88.9922 49.2552 88.5755 50.0573 88.0547 50.6406C87.5339 51.224 86.9531 51.6094 86.3125 51.7969C86.1771 51.8385 85.9766 51.875 85.7109 51.9062C85.4505 51.9427 85.2552 51.9609 85.125 51.9609C84.9896 51.9609 84.7682 51.9427 84.4609 51.9062C84.1536 51.875 83.9792 51.8438 83.9375 51.8125V49.8359C84.0312 49.8672 84.1797 49.901 84.3828 49.9375C84.5911 49.974 84.737 49.9922 84.8203 49.9922C85.1901 49.9922 85.5078 49.9583 85.7734 49.8906C86.0443 49.8229 86.3099 49.6432 86.5703 49.3516C86.8359 49.0651 87.0469 48.6146 87.2031 48H86.1562L83.1328 39.0938H85.7734L87.125 43.8516L87.7734 46.4219L88.375 43.8516L89.4609 39.0938H92.0781ZM100.914 41.0547V42.9688H94.2734V41.0547H100.914ZM103.656 43.4609C103.656 42.5078 103.844 41.6953 104.219 41.0234C104.594 40.3464 105.115 39.8359 105.781 39.4922C106.448 39.1432 107.214 38.9688 108.078 38.9688C109.062 38.9688 109.872 39.1771 110.508 39.5938C111.143 40.0052 111.604 40.5599 111.891 41.2578C112.182 41.9505 112.328 42.7344 112.328 43.6094C112.328 44.5677 112.141 45.3854 111.766 46.0625C111.391 46.7396 110.87 47.2526 110.203 47.6016C109.536 47.9505 108.773 48.125 107.914 48.125C106.924 48.125 106.112 47.9167 105.477 47.5C104.841 47.0833 104.378 46.526 104.086 45.8281C103.799 45.125 103.656 44.3359 103.656 43.4609ZM109.805 43.6172C109.805 42.7839 109.656 42.0911 109.359 41.5391C109.062 40.9818 108.612 40.7031 108.008 40.7031C106.789 40.7031 106.18 41.6094 106.18 43.4219C106.18 43.9688 106.242 44.4688 106.367 44.9219C106.497 45.3698 106.698 45.7292 106.969 46C107.245 46.2708 107.589 46.4062 108 46.4062C109.203 46.4062 109.805 45.4766 109.805 43.6172ZM116.648 39.0938L116.695 40.0469C117.055 39.776 117.503 39.5286 118.039 39.3047C118.576 39.0807 119.094 38.9609 119.594 38.9453C120.234 38.9245 120.758 39.026 121.164 39.25C121.57 39.4688 121.872 39.8359 122.07 40.3516C122.273 40.862 122.375 41.5495 122.375 42.4141V48H119.938V42.9375C119.938 42.4323 119.898 42.0417 119.82 41.7656C119.742 41.4844 119.609 41.2839 119.422 41.1641C119.234 41.0443 118.969 40.9896 118.625 41C118.365 41.0052 118.07 41.0651 117.742 41.1797C117.414 41.2943 117.125 41.4609 116.875 41.6797V48H114.438V39.0938H116.648ZM127.438 39.0938V48H125V39.0938H127.438ZM124.703 36.4609C124.703 36.2005 124.776 35.9583 124.922 35.7344C125.068 35.5104 125.26 35.3333 125.5 35.2031C125.74 35.0677 125.992 35 126.258 35C126.685 35 127.026 35.125 127.281 35.375C127.536 35.6198 127.664 35.9375 127.664 36.3281C127.664 36.5885 127.591 36.8333 127.445 37.0625C127.305 37.2865 127.115 37.4661 126.875 37.6016C126.641 37.7318 126.388 37.7969 126.117 37.7969C125.852 37.7969 125.612 37.7396 125.398 37.625C125.185 37.5104 125.016 37.3516 124.891 37.1484C124.766 36.9453 124.703 36.7161 124.703 36.4609ZM138.164 48H135.375L133.766 45.4922L133.508 45.0859L133.305 45.5078L131.867 48H129.078L132.211 43.4922L129.078 39.0938H131.836L133.367 41.4141L133.648 41.8828L133.883 41.4062L135.352 39.0938H138.102L134.945 43.4453L138.164 48Z" fill="#837E9F"/>
<path d="M36.4619 75.4863C37.0452 75.4863 37.5306 75.5182 37.918 75.582C38.3053 75.6458 38.6608 75.7256 38.9844 75.8213L39.1895 75.876L38.9707 77.2295C38.8021 77.1429 38.6426 77.07 38.4922 77.0107C38.3418 76.9469 38.1003 76.8831 37.7676 76.8193C37.4349 76.7555 37.0339 76.7236 36.5645 76.7236C35.8672 76.7236 35.2611 76.8877 34.7461 77.2158C34.2357 77.5439 33.8438 78.0111 33.5703 78.6172C33.2969 79.2233 33.1602 79.9342 33.1602 80.75C33.1602 81.5612 33.2969 82.2812 33.5703 82.9102C33.8438 83.5391 34.2357 84.029 34.7461 84.3799C35.2611 84.7308 35.8649 84.9062 36.5576 84.9062C36.8994 84.9062 37.2458 84.8766 37.5967 84.8174C37.9476 84.7581 38.2575 84.6807 38.5264 84.585C38.7952 84.4847 38.9912 84.3799 39.1143 84.2705L39.1211 85.5625C38.8249 85.681 38.5697 85.7767 38.3555 85.8496C38.1458 85.918 37.8815 85.9772 37.5625 86.0273C37.248 86.082 36.8926 86.1094 36.4961 86.1094C35.5254 86.1094 34.6732 85.8906 33.9395 85.4531C33.2103 85.0156 32.6452 84.4004 32.2441 83.6074C31.8477 82.8145 31.6494 81.8962 31.6494 80.8525C31.6494 79.7451 31.8682 78.7858 32.3057 77.9746C32.7432 77.1634 33.3288 76.5459 34.0625 76.1221C34.7962 75.6982 35.596 75.4863 36.4619 75.4863ZM40.6387 82.0352C40.6387 81.2012 40.7913 80.4902 41.0967 79.9023C41.402 79.3099 41.8236 78.861 42.3613 78.5557C42.8991 78.2503 43.5098 78.0977 44.1934 78.0977C44.9818 78.0977 45.6312 78.2799 46.1416 78.6445C46.652 79.0091 47.0257 79.4967 47.2627 80.1074C47.4997 80.7181 47.6182 81.4062 47.6182 82.1719C47.6182 83.0059 47.4655 83.7191 47.1602 84.3115C46.8548 84.904 46.4333 85.3529 45.8955 85.6582C45.3577 85.959 44.7448 86.1094 44.0566 86.1094C43.2728 86.1094 42.6257 85.9271 42.1152 85.5625C41.6048 85.1979 41.2311 84.7103 40.9941 84.0996C40.7572 83.4889 40.6387 82.8008 40.6387 82.0352ZM46.0938 82.1992C46.0938 81.6159 46.0208 81.0986 45.875 80.6475C45.7337 80.1917 45.515 79.834 45.2188 79.5742C44.9225 79.3099 44.5511 79.1777 44.1045 79.1777C43.471 79.1777 42.988 79.4193 42.6553 79.9023C42.3271 80.3809 42.1631 81.0667 42.1631 81.96C42.1631 82.5387 42.236 83.0628 42.3818 83.5322C42.5277 83.9971 42.7487 84.3662 43.0449 84.6396C43.3411 84.9085 43.708 85.043 44.1455 85.043C44.779 85.043 45.262 84.7946 45.5947 84.2979C45.9274 83.8011 46.0938 83.1016 46.0938 82.1992ZM50.8242 78.2207L50.8311 79.041C51.1865 78.7995 51.6263 78.5807 52.1504 78.3848C52.679 78.1888 53.1826 78.0908 53.6611 78.0908C54.1989 78.0908 54.6273 78.1911 54.9463 78.3916C55.2653 78.5921 55.4977 78.9134 55.6436 79.3555C55.7894 79.7975 55.8623 80.3945 55.8623 81.1465V86H54.3584V81.1396C54.3584 80.7021 54.3242 80.3558 54.2559 80.1006C54.1875 79.8408 54.0622 79.6471 53.8799 79.5195C53.6976 79.3919 53.4333 79.3281 53.0869 79.3281C53.0049 79.3281 52.9434 79.3304 52.9023 79.335C52.6289 79.3441 52.3145 79.4147 51.959 79.5469C51.6081 79.6745 51.2845 79.8454 50.9883 80.0596V86H49.4844V78.2207H50.8242ZM58.0225 84.4346C58.109 84.4938 58.2686 84.569 58.501 84.6602C58.7334 84.7467 59.0046 84.8242 59.3145 84.8926C59.6243 84.9609 59.932 84.9951 60.2373 84.9951C60.6839 84.9951 61.0257 84.9108 61.2627 84.7422C61.5042 84.5736 61.625 84.3389 61.625 84.0381C61.625 83.751 61.4883 83.5049 61.2148 83.2998C60.946 83.0947 60.5472 82.8805 60.0186 82.6572C59.3304 82.3656 58.7949 82.0238 58.4121 81.6318C58.0339 81.2399 57.8447 80.7454 57.8447 80.1484C57.8447 79.7064 57.9678 79.3327 58.2139 79.0273C58.4645 78.7174 58.8018 78.485 59.2256 78.3301C59.6494 78.1751 60.1279 78.0977 60.6611 78.0977C61.0804 78.0977 61.4746 78.1432 61.8438 78.2344C62.2129 78.3255 62.4772 78.4144 62.6367 78.501L62.3906 79.6357C62.263 79.5264 62.0374 79.4284 61.7139 79.3418C61.3903 79.2507 61.0553 79.2051 60.709 79.2051C60.2305 79.2051 59.8636 79.2826 59.6084 79.4375C59.3577 79.5924 59.2324 79.8044 59.2324 80.0732C59.2324 80.3011 59.2894 80.4971 59.4033 80.6611C59.5218 80.8252 59.6882 80.9688 59.9023 81.0918C60.1165 81.2148 60.3968 81.347 60.7432 81.4883C61.4085 81.7572 61.9554 82.083 62.3838 82.4658C62.8122 82.8441 63.0264 83.3317 63.0264 83.9287C63.0264 84.3936 62.9147 84.79 62.6914 85.1182C62.4727 85.4417 62.1559 85.6878 61.7412 85.8564C61.3311 86.0251 60.8434 86.1094 60.2783 86.1094C59.7725 86.1094 59.2803 86.0524 58.8018 85.9385C58.3278 85.8245 57.9928 85.6969 57.7969 85.5557L58.0225 84.4346ZM71.0518 78.207V86.1094H70.4707C70.293 86.1094 70.1517 86.0957 70.0469 86.0684C69.9421 86.041 69.86 85.984 69.8008 85.8975C69.7461 85.8109 69.7188 85.681 69.7188 85.5078V85.3164C69.3633 85.5306 68.9531 85.7174 68.4883 85.877C68.028 86.0319 67.5973 86.1094 67.1963 86.1094C66.5628 86.1094 66.0775 85.9749 65.7402 85.7061C65.403 85.4372 65.1751 85.0658 65.0566 84.5918C64.9382 84.1133 64.8789 83.5026 64.8789 82.7598V78.207H66.3828V82.7529C66.3828 83.3864 66.4284 83.8535 66.5195 84.1543C66.6152 84.4505 66.7588 84.6442 66.9502 84.7354C67.1462 84.8265 67.4333 84.8721 67.8115 84.8721C68.085 84.8721 68.3926 84.8128 68.7344 84.6943C69.0807 84.5758 69.3519 84.4528 69.5479 84.3252V78.207H71.0518ZM75.1123 74.625V86H73.6084V74.625H75.1123ZM78.0176 79.3418H77.0059V78.5283L77.252 78.46C77.4616 78.4007 77.6165 78.3529 77.7168 78.3164C77.8171 78.2754 77.9036 78.2207 77.9766 78.1523C78.054 78.0794 78.1156 77.9814 78.1611 77.8584C78.2295 77.6852 78.3298 77.373 78.4619 76.9219L78.6123 76.4297H79.5146V78.207H81.7158V79.3418H79.5146V83.2861C79.5146 83.8057 79.5352 84.1748 79.5762 84.3936C79.6172 84.6077 79.6924 84.7467 79.8018 84.8105C79.9157 84.8743 80.1071 84.9062 80.376 84.9062C80.5719 84.9062 80.8089 84.8743 81.0869 84.8105C81.3695 84.7467 81.5768 84.6807 81.709 84.6123L81.9688 85.4736C81.7454 85.6377 81.4242 85.7858 81.0049 85.918C80.5902 86.0456 80.1937 86.1094 79.8154 86.1094C79.2458 86.1094 78.8037 85.9681 78.4893 85.6855C78.1748 85.3984 78.0176 84.8812 78.0176 84.1338V79.3418ZM89.2832 81.0371C89.2832 81.4062 89.2786 81.6934 89.2695 81.8984C89.2604 82.099 89.2399 82.2767 89.208 82.4316H84.4023C84.4069 82.4635 84.4092 82.5091 84.4092 82.5684C84.4867 84.1725 85.2796 84.9746 86.7881 84.9746C87.0615 84.9746 87.4079 84.9313 87.8271 84.8447C88.2464 84.7581 88.5472 84.6602 88.7295 84.5508L89.0166 85.4121C88.766 85.6172 88.3854 85.7858 87.875 85.918C87.3646 86.0456 86.8678 86.1094 86.3848 86.1094C85.651 86.1094 85.0267 85.9521 84.5117 85.6377C83.9967 85.3187 83.6048 84.8584 83.3359 84.2568C83.0671 83.6553 82.9326 82.9329 82.9326 82.0898C82.9326 81.3242 83.0648 80.6429 83.3291 80.0459C83.598 79.4489 83.9922 78.9795 84.5117 78.6377C85.0358 78.2913 85.6693 78.1113 86.4121 78.0977C86.9362 78.0885 87.4124 78.1956 87.8408 78.4189C88.2692 78.6423 88.611 78.9772 88.8662 79.4238C89.126 79.8704 89.265 80.4082 89.2832 81.0371ZM87.875 81.4336C87.8841 81.2878 87.8887 81.1807 87.8887 81.1123C87.8887 80.5335 87.7702 80.0641 87.5332 79.7041C87.3008 79.3441 86.8997 79.1641 86.3301 79.1641C85.8242 79.1641 85.4027 79.3441 85.0654 79.7041C84.7327 80.0596 84.5254 80.6361 84.4434 81.4336H87.875ZM95.0938 82.0352C95.0938 81.2012 95.2464 80.4902 95.5518 79.9023C95.8571 79.3099 96.2786 78.861 96.8164 78.5557C97.3542 78.2503 97.9648 78.0977 98.6484 78.0977C99.4368 78.0977 100.086 78.2799 100.597 78.6445C101.107 79.0091 101.481 79.4967 101.718 80.1074C101.955 80.7181 102.073 81.4062 102.073 82.1719C102.073 83.0059 101.921 83.7191 101.615 84.3115C101.31 84.904 100.888 85.3529 100.351 85.6582C99.8128 85.959 99.1999 86.1094 98.5117 86.1094C97.7279 86.1094 97.0807 85.9271 96.5703 85.5625C96.0599 85.1979 95.6862 84.7103 95.4492 84.0996C95.2122 83.4889 95.0938 82.8008 95.0938 82.0352ZM100.549 82.1992C100.549 81.6159 100.476 81.0986 100.33 80.6475C100.189 80.1917 99.9701 79.834 99.6738 79.5742C99.3776 79.3099 99.0062 79.1777 98.5596 79.1777C97.9261 79.1777 97.443 79.4193 97.1104 79.9023C96.7822 80.3809 96.6182 81.0667 96.6182 81.96C96.6182 82.5387 96.6911 83.0628 96.8369 83.5322C96.9827 83.9971 97.2038 84.3662 97.5 84.6396C97.7962 84.9085 98.1631 85.043 98.6006 85.043C99.234 85.043 99.7171 84.7946 100.05 84.2979C100.382 83.8011 100.549 83.1016 100.549 82.1992ZM103.728 84.4346C103.814 84.4938 103.974 84.569 104.206 84.6602C104.438 84.7467 104.71 84.8242 105.02 84.8926C105.329 84.9609 105.637 84.9951 105.942 84.9951C106.389 84.9951 106.731 84.9108 106.968 84.7422C107.209 84.5736 107.33 84.3389 107.33 84.0381C107.33 83.751 107.193 83.5049 106.92 83.2998C106.651 83.0947 106.252 82.8805 105.724 82.6572C105.035 82.3656 104.5 82.0238 104.117 81.6318C103.739 81.2399 103.55 80.7454 103.55 80.1484C103.55 79.7064 103.673 79.3327 103.919 79.0273C104.17 78.7174 104.507 78.485 104.931 78.3301C105.354 78.1751 105.833 78.0977 106.366 78.0977C106.785 78.0977 107.18 78.1432 107.549 78.2344C107.918 78.3255 108.182 78.4144 108.342 78.501L108.096 79.6357C107.968 79.5264 107.743 79.4284 107.419 79.3418C107.095 79.2507 106.76 79.2051 106.414 79.2051C105.936 79.2051 105.569 79.2826 105.313 79.4375C105.063 79.5924 104.938 79.8044 104.938 80.0732C104.938 80.3011 104.994 80.4971 105.108 80.6611C105.227 80.8252 105.393 80.9688 105.607 81.0918C105.822 81.2148 106.102 81.347 106.448 81.4883C107.114 81.7572 107.66 82.083 108.089 82.4658C108.517 82.8441 108.731 83.3317 108.731 83.9287C108.731 84.3936 108.62 84.79 108.396 85.1182C108.178 85.4417 107.861 85.6878 107.446 85.8564C107.036 86.0251 106.549 86.1094 105.983 86.1094C105.478 86.1094 104.985 86.0524 104.507 85.9385C104.033 85.8245 103.698 85.6969 103.502 85.5557L103.728 84.4346ZM118.336 78.0977C118.778 78.0977 119.17 78.141 119.512 78.2275C119.854 78.3096 120.1 78.4007 120.25 78.501L120.011 79.6904C119.801 79.5446 119.555 79.4375 119.272 79.3691C118.99 79.2962 118.653 79.2598 118.261 79.2598C117.869 79.2598 117.502 79.36 117.16 79.5605C116.823 79.7611 116.549 80.0755 116.34 80.5039C116.13 80.9277 116.025 81.4632 116.025 82.1104C116.025 82.7119 116.121 83.2292 116.312 83.6621C116.504 84.0905 116.766 84.4163 117.099 84.6396C117.431 84.863 117.805 84.9746 118.22 84.9746C118.58 84.9746 118.931 84.929 119.272 84.8379C119.614 84.7422 119.883 84.6351 120.079 84.5166L120.387 85.3711C120.145 85.5944 119.808 85.7744 119.375 85.9111C118.942 86.0433 118.482 86.1094 117.994 86.1094C117.283 86.1094 116.668 85.9408 116.148 85.6035C115.633 85.2617 115.242 84.7946 114.973 84.2021C114.704 83.6097 114.569 82.9375 114.569 82.1855C114.569 81.4062 114.711 80.709 114.993 80.0938C115.28 79.474 115.706 78.9863 116.271 78.6309C116.837 78.2754 117.525 78.0977 118.336 78.0977ZM124.222 76.3818C124.764 75.7848 125.19 75.3063 125.5 74.9463C125.814 74.5817 126.111 74.2035 126.389 73.8115L127.455 74.7344C127.346 74.9167 127.111 75.1924 126.751 75.5615C126.391 75.9261 126.022 76.2679 125.644 76.5869C125.265 76.9059 124.996 77.0951 124.837 77.1543L124.078 76.5391L124.222 76.3818ZM121.412 82.0352C121.412 81.2012 121.565 80.4902 121.87 79.9023C122.175 79.3099 122.597 78.861 123.135 78.5557C123.673 78.2503 124.283 78.0977 124.967 78.0977C125.755 78.0977 126.405 78.2799 126.915 78.6445C127.425 79.0091 127.799 79.4967 128.036 80.1074C128.273 80.7181 128.392 81.4062 128.392 82.1719C128.392 83.0059 128.239 83.7191 127.934 84.3115C127.628 84.904 127.207 85.3529 126.669 85.6582C126.131 85.959 125.518 86.1094 124.83 86.1094C124.046 86.1094 123.399 85.9271 122.889 85.5625C122.378 85.1979 122.005 84.7103 121.768 84.0996C121.531 83.4889 121.412 82.8008 121.412 82.0352ZM126.867 82.1992C126.867 81.6159 126.794 81.0986 126.648 80.6475C126.507 80.1917 126.288 79.834 125.992 79.5742C125.696 79.3099 125.325 79.1777 124.878 79.1777C124.244 79.1777 123.761 79.4193 123.429 79.9023C123.101 80.3809 122.937 81.0667 122.937 81.96C122.937 82.5387 123.009 83.0628 123.155 83.5322C123.301 83.9971 123.522 84.3662 123.818 84.6396C124.115 84.9085 124.481 85.043 124.919 85.043C125.552 85.043 126.035 84.7946 126.368 84.2979C126.701 83.8011 126.867 83.1016 126.867 82.1992ZM136.376 74.625V86.1094H135.727C135.549 86.1094 135.405 86.0957 135.296 86.0684C135.191 86.041 135.107 85.984 135.043 85.8975C134.984 85.8109 134.954 85.681 134.954 85.5078V85.2275C134.708 85.4782 134.416 85.6878 134.079 85.8564C133.742 86.0251 133.311 86.1094 132.787 86.1094C132.222 86.1094 131.707 85.9727 131.242 85.6992C130.782 85.4212 130.413 85.0042 130.135 84.4482C129.857 83.8877 129.718 83.2018 129.718 82.3906C129.718 81.5566 129.88 80.8138 130.203 80.1621C130.527 79.5104 130.982 79.0046 131.57 78.6445C132.163 78.2799 132.846 78.0977 133.621 78.0977C134.059 78.0977 134.482 78.1615 134.893 78.2891L134.872 77.8721V74.625H136.376ZM131.249 82.2607C131.249 83.1585 131.415 83.8285 131.748 84.2705C132.085 84.708 132.571 84.9268 133.204 84.9268C133.537 84.9268 133.844 84.8652 134.127 84.7422C134.414 84.6146 134.662 84.4665 134.872 84.2979V79.5332C134.735 79.4147 134.553 79.3281 134.325 79.2734C134.097 79.2188 133.812 79.1914 133.471 79.1914C133.047 79.1914 132.666 79.3099 132.329 79.5469C131.992 79.7839 131.728 80.1348 131.536 80.5996C131.345 81.0599 131.249 81.6136 131.249 82.2607ZM140.341 78.2207V86H138.837V78.2207H140.341ZM138.55 75.8691C138.55 75.6777 138.602 75.5 138.707 75.3359C138.816 75.1719 138.958 75.042 139.131 74.9463C139.304 74.8506 139.479 74.8027 139.657 74.8027C139.967 74.8027 140.204 74.8893 140.368 75.0625C140.537 75.2357 140.621 75.4567 140.621 75.7256C140.621 75.9261 140.569 76.1084 140.464 76.2725C140.359 76.4365 140.222 76.5641 140.054 76.6553C139.885 76.7464 139.705 76.792 139.514 76.792C139.34 76.792 139.181 76.7555 139.035 76.6826C138.889 76.6051 138.771 76.4958 138.68 76.3545C138.593 76.2132 138.55 76.0514 138.55 75.8691ZM149.774 79.3486H148.346C148.578 79.7406 148.694 80.1917 148.694 80.7021C148.694 81.2627 148.558 81.7458 148.284 82.1514C148.011 82.5524 147.637 82.8577 147.163 83.0674C146.689 83.2725 146.154 83.375 145.557 83.375C145.247 83.375 144.964 83.3454 144.709 83.2861C144.581 83.3727 144.477 83.4867 144.395 83.6279C144.312 83.7692 144.271 83.915 144.271 84.0654C144.271 84.3525 144.335 84.5508 144.463 84.6602C144.595 84.765 144.827 84.8174 145.16 84.8174H146.575C147.655 84.8174 148.403 85.0202 148.817 85.4258C149.237 85.8268 149.446 86.3486 149.446 86.9912C149.446 87.4971 149.278 87.9414 148.94 88.3242C148.603 88.7116 148.147 89.0101 147.573 89.2197C147.004 89.4294 146.372 89.5342 145.68 89.5342C144.654 89.5342 143.852 89.3428 143.273 88.96C142.699 88.5771 142.412 88.0029 142.412 87.2373C142.412 86.8818 142.519 86.5674 142.733 86.2939C142.948 86.0205 143.203 85.8018 143.499 85.6377C143.098 85.4053 142.897 85.0293 142.897 84.5098C142.897 84.2454 142.982 83.9743 143.15 83.6963C143.324 83.4137 143.558 83.1722 143.854 82.9717C143.435 82.7484 143.105 82.4476 142.863 82.0693C142.626 81.6911 142.508 81.265 142.508 80.791C142.508 80.194 142.645 79.695 142.918 79.2939C143.191 78.8883 143.565 78.5876 144.039 78.3916C144.518 78.1956 145.062 78.0977 145.673 78.0977C146.416 78.0977 147.045 78.2549 147.56 78.5693C147.733 78.4508 147.951 78.3529 148.216 78.2754C148.48 78.1934 148.747 78.1523 149.016 78.1523H149.774V79.3486ZM145.591 82.3701C146.119 82.3701 146.518 82.2493 146.787 82.0078C147.061 81.7663 147.197 81.3493 147.197 80.7568C147.197 80.2191 147.07 79.8112 146.814 79.5332C146.559 79.2552 146.174 79.1162 145.659 79.1162C145.158 79.1162 144.757 79.2347 144.456 79.4717C144.155 79.7041 144.005 80.1211 144.005 80.7227C144.005 81.2012 144.135 81.5954 144.395 81.9053C144.659 82.2152 145.058 82.3701 145.591 82.3701ZM145.386 86C144.971 86 144.634 85.984 144.374 85.9521C144.219 86.0889 144.096 86.2415 144.005 86.4102C143.918 86.5788 143.875 86.7952 143.875 87.0596C143.875 87.5472 144.019 87.9095 144.306 88.1465C144.597 88.3835 145.067 88.502 145.714 88.502C146.129 88.502 146.509 88.4564 146.855 88.3652C147.206 88.2741 147.487 88.1396 147.696 87.9619C147.906 87.7842 148.011 87.57 148.011 87.3193C148.011 87.0186 147.956 86.7725 147.847 86.5811C147.742 86.3942 147.548 86.2507 147.266 86.1504C146.988 86.0501 146.593 86 146.083 86H145.386ZM150.643 82.0352C150.643 81.2012 150.795 80.4902 151.101 79.9023C151.406 79.3099 151.827 78.861 152.365 78.5557C152.903 78.2503 153.514 78.0977 154.197 78.0977C154.986 78.0977 155.635 78.2799 156.146 78.6445C156.656 79.0091 157.03 79.4967 157.267 80.1074C157.504 80.7181 157.622 81.4062 157.622 82.1719C157.622 83.0059 157.469 83.7191 157.164 84.3115C156.859 84.904 156.437 85.3529 155.899 85.6582C155.362 85.959 154.749 86.1094 154.061 86.1094C153.277 86.1094 152.63 85.9271 152.119 85.5625C151.609 85.1979 151.235 84.7103 150.998 84.0996C150.761 83.4889 150.643 82.8008 150.643 82.0352ZM156.098 82.1992C156.098 81.6159 156.025 81.0986 155.879 80.6475C155.738 80.1917 155.519 79.834 155.223 79.5742C154.926 79.3099 154.555 79.1777 154.108 79.1777C153.475 79.1777 152.992 79.4193 152.659 79.9023C152.331 80.3809 152.167 81.0667 152.167 81.96C152.167 82.5387 152.24 83.0628 152.386 83.5322C152.532 83.9971 152.753 84.3662 153.049 84.6396C153.345 84.9085 153.712 85.043 154.149 85.043C154.783 85.043 155.266 84.7946 155.599 84.2979C155.931 83.8011 156.098 83.1016 156.098 82.1992ZM159.276 84.4346C159.363 84.4938 159.522 84.569 159.755 84.6602C159.987 84.7467 160.258 84.8242 160.568 84.8926C160.878 84.9609 161.186 84.9951 161.491 84.9951C161.938 84.9951 162.28 84.9108 162.517 84.7422C162.758 84.5736 162.879 84.3389 162.879 84.0381C162.879 83.751 162.742 83.5049 162.469 83.2998C162.2 83.0947 161.801 82.8805 161.272 82.6572C160.584 82.3656 160.049 82.0238 159.666 81.6318C159.288 81.2399 159.099 80.7454 159.099 80.1484C159.099 79.7064 159.222 79.3327 159.468 79.0273C159.718 78.7174 160.056 78.485 160.479 78.3301C160.903 78.1751 161.382 78.0977 161.915 78.0977C162.334 78.0977 162.729 78.1432 163.098 78.2344C163.467 78.3255 163.731 78.4144 163.891 78.501L163.645 79.6357C163.517 79.5264 163.291 79.4284 162.968 79.3418C162.644 79.2507 162.309 79.2051 161.963 79.2051C161.484 79.2051 161.118 79.2826 160.862 79.4375C160.612 79.5924 160.486 79.8044 160.486 80.0732C160.486 80.3011 160.543 80.4971 160.657 80.6611C160.776 80.8252 160.942 80.9688 161.156 81.0918C161.37 81.2148 161.651 81.347 161.997 81.4883C162.662 81.7572 163.209 82.083 163.638 82.4658C164.066 82.8441 164.28 83.3317 164.28 83.9287C164.28 84.3936 164.169 84.79 163.945 85.1182C163.727 85.4417 163.41 85.6878 162.995 85.8564C162.585 86.0251 162.097 86.1094 161.532 86.1094C161.026 86.1094 160.534 86.0524 160.056 85.9385C159.582 85.8245 159.247 85.6969 159.051 85.5557L159.276 84.4346ZM176.776 74.625V86.1094H176.127C175.949 86.1094 175.806 86.0957 175.696 86.0684C175.591 86.041 175.507 85.984 175.443 85.8975C175.384 85.8109 175.354 85.681 175.354 85.5078V85.2275C175.108 85.4782 174.817 85.6878 174.479 85.8564C174.142 86.0251 173.712 86.1094 173.188 86.1094C172.622 86.1094 172.107 85.9727 171.643 85.6992C171.182 85.4212 170.813 85.0042 170.535 84.4482C170.257 83.8877 170.118 83.2018 170.118 82.3906C170.118 81.5566 170.28 80.8138 170.604 80.1621C170.927 79.5104 171.383 79.0046 171.971 78.6445C172.563 78.2799 173.247 78.0977 174.021 78.0977C174.459 78.0977 174.883 78.1615 175.293 78.2891L175.272 77.8721V74.625H176.776ZM171.649 82.2607C171.649 83.1585 171.816 83.8285 172.148 84.2705C172.486 84.708 172.971 84.9268 173.604 84.9268C173.937 84.9268 174.245 84.8652 174.527 84.7422C174.814 84.6146 175.063 84.4665 175.272 84.2979V79.5332C175.136 79.4147 174.953 79.3281 174.726 79.2734C174.498 79.2188 174.213 79.1914 173.871 79.1914C173.447 79.1914 173.067 79.3099 172.729 79.5469C172.392 79.7839 172.128 80.1348 171.937 80.5996C171.745 81.0599 171.649 81.6136 171.649 82.2607ZM184.932 81.0371C184.932 81.4062 184.927 81.6934 184.918 81.8984C184.909 82.099 184.888 82.2767 184.856 82.4316H180.051C180.055 82.4635 180.058 82.5091 180.058 82.5684C180.135 84.1725 180.928 84.9746 182.437 84.9746C182.71 84.9746 183.056 84.9313 183.476 84.8447C183.895 84.7581 184.196 84.6602 184.378 84.5508L184.665 85.4121C184.414 85.6172 184.034 85.7858 183.523 85.918C183.013 86.0456 182.516 86.1094 182.033 86.1094C181.299 86.1094 180.675 85.9521 180.16 85.6377C179.645 85.3187 179.253 84.8584 178.984 84.2568C178.715 83.6553 178.581 82.9329 178.581 82.0898C178.581 81.3242 178.713 80.6429 178.978 80.0459C179.246 79.4489 179.641 78.9795 180.16 78.6377C180.684 78.2913 181.318 78.1113 182.061 78.0977C182.585 78.0885 183.061 78.1956 183.489 78.4189C183.918 78.6423 184.259 78.9772 184.515 79.4238C184.774 79.8704 184.913 80.4082 184.932 81.0371ZM183.523 81.4336C183.533 81.2878 183.537 81.1807 183.537 81.1123C183.537 80.5335 183.419 80.0641 183.182 79.7041C182.949 79.3441 182.548 79.1641 181.979 79.1641C181.473 79.1641 181.051 79.3441 180.714 79.7041C180.381 80.0596 180.174 80.6361 180.092 81.4336H183.523ZM197.1 81.0371C197.1 81.4062 197.095 81.6934 197.086 81.8984C197.077 82.099 197.056 82.2767 197.024 82.4316H192.219C192.223 82.4635 192.226 82.5091 192.226 82.5684C192.303 84.1725 193.096 84.9746 194.604 84.9746C194.878 84.9746 195.224 84.9313 195.644 84.8447C196.063 84.7581 196.364 84.6602 196.546 84.5508L196.833 85.4121C196.582 85.6172 196.202 85.7858 195.691 85.918C195.181 86.0456 194.684 86.1094 194.201 86.1094C193.467 86.1094 192.843 85.9521 192.328 85.6377C191.813 85.3187 191.421 84.8584 191.152 84.2568C190.883 83.6553 190.749 82.9329 190.749 82.0898C190.749 81.3242 190.881 80.6429 191.146 80.0459C191.414 79.4489 191.809 78.9795 192.328 78.6377C192.852 78.2913 193.486 78.1113 194.229 78.0977C194.753 78.0885 195.229 78.1956 195.657 78.4189C196.086 78.6423 196.427 78.9772 196.683 79.4238C196.942 79.8704 197.081 80.4082 197.1 81.0371ZM195.691 81.4336C195.701 81.2878 195.705 81.1807 195.705 81.1123C195.705 80.5335 195.587 80.0641 195.35 79.7041C195.117 79.3441 194.716 79.1641 194.146 79.1641C193.641 79.1641 193.219 79.3441 192.882 79.7041C192.549 80.0596 192.342 80.6361 192.26 81.4336H195.691ZM202.391 78.0908C202.755 78.0908 203.008 78.1227 203.149 78.1865V79.5947C203.054 79.54 202.928 79.4967 202.773 79.4648C202.623 79.4284 202.407 79.4102 202.124 79.4102C201.778 79.4102 201.456 79.474 201.16 79.6016C200.868 79.7246 200.622 79.875 200.422 80.0527V86H198.918V78.2207H200.183L200.285 79.082C200.385 78.9453 200.547 78.7995 200.771 78.6445C200.998 78.4896 201.256 78.3597 201.543 78.2549C201.835 78.1455 202.117 78.0908 202.391 78.0908ZM207.996 78.0908C208.361 78.0908 208.614 78.1227 208.755 78.1865V79.5947C208.659 79.54 208.534 79.4967 208.379 79.4648C208.229 79.4284 208.012 79.4102 207.729 79.4102C207.383 79.4102 207.062 79.474 206.766 79.6016C206.474 79.7246 206.228 79.875 206.027 80.0527V86H204.523V78.2207H205.788L205.891 79.082C205.991 78.9453 206.153 78.7995 206.376 78.6445C206.604 78.4896 206.861 78.3597 207.148 78.2549C207.44 78.1455 207.723 78.0908 207.996 78.0908ZM209.637 82.0352C209.637 81.2012 209.789 80.4902 210.095 79.9023C210.4 79.3099 210.822 78.861 211.359 78.5557C211.897 78.2503 212.508 78.0977 213.191 78.0977C213.98 78.0977 214.629 78.2799 215.14 78.6445C215.65 79.0091 216.024 79.4967 216.261 80.1074C216.498 80.7181 216.616 81.4062 216.616 82.1719C216.616 83.0059 216.464 83.7191 216.158 84.3115C215.853 84.904 215.431 85.3529 214.894 85.6582C214.356 85.959 213.743 86.1094 213.055 86.1094C212.271 86.1094 211.624 85.9271 211.113 85.5625C210.603 85.1979 210.229 84.7103 209.992 84.0996C209.755 83.4889 209.637 82.8008 209.637 82.0352ZM215.092 82.1992C215.092 81.6159 215.019 81.0986 214.873 80.6475C214.732 80.1917 214.513 79.834 214.217 79.5742C213.921 79.3099 213.549 79.1777 213.103 79.1777C212.469 79.1777 211.986 79.4193 211.653 79.9023C211.325 80.3809 211.161 81.0667 211.161 81.96C211.161 82.5387 211.234 83.0628 211.38 83.5322C211.526 83.9971 211.747 84.3662 212.043 84.6396C212.339 84.9085 212.706 85.043 213.144 85.043C213.777 85.043 214.26 84.7946 214.593 84.2979C214.925 83.8011 215.092 83.1016 215.092 82.1992ZM229.099 78.207V89.459H227.595V86.9502L227.636 85.2617C227.39 85.5033 227.098 85.7061 226.761 85.8701C226.428 86.0296 226.007 86.1094 225.496 86.1094C224.931 86.1094 224.416 85.9727 223.951 85.6992C223.491 85.4212 223.122 85.0042 222.844 84.4482C222.566 83.8877 222.427 83.2018 222.427 82.3906C222.427 81.5566 222.589 80.8138 222.912 80.1621C223.236 79.5104 223.691 79.0046 224.279 78.6445C224.872 78.2799 225.555 78.0977 226.33 78.0977C226.654 78.0977 226.966 78.1296 227.267 78.1934C227.567 78.2572 227.818 78.3324 228.019 78.4189L229.099 78.207ZM223.958 82.2607C223.958 83.1585 224.124 83.8285 224.457 84.2705C224.794 84.708 225.28 84.9268 225.913 84.9268C226.25 84.9268 226.562 84.863 226.85 84.7354C227.137 84.6077 227.385 84.4596 227.595 84.291V79.54C227.458 79.417 227.273 79.3281 227.041 79.2734C226.813 79.2188 226.526 79.1914 226.18 79.1914C225.756 79.1914 225.375 79.3099 225.038 79.5469C224.701 79.7839 224.437 80.1348 224.245 80.5996C224.054 81.0599 223.958 81.6136 223.958 82.2607ZM237.562 78.207V86.1094H236.98C236.803 86.1094 236.661 86.0957 236.557 86.0684C236.452 86.041 236.37 85.984 236.311 85.8975C236.256 85.8109 236.229 85.681 236.229 85.5078V85.3164C235.873 85.5306 235.463 85.7174 234.998 85.877C234.538 86.0319 234.107 86.1094 233.706 86.1094C233.073 86.1094 232.587 85.9749 232.25 85.7061C231.913 85.4372 231.685 85.0658 231.566 84.5918C231.448 84.1133 231.389 83.5026 231.389 82.7598V78.207H232.893V82.7529C232.893 83.3864 232.938 83.8535 233.029 84.1543C233.125 84.4505 233.269 84.6442 233.46 84.7354C233.656 84.8265 233.943 84.8721 234.321 84.8721C234.595 84.8721 234.902 84.8128 235.244 84.6943C235.59 84.5758 235.862 84.4528 236.058 84.3252V78.207H237.562ZM245.785 81.0371C245.785 81.4062 245.781 81.6934 245.771 81.8984C245.762 82.099 245.742 82.2767 245.71 82.4316H240.904C240.909 82.4635 240.911 82.5091 240.911 82.5684C240.989 84.1725 241.782 84.9746 243.29 84.9746C243.563 84.9746 243.91 84.9313 244.329 84.8447C244.748 84.7581 245.049 84.6602 245.231 84.5508L245.519 85.4121C245.268 85.6172 244.887 85.7858 244.377 85.918C243.867 86.0456 243.37 86.1094 242.887 86.1094C242.153 86.1094 241.529 85.9521 241.014 85.6377C240.499 85.3187 240.107 84.8584 239.838 84.2568C239.569 83.6553 239.435 82.9329 239.435 82.0898C239.435 81.3242 239.567 80.6429 239.831 80.0459C240.1 79.4489 240.494 78.9795 241.014 78.6377C241.538 78.2913 242.171 78.1113 242.914 78.0977C243.438 78.0885 243.914 78.1956 244.343 78.4189C244.771 78.6423 245.113 78.9772 245.368 79.4238C245.628 79.8704 245.767 80.4082 245.785 81.0371ZM244.377 81.4336C244.386 81.2878 244.391 81.1807 244.391 81.1123C244.391 80.5335 244.272 80.0641 244.035 79.7041C243.803 79.3441 243.402 79.1641 242.832 79.1641C242.326 79.1641 241.905 79.3441 241.567 79.7041C241.235 80.0596 241.027 80.6361 240.945 81.4336H244.377ZM254.795 78.0908C255.396 78.0908 255.898 78.1592 256.299 78.2959C256.7 78.4326 257.012 78.6833 257.235 79.0479C257.459 79.4079 257.57 79.916 257.57 80.5723V86.1094H256.955C256.75 86.1094 256.595 86.0957 256.49 86.0684C256.385 86.041 256.303 85.9772 256.244 85.877C256.185 85.7767 256.155 85.6172 256.155 85.3984V85.3438C255.927 85.5534 255.613 85.7334 255.212 85.8838C254.815 86.0342 254.401 86.1094 253.968 86.1094C253.507 86.1094 253.095 86.0205 252.73 85.8428C252.37 85.665 252.088 85.4121 251.883 85.084C251.682 84.7513 251.582 84.3617 251.582 83.915C251.582 83.4229 251.714 82.9967 251.979 82.6367C252.247 82.2767 252.621 81.9987 253.1 81.8027C253.523 81.6341 254.002 81.5088 254.535 81.4268C255.073 81.3402 255.583 81.2969 256.066 81.2969V80.5107C256.066 80.1462 256.007 79.8727 255.889 79.6904C255.775 79.5081 255.602 79.3851 255.369 79.3213C255.137 79.2575 254.815 79.2256 254.405 79.2256C254.187 79.2256 253.934 79.2552 253.646 79.3145C253.364 79.3737 253.097 79.4489 252.847 79.54C252.601 79.6266 252.418 79.7109 252.3 79.793L251.931 78.8086C252.049 78.7357 252.263 78.6423 252.573 78.5283C252.888 78.4144 253.243 78.3141 253.64 78.2275C254.041 78.1364 254.426 78.0908 254.795 78.0908ZM254.412 84.9883C254.626 84.9883 254.852 84.9564 255.089 84.8926C255.326 84.8288 255.533 84.7536 255.711 84.667C255.893 84.5758 256.012 84.4984 256.066 84.4346V82.2539C255.734 82.2539 255.358 82.2858 254.938 82.3496C254.524 82.4134 254.189 82.5068 253.934 82.6299C253.656 82.762 253.441 82.917 253.291 83.0947C253.141 83.2725 253.065 83.5026 253.065 83.7852C253.065 84.5872 253.514 84.9883 254.412 84.9883ZM263.401 78.0977C263.966 78.0977 264.481 78.2367 264.946 78.5146C265.411 78.7881 265.783 79.2051 266.061 79.7656C266.339 80.3216 266.478 81.0052 266.478 81.8164C266.478 82.6504 266.316 83.3932 265.992 84.0449C265.669 84.6966 265.211 85.2048 264.618 85.5693C264.03 85.9294 263.349 86.1094 262.574 86.1094C262.109 86.1094 261.683 86.0433 261.296 85.9111L261.316 86.9502V89.459H259.812V78.207H261.173V79.0479C261.428 78.779 261.724 78.5534 262.062 78.3711C262.399 78.1888 262.845 78.0977 263.401 78.0977ZM264.946 81.9463C264.946 81.0485 264.778 80.3809 264.44 79.9434C264.108 79.5013 263.622 79.2803 262.984 79.2803C262.652 79.2803 262.344 79.3441 262.062 79.4717C261.784 79.5947 261.535 79.7428 261.316 79.916V84.667C261.458 84.79 261.64 84.8789 261.863 84.9336C262.091 84.9883 262.376 85.0156 262.718 85.0156C263.146 85.0156 263.529 84.8971 263.866 84.6602C264.203 84.4232 264.468 84.0745 264.659 83.6143C264.851 83.154 264.946 82.598 264.946 81.9463ZM270.996 78.0908C271.598 78.0908 272.099 78.1592 272.5 78.2959C272.901 78.4326 273.213 78.6833 273.437 79.0479C273.66 79.4079 273.771 79.916 273.771 80.5723V86.1094H273.156C272.951 86.1094 272.796 86.0957 272.691 86.0684C272.587 86.041 272.505 85.9772 272.445 85.877C272.386 85.7767 272.356 85.6172 272.356 85.3984V85.3438C272.129 85.5534 271.814 85.7334 271.413 85.8838C271.017 86.0342 270.602 86.1094 270.169 86.1094C269.709 86.1094 269.296 86.0205 268.932 85.8428C268.572 85.665 268.289 85.4121 268.084 85.084C267.883 84.7513 267.783 84.3617 267.783 83.915C267.783 83.4229 267.915 82.9967 268.18 82.6367C268.449 82.2767 268.822 81.9987 269.301 81.8027C269.725 81.6341 270.203 81.5088 270.736 81.4268C271.274 81.3402 271.785 81.2969 272.268 81.2969V80.5107C272.268 80.1462 272.208 79.8727 272.09 79.6904C271.976 79.5081 271.803 79.3851 271.57 79.3213C271.338 79.2575 271.017 79.2256 270.606 79.2256C270.388 79.2256 270.135 79.2552 269.848 79.3145C269.565 79.3737 269.299 79.4489 269.048 79.54C268.802 79.6266 268.619 79.7109 268.501 79.793L268.132 78.8086C268.25 78.7357 268.465 78.6423 268.774 78.5283C269.089 78.4144 269.444 78.3141 269.841 78.2275C270.242 78.1364 270.627 78.0908 270.996 78.0908ZM270.613 84.9883C270.827 84.9883 271.053 84.9564 271.29 84.8926C271.527 84.8288 271.734 84.7536 271.912 84.667C272.094 84.5758 272.213 84.4984 272.268 84.4346V82.2539C271.935 82.2539 271.559 82.2858 271.14 82.3496C270.725 82.4134 270.39 82.5068 270.135 82.6299C269.857 82.762 269.643 82.917 269.492 83.0947C269.342 83.2725 269.267 83.5026 269.267 83.7852C269.267 84.5872 269.715 84.9883 270.613 84.9883ZM279.5 78.0908C279.865 78.0908 280.118 78.1227 280.259 78.1865V79.5947C280.163 79.54 280.038 79.4967 279.883 79.4648C279.732 79.4284 279.516 79.4102 279.233 79.4102C278.887 79.4102 278.566 79.474 278.27 79.6016C277.978 79.7246 277.732 79.875 277.531 80.0527V86H276.027V78.2207H277.292L277.395 79.082C277.495 78.9453 277.657 78.7995 277.88 78.6445C278.108 78.4896 278.365 78.3597 278.652 78.2549C278.944 78.1455 279.227 78.0908 279.5 78.0908ZM287.498 81.0371C287.498 81.4062 287.493 81.6934 287.484 81.8984C287.475 82.099 287.455 82.2767 287.423 82.4316H282.617C282.622 82.4635 282.624 82.5091 282.624 82.5684C282.701 84.1725 283.494 84.9746 285.003 84.9746C285.276 84.9746 285.623 84.9313 286.042 84.8447C286.461 84.7581 286.762 84.6602 286.944 84.5508L287.231 85.4121C286.981 85.6172 286.6 85.7858 286.09 85.918C285.579 86.0456 285.083 86.1094 284.6 86.1094C283.866 86.1094 283.242 85.9521 282.727 85.6377C282.212 85.3187 281.82 84.8584 281.551 84.2568C281.282 83.6553 281.147 82.9329 281.147 82.0898C281.147 81.3242 281.28 80.6429 281.544 80.0459C281.813 79.4489 282.207 78.9795 282.727 78.6377C283.251 78.2913 283.884 78.1113 284.627 78.0977C285.151 78.0885 285.627 78.1956 286.056 78.4189C286.484 78.6423 286.826 78.9772 287.081 79.4238C287.341 79.8704 287.48 80.4082 287.498 81.0371ZM286.09 81.4336C286.099 81.2878 286.104 81.1807 286.104 81.1123C286.104 80.5335 285.985 80.0641 285.748 79.7041C285.516 79.3441 285.115 79.1641 284.545 79.1641C284.039 79.1641 283.618 79.3441 283.28 79.7041C282.948 80.0596 282.74 80.6361 282.658 81.4336H286.09ZM292.598 78.0977C293.04 78.0977 293.432 78.141 293.773 78.2275C294.115 78.3096 294.361 78.4007 294.512 78.501L294.272 79.6904C294.063 79.5446 293.817 79.4375 293.534 79.3691C293.252 79.2962 292.914 79.2598 292.522 79.2598C292.131 79.2598 291.764 79.36 291.422 79.5605C291.085 79.7611 290.811 80.0755 290.602 80.5039C290.392 80.9277 290.287 81.4632 290.287 82.1104C290.287 82.7119 290.383 83.2292 290.574 83.6621C290.766 84.0905 291.028 84.4163 291.36 84.6396C291.693 84.863 292.067 84.9746 292.481 84.9746C292.841 84.9746 293.192 84.929 293.534 84.8379C293.876 84.7422 294.145 84.6351 294.341 84.5166L294.648 85.3711C294.407 85.5944 294.07 85.7744 293.637 85.9111C293.204 86.0433 292.743 86.1094 292.256 86.1094C291.545 86.1094 290.93 85.9408 290.41 85.6035C289.895 85.2617 289.503 84.7946 289.234 84.2021C288.965 83.6097 288.831 82.9375 288.831 82.1855C288.831 81.4062 288.972 80.709 289.255 80.0938C289.542 79.474 289.968 78.9863 290.533 78.6309C291.098 78.2754 291.786 78.0977 292.598 78.0977ZM302.031 81.0371C302.031 81.4062 302.027 81.6934 302.018 81.8984C302.008 82.099 301.988 82.2767 301.956 82.4316H297.15C297.155 82.4635 297.157 82.5091 297.157 82.5684C297.235 84.1725 298.028 84.9746 299.536 84.9746C299.81 84.9746 300.156 84.9313 300.575 84.8447C300.994 84.7581 301.295 84.6602 301.478 84.5508L301.765 85.4121C301.514 85.6172 301.133 85.7858 300.623 85.918C300.113 86.0456 299.616 86.1094 299.133 86.1094C298.399 86.1094 297.775 85.9521 297.26 85.6377C296.745 85.3187 296.353 84.8584 296.084 84.2568C295.815 83.6553 295.681 82.9329 295.681 82.0898C295.681 81.3242 295.813 80.6429 296.077 80.0459C296.346 79.4489 296.74 78.9795 297.26 78.6377C297.784 78.2913 298.417 78.1113 299.16 78.0977C299.684 78.0885 300.16 78.1956 300.589 78.4189C301.017 78.6423 301.359 78.9772 301.614 79.4238C301.874 79.8704 302.013 80.4082 302.031 81.0371ZM300.623 81.4336C300.632 81.2878 300.637 81.1807 300.637 81.1123C300.637 80.5335 300.518 80.0641 300.281 79.7041C300.049 79.3441 299.648 79.1641 299.078 79.1641C298.572 79.1641 298.151 79.3441 297.813 79.7041C297.481 80.0596 297.273 80.6361 297.191 81.4336H300.623ZM312.777 78.0908C313.32 78.0908 313.753 78.1888 314.076 78.3848C314.4 78.5807 314.637 78.8997 314.787 79.3418C314.942 79.7793 315.02 80.3717 315.02 81.1191V86H313.516V81.1396C313.516 80.6839 313.479 80.3285 313.406 80.0732C313.333 79.8135 313.194 79.6243 312.989 79.5059C312.784 79.3828 312.486 79.3304 312.094 79.3486C311.816 79.3577 311.501 79.4261 311.15 79.5537C310.799 79.6768 310.478 79.8408 310.187 80.0459C310.228 80.3604 310.248 80.7181 310.248 81.1191V86H308.744V81.1396C308.744 80.6839 308.705 80.3285 308.628 80.0732C308.555 79.8135 308.416 79.6243 308.211 79.5059C308.006 79.3828 307.71 79.3304 307.322 79.3486C307.053 79.3577 306.739 79.4261 306.379 79.5537C306.023 79.6768 305.7 79.8454 305.408 80.0596V86H303.904V78.2207H305.244L305.251 79.041C305.602 78.804 306.019 78.5898 306.502 78.3984C306.99 78.207 307.466 78.1045 307.931 78.0908C308.446 78.0771 308.863 78.1478 309.182 78.3027C309.505 78.4531 309.751 78.7061 309.92 79.0615C310.266 78.8018 310.704 78.5762 311.232 78.3848C311.766 78.1888 312.281 78.0908 312.777 78.0908ZM323.209 78.2207L323.216 79.041C323.571 78.7995 324.011 78.5807 324.535 78.3848C325.064 78.1888 325.567 78.0908 326.046 78.0908C326.584 78.0908 327.012 78.1911 327.331 78.3916C327.65 78.5921 327.882 78.9134 328.028 79.3555C328.174 79.7975 328.247 80.3945 328.247 81.1465V86H326.743V81.1396C326.743 80.7021 326.709 80.3558 326.641 80.1006C326.572 79.8408 326.447 79.6471 326.265 79.5195C326.082 79.3919 325.818 79.3281 325.472 79.3281C325.39 79.3281 325.328 79.3304 325.287 79.335C325.014 79.3441 324.699 79.4147 324.344 79.5469C323.993 79.6745 323.669 79.8454 323.373 80.0596V86H321.869V78.2207H323.209ZM330.072 82.0352C330.072 81.2012 330.225 80.4902 330.53 79.9023C330.836 79.3099 331.257 78.861 331.795 78.5557C332.333 78.2503 332.943 78.0977 333.627 78.0977C334.415 78.0977 335.065 78.2799 335.575 78.6445C336.086 79.0091 336.459 79.4967 336.696 80.1074C336.933 80.7181 337.052 81.4062 337.052 82.1719C337.052 83.0059 336.899 83.7191 336.594 84.3115C336.288 84.904 335.867 85.3529 335.329 85.6582C334.791 85.959 334.178 86.1094 333.49 86.1094C332.706 86.1094 332.059 85.9271 331.549 85.5625C331.038 85.1979 330.665 84.7103 330.428 84.0996C330.191 83.4889 330.072 82.8008 330.072 82.0352ZM335.527 82.1992C335.527 81.6159 335.454 81.0986 335.309 80.6475C335.167 80.1917 334.949 79.834 334.652 79.5742C334.356 79.3099 333.985 79.1777 333.538 79.1777C332.905 79.1777 332.422 79.4193 332.089 79.9023C331.761 80.3809 331.597 81.0667 331.597 81.96C331.597 82.5387 331.67 83.0628 331.815 83.5322C331.961 83.9971 332.182 84.3662 332.479 84.6396C332.775 84.9085 333.142 85.043 333.579 85.043C334.213 85.043 334.696 84.7946 335.028 84.2979C335.361 83.8011 335.527 83.1016 335.527 82.1992ZM346.923 78.0977C347.488 78.0977 348.003 78.2367 348.468 78.5146C348.933 78.7881 349.304 79.2051 349.582 79.7656C349.86 80.3216 349.999 81.0052 349.999 81.8164C349.999 82.6504 349.837 83.3932 349.514 84.0449C349.19 84.6966 348.732 85.2048 348.14 85.5693C347.552 85.9294 346.87 86.1094 346.096 86.1094C345.631 86.1094 345.205 86.0433 344.817 85.9111L344.838 86.9502V89.459H343.334V78.207H344.694V79.0479C344.95 78.779 345.246 78.5534 345.583 78.3711C345.92 78.1888 346.367 78.0977 346.923 78.0977ZM348.468 81.9463C348.468 81.0485 348.299 80.3809 347.962 79.9434C347.629 79.5013 347.144 79.2803 346.506 79.2803C346.173 79.2803 345.866 79.3441 345.583 79.4717C345.305 79.5947 345.057 79.7428 344.838 79.916V84.667C344.979 84.79 345.161 84.8789 345.385 84.9336C345.613 84.9883 345.897 85.0156 346.239 85.0156C346.668 85.0156 347.05 84.8971 347.388 84.6602C347.725 84.4232 347.989 84.0745 348.181 83.6143C348.372 83.154 348.468 82.598 348.468 81.9463ZM354.518 78.0908C355.119 78.0908 355.62 78.1592 356.021 78.2959C356.423 78.4326 356.735 78.6833 356.958 79.0479C357.181 79.4079 357.293 79.916 357.293 80.5723V86.1094H356.678C356.473 86.1094 356.318 86.0957 356.213 86.0684C356.108 86.041 356.026 85.9772 355.967 85.877C355.908 85.7767 355.878 85.6172 355.878 85.3984V85.3438C355.65 85.5534 355.336 85.7334 354.935 85.8838C354.538 86.0342 354.123 86.1094 353.69 86.1094C353.23 86.1094 352.818 86.0205 352.453 85.8428C352.093 85.665 351.811 85.4121 351.605 85.084C351.405 84.7513 351.305 84.3617 351.305 83.915C351.305 83.4229 351.437 82.9967 351.701 82.6367C351.97 82.2767 352.344 81.9987 352.822 81.8027C353.246 81.6341 353.725 81.5088 354.258 81.4268C354.796 81.3402 355.306 81.2969 355.789 81.2969V80.5107C355.789 80.1462 355.73 79.8727 355.611 79.6904C355.497 79.5081 355.324 79.3851 355.092 79.3213C354.859 79.2575 354.538 79.2256 354.128 79.2256C353.909 79.2256 353.656 79.2552 353.369 79.3145C353.087 79.3737 352.82 79.4489 352.569 79.54C352.323 79.6266 352.141 79.7109 352.022 79.793L351.653 78.8086C351.772 78.7357 351.986 78.6423 352.296 78.5283C352.61 78.4144 352.966 78.3141 353.362 78.2275C353.763 78.1364 354.148 78.0908 354.518 78.0908ZM354.135 84.9883C354.349 84.9883 354.575 84.9564 354.812 84.8926C355.049 84.8288 355.256 84.7536 355.434 84.667C355.616 84.5758 355.734 84.4984 355.789 84.4346V82.2539C355.456 82.2539 355.08 82.2858 354.661 82.3496C354.246 82.4134 353.911 82.5068 353.656 82.6299C353.378 82.762 353.164 82.917 353.014 83.0947C352.863 83.2725 352.788 83.5026 352.788 83.7852C352.788 84.5872 353.237 84.9883 354.135 84.9883ZM361.224 78.2207V86H359.72V78.2207H361.224ZM359.433 75.8691C359.433 75.6777 359.485 75.5 359.59 75.3359C359.699 75.1719 359.84 75.042 360.014 74.9463C360.187 74.8506 360.362 74.8027 360.54 74.8027C360.85 74.8027 361.087 74.8893 361.251 75.0625C361.42 75.2357 361.504 75.4567 361.504 75.7256C361.504 75.9261 361.451 76.1084 361.347 76.2725C361.242 76.4365 361.105 76.5641 360.937 76.6553C360.768 76.7464 360.588 76.792 360.396 76.792C360.223 76.792 360.064 76.7555 359.918 76.6826C359.772 76.6051 359.654 76.4958 359.562 76.3545C359.476 76.2132 359.433 76.0514 359.433 75.8691ZM365.086 78.2207L365.093 79.041C365.448 78.7995 365.888 78.5807 366.412 78.3848C366.941 78.1888 367.444 78.0908 367.923 78.0908C368.461 78.0908 368.889 78.1911 369.208 78.3916C369.527 78.5921 369.759 78.9134 369.905 79.3555C370.051 79.7975 370.124 80.3945 370.124 81.1465V86H368.62V81.1396C368.62 80.7021 368.586 80.3558 368.518 80.1006C368.449 79.8408 368.324 79.6471 368.142 79.5195C367.959 79.3919 367.695 79.3281 367.349 79.3281C367.267 79.3281 367.205 79.3304 367.164 79.335C366.891 79.3441 366.576 79.4147 366.221 79.5469C365.87 79.6745 365.546 79.8454 365.25 80.0596V86H363.746V78.2207H365.086ZM378.307 81.0371C378.307 81.4062 378.302 81.6934 378.293 81.8984C378.284 82.099 378.263 82.2767 378.231 82.4316H373.426C373.43 82.4635 373.433 82.5091 373.433 82.5684C373.51 84.1725 374.303 84.9746 375.812 84.9746C376.085 84.9746 376.431 84.9313 376.851 84.8447C377.27 84.7581 377.571 84.6602 377.753 84.5508L378.04 85.4121C377.789 85.6172 377.409 85.7858 376.898 85.918C376.388 86.0456 375.891 86.1094 375.408 86.1094C374.674 86.1094 374.05 85.9521 373.535 85.6377C373.02 85.3187 372.628 84.8584 372.359 84.2568C372.09 83.6553 371.956 82.9329 371.956 82.0898C371.956 81.3242 372.088 80.6429 372.353 80.0459C372.621 79.4489 373.016 78.9795 373.535 78.6377C374.059 78.2913 374.693 78.1113 375.436 78.0977C375.96 78.0885 376.436 78.1956 376.864 78.4189C377.293 78.6423 377.634 78.9772 377.89 79.4238C378.149 79.8704 378.288 80.4082 378.307 81.0371ZM376.898 81.4336C376.908 81.2878 376.912 81.1807 376.912 81.1123C376.912 80.5335 376.794 80.0641 376.557 79.7041C376.324 79.3441 375.923 79.1641 375.354 79.1641C374.848 79.1641 374.426 79.3441 374.089 79.7041C373.756 80.0596 373.549 80.6361 373.467 81.4336H376.898ZM381.827 74.625V86H380.323V74.625H381.827ZM394.979 74.625V86.1094H394.33C394.152 86.1094 394.009 86.0957 393.899 86.0684C393.795 86.041 393.71 85.984 393.646 85.8975C393.587 85.8109 393.558 85.681 393.558 85.5078V85.2275C393.312 85.4782 393.02 85.6878 392.683 85.8564C392.345 86.0251 391.915 86.1094 391.391 86.1094C390.826 86.1094 390.311 85.9727 389.846 85.6992C389.385 85.4212 389.016 85.0042 388.738 84.4482C388.46 83.8877 388.321 83.2018 388.321 82.3906C388.321 81.5566 388.483 80.8138 388.807 80.1621C389.13 79.5104 389.586 79.0046 390.174 78.6445C390.766 78.2799 391.45 78.0977 392.225 78.0977C392.662 78.0977 393.086 78.1615 393.496 78.2891L393.476 77.8721V74.625H394.979ZM389.853 82.2607C389.853 83.1585 390.019 83.8285 390.352 84.2705C390.689 84.708 391.174 84.9268 391.808 84.9268C392.14 84.9268 392.448 84.8652 392.73 84.7422C393.018 84.6146 393.266 84.4665 393.476 84.2979V79.5332C393.339 79.4147 393.157 79.3281 392.929 79.2734C392.701 79.2188 392.416 79.1914 392.074 79.1914C391.65 79.1914 391.27 79.3099 390.933 79.5469C390.595 79.7839 390.331 80.1348 390.14 80.5996C389.948 81.0599 389.853 81.6136 389.853 82.2607ZM396.777 82.0352C396.777 81.2012 396.93 80.4902 397.235 79.9023C397.541 79.3099 397.962 78.861 398.5 78.5557C399.038 78.2503 399.648 78.0977 400.332 78.0977C401.12 78.0977 401.77 78.2799 402.28 78.6445C402.791 79.0091 403.164 79.4967 403.401 80.1074C403.638 80.7181 403.757 81.4062 403.757 82.1719C403.757 83.0059 403.604 83.7191 403.299 84.3115C402.993 84.904 402.572 85.3529 402.034 85.6582C401.496 85.959 400.883 86.1094 400.195 86.1094C399.411 86.1094 398.764 85.9271 398.254 85.5625C397.743 85.1979 397.37 84.7103 397.133 84.0996C396.896 83.4889 396.777 82.8008 396.777 82.0352ZM402.232 82.1992C402.232 81.6159 402.16 81.0986 402.014 80.6475C401.872 80.1917 401.654 79.834 401.357 79.5742C401.061 79.3099 400.69 79.1777 400.243 79.1777C399.61 79.1777 399.127 79.4193 398.794 79.9023C398.466 80.3809 398.302 81.0667 398.302 81.96C398.302 82.5387 398.375 83.0628 398.521 83.5322C398.666 83.9971 398.887 84.3662 399.184 84.6396C399.48 84.9085 399.847 85.043 400.284 85.043C400.918 85.043 401.401 84.7946 401.733 84.2979C402.066 83.8011 402.232 83.1016 402.232 82.1992ZM38.4785 98.207L35.4844 106.109H34.2197L31.1299 98.207H32.75L34.2949 102.644L34.8691 104.503L35.3955 102.644L36.8789 98.207H38.4785ZM45.6289 101.037C45.6289 101.406 45.6243 101.693 45.6152 101.898C45.6061 102.099 45.5856 102.277 45.5537 102.432H40.748C40.7526 102.464 40.7549 102.509 40.7549 102.568C40.8324 104.173 41.6253 104.975 43.1338 104.975C43.4072 104.975 43.7536 104.931 44.1729 104.845C44.5921 104.758 44.8929 104.66 45.0752 104.551L45.3623 105.412C45.1117 105.617 44.7311 105.786 44.2207 105.918C43.7103 106.046 43.2135 106.109 42.7305 106.109C41.9967 106.109 41.3724 105.952 40.8574 105.638C40.3424 105.319 39.9505 104.858 39.6816 104.257C39.4128 103.655 39.2783 102.933 39.2783 102.09C39.2783 101.324 39.4105 100.643 39.6748 100.046C39.9437 99.4489 40.3379 98.9795 40.8574 98.6377C41.3815 98.2913 42.015 98.1113 42.7578 98.0977C43.2819 98.0885 43.7581 98.1956 44.1865 98.4189C44.6149 98.6423 44.9567 98.9772 45.2119 99.4238C45.4717 99.8704 45.6107 100.408 45.6289 101.037ZM44.2207 101.434C44.2298 101.288 44.2344 101.181 44.2344 101.112C44.2344 100.534 44.1159 100.064 43.8789 99.7041C43.6465 99.3441 43.2454 99.1641 42.6758 99.1641C42.1699 99.1641 41.7484 99.3441 41.4111 99.7041C41.0785 100.06 40.8711 100.636 40.7891 101.434H44.2207ZM47.625 96.3818C48.1673 95.7848 48.5934 95.3063 48.9033 94.9463C49.2178 94.5817 49.514 94.2035 49.792 93.8115L50.8584 94.7344C50.749 94.9167 50.5143 95.1924 50.1543 95.5615C49.7943 95.9261 49.4251 96.2679 49.0469 96.5869C48.6686 96.9059 48.3997 97.0951 48.2402 97.1543L47.4814 96.5391L47.625 96.3818ZM49.1221 98.2207V106H47.6182V98.2207H49.1221ZM54.8711 98.0977C55.3132 98.0977 55.7051 98.141 56.0469 98.2275C56.3887 98.3096 56.6348 98.4007 56.7852 98.501L56.5459 99.6904C56.3363 99.5446 56.0902 99.4375 55.8076 99.3691C55.5251 99.2962 55.1878 99.2598 54.7959 99.2598C54.404 99.2598 54.0371 99.36 53.6953 99.5605C53.3581 99.7611 53.0846 100.076 52.875 100.504C52.6654 100.928 52.5605 101.463 52.5605 102.11C52.5605 102.712 52.6562 103.229 52.8477 103.662C53.0391 104.09 53.3011 104.416 53.6338 104.64C53.9665 104.863 54.3402 104.975 54.7549 104.975C55.1149 104.975 55.4658 104.929 55.8076 104.838C56.1494 104.742 56.4183 104.635 56.6143 104.517L56.9219 105.371C56.6803 105.594 56.3431 105.774 55.9102 105.911C55.4772 106.043 55.0169 106.109 54.5293 106.109C53.8184 106.109 53.2031 105.941 52.6836 105.604C52.1686 105.262 51.7767 104.795 51.5078 104.202C51.2389 103.61 51.1045 102.938 51.1045 102.186C51.1045 101.406 51.2458 100.709 51.5283 100.094C51.8154 99.474 52.2415 98.9863 52.8066 98.6309C53.3717 98.2754 54.0599 98.0977 54.8711 98.0977ZM64.626 98.207V106.109H64.0449C63.8672 106.109 63.7259 106.096 63.6211 106.068C63.5163 106.041 63.4342 105.984 63.375 105.897C63.3203 105.811 63.293 105.681 63.293 105.508V105.316C62.9375 105.531 62.5273 105.717 62.0625 105.877C61.6022 106.032 61.1715 106.109 60.7705 106.109C60.137 106.109 59.6517 105.975 59.3145 105.706C58.9772 105.437 58.7493 105.066 58.6309 104.592C58.5124 104.113 58.4531 103.503 58.4531 102.76V98.207H59.957V102.753C59.957 103.386 60.0026 103.854 60.0938 104.154C60.1895 104.451 60.333 104.644 60.5244 104.735C60.7204 104.826 61.0075 104.872 61.3857 104.872C61.6592 104.872 61.9668 104.813 62.3086 104.694C62.6549 104.576 62.9261 104.453 63.1221 104.325V98.207H64.626ZM68.6865 94.625V106H67.1826V94.625H68.6865ZM70.6895 102.035C70.6895 101.201 70.8421 100.49 71.1475 99.9023C71.4528 99.3099 71.8743 98.861 72.4121 98.5557C72.9499 98.2503 73.5605 98.0977 74.2441 98.0977C75.0326 98.0977 75.682 98.2799 76.1924 98.6445C76.7028 99.0091 77.0765 99.4967 77.3135 100.107C77.5505 100.718 77.6689 101.406 77.6689 102.172C77.6689 103.006 77.5163 103.719 77.2109 104.312C76.9056 104.904 76.484 105.353 75.9463 105.658C75.4085 105.959 74.7956 106.109 74.1074 106.109C73.3236 106.109 72.6764 105.927 72.166 105.562C71.6556 105.198 71.2819 104.71 71.0449 104.1C70.8079 103.489 70.6895 102.801 70.6895 102.035ZM76.1445 102.199C76.1445 101.616 76.0716 101.099 75.9258 100.647C75.7845 100.192 75.5658 99.834 75.2695 99.5742C74.9733 99.3099 74.6019 99.1777 74.1553 99.1777C73.5218 99.1777 73.0387 99.4193 72.7061 99.9023C72.3779 100.381 72.2139 101.067 72.2139 101.96C72.2139 102.539 72.2868 103.063 72.4326 103.532C72.5785 103.997 72.7995 104.366 73.0957 104.64C73.3919 104.909 73.7588 105.043 74.1963 105.043C74.8298 105.043 75.3128 104.795 75.6455 104.298C75.9782 103.801 76.1445 103.102 76.1445 102.199ZM83.5 100.88C83.5 99.7223 83.7119 98.738 84.1357 97.9268C84.5641 97.1156 85.1429 96.5072 85.8721 96.1016C86.6058 95.6914 87.4284 95.4863 88.3398 95.4863C89.2376 95.4863 90.026 95.6982 90.7051 96.1221C91.3887 96.5459 91.9173 97.1475 92.291 97.9268C92.6693 98.7015 92.8584 99.6061 92.8584 100.641C92.8584 101.812 92.651 102.808 92.2363 103.628C91.8216 104.448 91.2497 105.068 90.5205 105.487C89.7959 105.902 88.9642 106.109 88.0254 106.109C87.1185 106.109 86.3232 105.886 85.6396 105.439C84.9561 104.993 84.4274 104.373 84.0537 103.58C83.6846 102.787 83.5 101.887 83.5 100.88ZM91.3135 100.723C91.3135 99.9798 91.1973 99.2985 90.9648 98.6787C90.7324 98.0589 90.3883 97.5667 89.9326 97.2021C89.4814 96.833 88.9346 96.6484 88.292 96.6484C87.6859 96.6484 87.1367 96.8034 86.6445 97.1133C86.1523 97.4186 85.7604 97.8835 85.4688 98.5078C85.1816 99.1322 85.0381 99.9023 85.0381 100.818C85.0381 101.557 85.1589 102.24 85.4004 102.869C85.6419 103.493 85.9997 103.995 86.4736 104.373C86.9476 104.751 87.5173 104.94 88.1826 104.94C88.8161 104.94 89.3675 104.779 89.8369 104.455C90.3109 104.132 90.6755 103.655 90.9307 103.026C91.1859 102.393 91.3135 101.625 91.3135 100.723ZM96.0918 98.2207L96.0986 99.041C96.4541 98.7995 96.8939 98.5807 97.418 98.3848C97.9466 98.1888 98.4502 98.0908 98.9287 98.0908C99.4665 98.0908 99.8949 98.1911 100.214 98.3916C100.533 98.5921 100.765 98.9134 100.911 99.3555C101.057 99.7975 101.13 100.395 101.13 101.146V106H99.626V101.14C99.626 100.702 99.5918 100.356 99.5234 100.101C99.4551 99.8408 99.3298 99.6471 99.1475 99.5195C98.9652 99.3919 98.7008 99.3281 98.3545 99.3281C98.2725 99.3281 98.2109 99.3304 98.1699 99.335C97.8965 99.3441 97.582 99.4147 97.2266 99.5469C96.8757 99.6745 96.5521 99.8454 96.2559 100.06V106H94.752V98.2207H96.0918ZM105.122 98.2207V106H103.618V98.2207H105.122ZM103.331 95.8691C103.331 95.6777 103.383 95.5 103.488 95.3359C103.598 95.1719 103.739 95.042 103.912 94.9463C104.085 94.8506 104.261 94.8027 104.438 94.8027C104.748 94.8027 104.985 94.8893 105.149 95.0625C105.318 95.2357 105.402 95.4567 105.402 95.7256C105.402 95.9261 105.35 96.1084 105.245 96.2725C105.14 96.4365 105.004 96.5641 104.835 96.6553C104.666 96.7464 104.486 96.792 104.295 96.792C104.122 96.792 103.962 96.7555 103.816 96.6826C103.671 96.6051 103.552 96.4958 103.461 96.3545C103.374 96.2132 103.331 96.0514 103.331 95.8691ZM113.961 106H112.218L110.509 103.409L110.276 103.033L110.085 103.43L108.499 106H106.783L109.524 102.042L106.763 98.207H108.472L110.181 100.791L110.352 101.078L110.495 100.777L112.211 98.207H113.899L111.131 102.015L113.961 106ZM115.198 105.091C115.198 104.881 115.251 104.688 115.355 104.51C115.46 104.332 115.597 104.191 115.766 104.086C115.934 103.977 116.112 103.922 116.299 103.922C116.618 103.922 116.864 104.024 117.037 104.229C117.215 104.435 117.304 104.688 117.304 104.988C117.304 105.202 117.251 105.398 117.146 105.576C117.046 105.754 116.91 105.895 116.736 106C116.568 106.1 116.388 106.15 116.196 106.15C116.023 106.15 115.859 106.103 115.704 106.007C115.549 105.916 115.426 105.79 115.335 105.631C115.244 105.467 115.198 105.287 115.198 105.091Z" fill="#837E9F"/>
<path d="M61.584 146.171C60.9824 146.335 60.4743 146.456 60.0596 146.533L59.8887 145.638C60.1667 145.556 60.4811 145.43 60.832 145.262C61.1875 145.089 61.5156 144.909 61.8164 144.722C62.1172 144.535 62.3337 144.382 62.4658 144.264L63.1494 144.435V153H61.584V146.171ZM66.2871 148.693C66.2871 147.814 66.4535 147.041 66.7861 146.376C67.1188 145.706 67.5768 145.191 68.1602 144.831C68.7435 144.471 69.402 144.291 70.1357 144.291C71.4118 144.291 72.3301 144.678 72.8906 145.453C73.4557 146.228 73.7383 147.262 73.7383 148.557C73.7383 149.441 73.5811 150.227 73.2666 150.915C72.9567 151.603 72.5146 152.141 71.9404 152.528C71.3708 152.916 70.7122 153.109 69.9648 153.109C69.1172 153.109 68.4176 152.909 67.8662 152.508C67.3193 152.107 66.9183 151.574 66.6631 150.908C66.4124 150.243 66.2871 149.505 66.2871 148.693ZM72.1865 148.7C72.1865 148.058 72.109 147.486 71.9541 146.984C71.8037 146.479 71.569 146.08 71.25 145.788C70.931 145.492 70.5299 145.344 70.0469 145.344C69.3314 145.339 68.7845 145.622 68.4062 146.191C68.028 146.757 67.8389 147.54 67.8389 148.543C67.8389 149.167 67.9209 149.748 68.085 150.286C68.249 150.819 68.4974 151.25 68.8301 151.578C69.1673 151.906 69.582 152.07 70.0742 152.07C70.7715 152.07 71.2979 151.776 71.6533 151.188C72.0088 150.596 72.1865 149.767 72.1865 148.7ZM75.7617 148.693C75.7617 147.814 75.9281 147.041 76.2607 146.376C76.5934 145.706 77.0514 145.191 77.6348 144.831C78.2181 144.471 78.8766 144.291 79.6104 144.291C80.8864 144.291 81.8047 144.678 82.3652 145.453C82.9303 146.228 83.2129 147.262 83.2129 148.557C83.2129 149.441 83.0557 150.227 82.7412 150.915C82.4313 151.603 81.9893 152.141 81.415 152.528C80.8454 152.916 80.1868 153.109 79.4395 153.109C78.5918 153.109 77.8923 152.909 77.3408 152.508C76.7939 152.107 76.3929 151.574 76.1377 150.908C75.887 150.243 75.7617 149.505 75.7617 148.693ZM81.6611 148.7C81.6611 148.058 81.5837 147.486 81.4287 146.984C81.2783 146.479 81.0436 146.08 80.7246 145.788C80.4056 145.492 80.0046 145.344 79.5215 145.344C78.806 145.339 78.2591 145.622 77.8809 146.191C77.5026 146.757 77.3135 147.54 77.3135 148.543C77.3135 149.167 77.3955 149.748 77.5596 150.286C77.7236 150.819 77.972 151.25 78.3047 151.578C78.6419 151.906 79.0566 152.07 79.5488 152.07C80.2461 152.07 80.7725 151.776 81.1279 151.188C81.4834 150.596 81.6611 149.767 81.6611 148.7Z" fill="#837E9F"/>
<path d="M133.584 146.171C132.982 146.335 132.474 146.456 132.06 146.533L131.889 145.638C132.167 145.556 132.481 145.43 132.832 145.262C133.188 145.089 133.516 144.909 133.816 144.722C134.117 144.535 134.334 144.382 134.466 144.264L135.149 144.435V153H133.584V146.171ZM138.287 148.693C138.287 147.814 138.453 147.041 138.786 146.376C139.119 145.706 139.577 145.191 140.16 144.831C140.743 144.471 141.402 144.291 142.136 144.291C143.412 144.291 144.33 144.678 144.891 145.453C145.456 146.228 145.738 147.262 145.738 148.557C145.738 149.441 145.581 150.227 145.267 150.915C144.957 151.603 144.515 152.141 143.94 152.528C143.371 152.916 142.712 153.109 141.965 153.109C141.117 153.109 140.418 152.909 139.866 152.508C139.319 152.107 138.918 151.574 138.663 150.908C138.412 150.243 138.287 149.505 138.287 148.693ZM144.187 148.7C144.187 148.058 144.109 147.486 143.954 146.984C143.804 146.479 143.569 146.08 143.25 145.788C142.931 145.492 142.53 145.344 142.047 145.344C141.331 145.339 140.785 145.622 140.406 146.191C140.028 146.757 139.839 147.54 139.839 148.543C139.839 149.167 139.921 149.748 140.085 150.286C140.249 150.819 140.497 151.25 140.83 151.578C141.167 151.906 141.582 152.07 142.074 152.07C142.771 152.07 143.298 151.776 143.653 151.188C144.009 150.596 144.187 149.767 144.187 148.7ZM147.762 148.693C147.762 147.814 147.928 147.041 148.261 146.376C148.593 145.706 149.051 145.191 149.635 144.831C150.218 144.471 150.877 144.291 151.61 144.291C152.886 144.291 153.805 144.678 154.365 145.453C154.93 146.228 155.213 147.262 155.213 148.557C155.213 149.441 155.056 150.227 154.741 150.915C154.431 151.603 153.989 152.141 153.415 152.528C152.845 152.916 152.187 153.109 151.439 153.109C150.592 153.109 149.892 152.909 149.341 152.508C148.794 152.107 148.393 151.574 148.138 150.908C147.887 150.243 147.762 149.505 147.762 148.693ZM153.661 148.7C153.661 148.058 153.584 147.486 153.429 146.984C153.278 146.479 153.044 146.08 152.725 145.788C152.406 145.492 152.005 145.344 151.521 145.344C150.806 145.339 150.259 145.622 149.881 146.191C149.503 146.757 149.313 147.54 149.313 148.543C149.313 149.167 149.396 149.748 149.56 150.286C149.724 150.819 149.972 151.25 150.305 151.578C150.642 151.906 151.057 152.07 151.549 152.07C152.246 152.07 152.772 151.776 153.128 151.188C153.483 150.596 153.661 149.767 153.661 148.7Z" fill="#837E9F"/>
<path d="M108 139.5V149.5" stroke="#837E9F" stroke-width="2" stroke-linecap="round" stroke-linejoin="round"/>
<path d="M118 144.5C119.381 144.5 120.5 143.381 120.5 142C120.5 140.619 119.381 139.5 118 139.5C116.619 139.5 115.5 140.619 115.5 142C115.5 143.381 116.619 144.5 118 144.5Z" stroke="#837E9F" stroke-width="2" stroke-linecap="round" stroke-linejoin="round"/>
<path d="M108 154.5C109.381 154.5 110.5 153.381 110.5 152C110.5 150.619 109.381 149.5 108 149.5C106.619 149.5 105.5 150.619 105.5 152C105.5 153.381 106.619 154.5 108 154.5Z" stroke="#837E9F" stroke-width="2" stroke-linecap="round" stroke-linejoin="round"/>
<path d="M118 144.5C118 146.489 117.21 148.397 115.803 149.803C114.397 151.21 112.489 152 110.5 152" stroke="#837E9F" stroke-width="2" stroke-linecap="round" stroke-linejoin="round"/>
<path d="M41 138.667L43.575 143.883L49.3333 144.725L45.1667 148.783L46.15 154.517L41 151.808L35.85 154.517L36.8333 148.783L32.6667 144.725L38.425 143.883L41 138.667Z" stroke="#837E9F" stroke-width="2" stroke-linecap="round" stroke-linejoin="round"/>
<path d="M49.3333 46.8333C49.3333 47.2754 49.1577 47.6993 48.8452 48.0118C48.5326 48.3244 48.1087 48.5 47.6667 48.5H34.3333C33.8913 48.5 33.4674 48.3244 33.1548 48.0118C32.8423 47.6993 32.6667 47.2754 32.6667 46.8333V35.1667C32.6667 34.7246 32.8423 34.3007 33.1548 33.9882C33.4674 33.6756 33.8913 33.5 34.3333 33.5H38.5L40.1667 36H47.6667C48.1087 36 48.5326 36.1756 48.8452 36.4882C49.1577 36.8007 49.3333 37.2246 49.3333 37.6667V46.8333Z" stroke="#837E9F" stroke-width="2" stroke-linecap="round" stroke-linejoin="round"/>
<path d="M362.713 154.47C363.137 154.315 363.526 154.078 363.882 153.759C364.237 153.444 364.481 153.041 364.613 152.549C364.709 152.202 364.768 151.76 364.791 151.223C364.818 150.68 364.832 149.969 364.832 149.09V148.844V142.596H366.377V148.81L366.384 150.272C366.384 150.724 366.375 151.12 366.356 151.462C366.338 151.804 366.302 152.12 366.247 152.412C366.147 152.968 365.93 153.451 365.598 153.861C365.27 154.271 364.889 154.593 364.456 154.825C364.023 155.058 363.597 155.206 363.178 155.27L362.713 154.47ZM371.736 145.091C372.338 145.091 372.839 145.159 373.24 145.296C373.641 145.433 373.953 145.683 374.177 146.048C374.4 146.408 374.512 146.916 374.512 147.572V153.109H373.896C373.691 153.109 373.536 153.096 373.432 153.068C373.327 153.041 373.245 152.977 373.186 152.877C373.126 152.777 373.097 152.617 373.097 152.398V152.344C372.869 152.553 372.554 152.733 372.153 152.884C371.757 153.034 371.342 153.109 370.909 153.109C370.449 153.109 370.036 153.021 369.672 152.843C369.312 152.665 369.029 152.412 368.824 152.084C368.624 151.751 368.523 151.362 368.523 150.915C368.523 150.423 368.656 149.997 368.92 149.637C369.189 149.277 369.562 148.999 370.041 148.803C370.465 148.634 370.943 148.509 371.477 148.427C372.014 148.34 372.525 148.297 373.008 148.297V147.511C373.008 147.146 372.949 146.873 372.83 146.69C372.716 146.508 372.543 146.385 372.311 146.321C372.078 146.257 371.757 146.226 371.347 146.226C371.128 146.226 370.875 146.255 370.588 146.314C370.305 146.374 370.039 146.449 369.788 146.54C369.542 146.627 369.36 146.711 369.241 146.793L368.872 145.809C368.991 145.736 369.205 145.642 369.515 145.528C369.829 145.414 370.185 145.314 370.581 145.228C370.982 145.136 371.367 145.091 371.736 145.091ZM371.354 151.988C371.568 151.988 371.793 151.956 372.03 151.893C372.267 151.829 372.475 151.754 372.652 151.667C372.835 151.576 372.953 151.498 373.008 151.435V149.254C372.675 149.254 372.299 149.286 371.88 149.35C371.465 149.413 371.13 149.507 370.875 149.63C370.597 149.762 370.383 149.917 370.232 150.095C370.082 150.272 370.007 150.503 370.007 150.785C370.007 151.587 370.456 151.988 371.354 151.988ZM383.098 145.207L380.104 153.109H378.839L375.749 145.207H377.369L378.914 149.644L379.488 151.503L380.015 149.644L381.498 145.207H383.098ZM387.09 145.091C387.691 145.091 388.193 145.159 388.594 145.296C388.995 145.433 389.307 145.683 389.53 146.048C389.754 146.408 389.865 146.916 389.865 147.572V153.109H389.25C389.045 153.109 388.89 153.096 388.785 153.068C388.68 153.041 388.598 152.977 388.539 152.877C388.48 152.777 388.45 152.617 388.45 152.398V152.344C388.222 152.553 387.908 152.733 387.507 152.884C387.11 153.034 386.696 153.109 386.263 153.109C385.802 153.109 385.39 153.021 385.025 152.843C384.665 152.665 384.383 152.412 384.178 152.084C383.977 151.751 383.877 151.362 383.877 150.915C383.877 150.423 384.009 149.997 384.273 149.637C384.542 149.277 384.916 148.999 385.395 148.803C385.818 148.634 386.297 148.509 386.83 148.427C387.368 148.34 387.878 148.297 388.361 148.297V147.511C388.361 147.146 388.302 146.873 388.184 146.69C388.07 146.508 387.896 146.385 387.664 146.321C387.432 146.257 387.11 146.226 386.7 146.226C386.481 146.226 386.229 146.255 385.941 146.314C385.659 146.374 385.392 146.449 385.142 146.54C384.896 146.627 384.713 146.711 384.595 146.793L384.226 145.809C384.344 145.736 384.558 145.642 384.868 145.528C385.183 145.414 385.538 145.314 385.935 145.228C386.336 145.136 386.721 145.091 387.09 145.091ZM386.707 151.988C386.921 151.988 387.147 151.956 387.384 151.893C387.621 151.829 387.828 151.754 388.006 151.667C388.188 151.576 388.307 151.498 388.361 151.435V149.254C388.029 149.254 387.653 149.286 387.233 149.35C386.819 149.413 386.484 149.507 386.229 149.63C385.951 149.762 385.736 149.917 385.586 150.095C385.436 150.272 385.36 150.503 385.36 150.785C385.36 151.587 385.809 151.988 386.707 151.988ZM392.21 151.264C392.488 151.437 392.855 151.587 393.311 151.715C393.766 151.838 394.217 151.899 394.664 151.899C395.339 151.899 395.851 151.783 396.202 151.551C396.558 151.318 396.735 150.954 396.735 150.457C396.735 150.129 396.649 149.849 396.476 149.616C396.307 149.384 396.072 149.176 395.771 148.994C395.471 148.812 395.024 148.577 394.432 148.29C393.671 147.921 393.046 147.479 392.559 146.964C392.071 146.449 391.827 145.847 391.827 145.159C391.827 144.53 391.991 144.018 392.319 143.621C392.647 143.22 393.071 142.931 393.591 142.753C394.11 142.575 394.675 142.486 395.286 142.486C395.856 142.486 396.346 142.541 396.756 142.65C397.166 142.755 397.483 142.881 397.706 143.026L397.398 144.229C397.102 144.052 396.799 143.917 396.489 143.826C396.179 143.73 395.771 143.683 395.266 143.683C394.919 143.683 394.596 143.728 394.295 143.819C393.994 143.91 393.75 144.052 393.563 144.243C393.377 144.435 393.283 144.672 393.283 144.954C393.283 145.287 393.349 145.565 393.481 145.788C393.614 146.007 393.816 146.21 394.09 146.396C394.368 146.579 394.789 146.816 395.354 147.107C395.938 147.408 396.425 147.693 396.817 147.962C397.214 148.226 397.549 148.552 397.822 148.939C398.096 149.327 398.232 149.773 398.232 150.279C398.232 150.904 398.087 151.428 397.795 151.852C397.508 152.275 397.104 152.592 396.585 152.802C396.065 153.007 395.459 153.109 394.767 153.109C394.338 153.109 393.924 153.077 393.522 153.014C393.126 152.95 392.78 152.872 392.483 152.781C392.192 152.69 391.98 152.601 391.848 152.515L392.21 151.264ZM403.141 145.098C403.583 145.098 403.975 145.141 404.316 145.228C404.658 145.31 404.904 145.401 405.055 145.501L404.815 146.69C404.606 146.545 404.36 146.438 404.077 146.369C403.795 146.296 403.457 146.26 403.065 146.26C402.674 146.26 402.307 146.36 401.965 146.561C401.628 146.761 401.354 147.076 401.145 147.504C400.935 147.928 400.83 148.463 400.83 149.11C400.83 149.712 400.926 150.229 401.117 150.662C401.309 151.09 401.571 151.416 401.903 151.64C402.236 151.863 402.61 151.975 403.024 151.975C403.384 151.975 403.735 151.929 404.077 151.838C404.419 151.742 404.688 151.635 404.884 151.517L405.191 152.371C404.95 152.594 404.613 152.774 404.18 152.911C403.747 153.043 403.286 153.109 402.799 153.109C402.088 153.109 401.473 152.941 400.953 152.604C400.438 152.262 400.046 151.795 399.777 151.202C399.508 150.61 399.374 149.938 399.374 149.186C399.374 148.406 399.515 147.709 399.798 147.094C400.085 146.474 400.511 145.986 401.076 145.631C401.641 145.275 402.329 145.098 403.141 145.098ZM410.182 145.091C410.546 145.091 410.799 145.123 410.94 145.187V146.595C410.845 146.54 410.719 146.497 410.564 146.465C410.414 146.428 410.198 146.41 409.915 146.41C409.569 146.41 409.247 146.474 408.951 146.602C408.66 146.725 408.413 146.875 408.213 147.053V153H406.709V145.221H407.974L408.076 146.082C408.176 145.945 408.338 145.799 408.562 145.645C408.789 145.49 409.047 145.36 409.334 145.255C409.626 145.146 409.908 145.091 410.182 145.091ZM413.989 145.221V153H412.485V145.221H413.989ZM412.198 142.869C412.198 142.678 412.251 142.5 412.355 142.336C412.465 142.172 412.606 142.042 412.779 141.946C412.952 141.851 413.128 141.803 413.306 141.803C413.616 141.803 413.853 141.889 414.017 142.062C414.185 142.236 414.27 142.457 414.27 142.726C414.27 142.926 414.217 143.108 414.112 143.272C414.007 143.437 413.871 143.564 413.702 143.655C413.534 143.746 413.354 143.792 413.162 143.792C412.989 143.792 412.829 143.756 412.684 143.683C412.538 143.605 412.419 143.496 412.328 143.354C412.242 143.213 412.198 143.051 412.198 142.869ZM420.032 145.098C420.597 145.098 421.112 145.237 421.577 145.515C422.042 145.788 422.413 146.205 422.691 146.766C422.969 147.322 423.108 148.005 423.108 148.816C423.108 149.65 422.947 150.393 422.623 151.045C422.299 151.697 421.841 152.205 421.249 152.569C420.661 152.929 419.98 153.109 419.205 153.109C418.74 153.109 418.314 153.043 417.927 152.911L417.947 153.95V156.459H416.443V145.207H417.804V146.048C418.059 145.779 418.355 145.553 418.692 145.371C419.03 145.189 419.476 145.098 420.032 145.098ZM421.577 148.946C421.577 148.049 421.409 147.381 421.071 146.943C420.739 146.501 420.253 146.28 419.615 146.28C419.283 146.28 418.975 146.344 418.692 146.472C418.414 146.595 418.166 146.743 417.947 146.916V151.667C418.089 151.79 418.271 151.879 418.494 151.934C418.722 151.988 419.007 152.016 419.349 152.016C419.777 152.016 420.16 151.897 420.497 151.66C420.834 151.423 421.099 151.075 421.29 150.614C421.481 150.154 421.577 149.598 421.577 148.946ZM425.33 146.342H424.318V145.528L424.564 145.46C424.774 145.401 424.929 145.353 425.029 145.316C425.13 145.275 425.216 145.221 425.289 145.152C425.367 145.079 425.428 144.981 425.474 144.858C425.542 144.685 425.642 144.373 425.774 143.922L425.925 143.43H426.827V145.207H429.028V146.342H426.827V150.286C426.827 150.806 426.848 151.175 426.889 151.394C426.93 151.608 427.005 151.747 427.114 151.811C427.228 151.874 427.42 151.906 427.688 151.906C427.884 151.906 428.121 151.874 428.399 151.811C428.682 151.747 428.889 151.681 429.021 151.612L429.281 152.474C429.058 152.638 428.737 152.786 428.317 152.918C427.903 153.046 427.506 153.109 427.128 153.109C426.558 153.109 426.116 152.968 425.802 152.686C425.487 152.398 425.33 151.881 425.33 151.134V146.342Z" fill="#837E9F"/>
<circle cx="347.5" cy="146.5" r="6.5" fill="#E7DE79" stroke="#837E9F" stroke-width="2"/>
<defs>
<filter id="filter0_d_205_44" x="0" y="0" width="467" height="192" filterUnits="userSpaceOnUse" color-interpolation-filters="sRGB">
<feFlood flood-opacity="0" result="BackgroundImageFix"/>
<feColorMatrix in="SourceAlpha" type="matrix" values="0 0 0 0 0 0 0 0 0 0 0 0 0 0 0 0 0 0 127 0" result="hardAlpha"/>
<feMorphology radius="1" operator="dilate" in="SourceAlpha" result="effect1_dropShadow_205_44"/>
<feOffset dx="2" dy="2"/>
<feGaussianBlur stdDeviation="1"/>
<feComposite in2="hardAlpha" operator="out"/>
<feColorMatrix type="matrix" values="0 0 0 0 0 0 0 0 0 0 0 0 0 0 0 0 0 0 0.2 0"/>
<feBlend mode="normal" in2="BackgroundImageFix" result="effect1_dropShadow_205_44"/>
<feBlend mode="normal" in="SourceGraphic" in2="effect1_dropShadow_205_44" result="shape"/>
</filter>
</defs>
</svg>
