<svg width="958" height="92" viewBox="0 0 958 92" fill="none" xmlns="http://www.w3.org/2000/svg">
<g filter="url(#filter0_d_203_26)">
<rect x="1" y="1" width="952" height="86" rx="20" fill="#302F3D"/>
</g>
<path d="M44.4863 51H41.0293C40.9642 50.9089 40.8991 50.8014 40.834 50.6777C40.7689 50.5475 40.6973 50.3945 40.6191 50.2188L40.4824 49.9258C40.3717 49.6914 40.2676 49.4473 40.1699 49.1934C40.0788 48.9329 39.9616 48.5879 39.8184 48.1582C39.6165 47.5397 39.4375 47.0449 39.2812 46.6738C39.1315 46.2962 38.9427 45.9805 38.7148 45.7266C38.487 45.4727 38.2168 45.3457 37.9043 45.3457C37.2402 45.3717 36.5859 45.3848 35.9414 45.3848V51H32.8359V36.1367H34.2715C34.6035 36.1367 34.9844 36.1172 35.4141 36.0781C35.7721 36.0521 36.1888 36.0293 36.6641 36.0098C37.1393 35.9902 37.6569 35.9805 38.2168 35.9805C39.7988 35.9805 41.0846 36.3255 42.0742 37.0156C43.0703 37.6992 43.5684 38.8516 43.5684 40.4727C43.5684 41.638 43.3568 42.569 42.9336 43.2656C42.5169 43.9622 41.9049 44.4701 41.0977 44.7891C41.4427 45.082 41.7422 45.4661 41.9961 45.9414C42.2565 46.4167 42.5625 47.0645 42.9141 47.8848C43.2917 48.7962 43.6107 49.4766 43.8711 49.9258L44.4863 51ZM35.9414 43.1484C36.2669 43.1875 36.9473 43.207 37.9824 43.207C38.8613 43.207 39.5091 42.9564 39.9258 42.4551C40.3424 41.9538 40.5508 41.3223 40.5508 40.5605C40.5508 40.1178 40.4792 39.7337 40.3359 39.4082C40.1992 39.0762 39.9323 38.8092 39.5352 38.6074C39.138 38.3991 38.5749 38.2949 37.8457 38.2949C37.071 38.2949 36.4362 38.3535 35.9414 38.4707V43.1484ZM55.6973 44.0762C55.6973 45.0137 55.6615 45.7103 55.5898 46.166H49.0078C49.0664 47.084 49.3529 47.7676 49.8672 48.2168C50.388 48.666 51.0911 48.8906 51.9766 48.8906C52.3997 48.8906 52.9108 48.8353 53.5098 48.7246C54.1152 48.6074 54.5579 48.4707 54.8379 48.3145L55.3359 50.043C54.9518 50.3555 54.3757 50.6191 53.6074 50.834C52.8392 51.0488 52.0384 51.1562 51.2051 51.1562C50.0853 51.1562 49.1315 50.9284 48.3438 50.4727C47.556 50.0169 46.9603 49.3594 46.5566 48.5C46.153 47.6341 45.9512 46.599 45.9512 45.3945C45.9512 44.3008 46.1628 43.3242 46.5859 42.4648C47.0091 41.6055 47.6243 40.9316 48.4316 40.4434C49.2454 39.9551 50.2122 39.7109 51.332 39.7109C52.1393 39.7109 52.8685 39.8574 53.5195 40.1504C54.1706 40.4434 54.6914 40.9154 55.082 41.5664C55.4792 42.2174 55.6842 43.054 55.6973 44.0762ZM52.8652 44.4766C52.8717 44.3789 52.875 44.2357 52.875 44.0469C52.875 43.3372 52.7415 42.8001 52.4746 42.4355C52.2077 42.0645 51.7747 41.8789 51.1758 41.8789C50.5768 41.8789 50.0983 42.0775 49.7402 42.4746C49.3887 42.8652 49.1608 43.5326 49.0566 44.4766H52.8652ZM63.1289 39.7109C63.7865 39.7109 64.3822 39.7695 64.916 39.8867C65.4499 39.9974 65.8177 40.1276 66.0195 40.2773L65.6387 42.6309C65.3587 42.4811 65.0462 42.3737 64.7012 42.3086C64.3626 42.237 63.9427 42.2012 63.4414 42.2012C62.9727 42.2012 62.5267 42.3021 62.1035 42.5039C61.6803 42.6992 61.3288 43.0215 61.0488 43.4707C60.7689 43.9134 60.6191 44.4863 60.5996 45.1895C60.5801 45.9642 60.6842 46.6152 60.9121 47.1426C61.14 47.6699 61.4622 48.0638 61.8789 48.3242C62.3021 48.5781 62.7839 48.7051 63.3242 48.7051C63.8125 48.7051 64.278 48.6628 64.7207 48.5781C65.1699 48.487 65.5117 48.3763 65.7461 48.2461L66.1855 50.0527C65.8405 50.3848 65.3587 50.6517 64.7402 50.8535C64.1217 51.0553 63.4642 51.1562 62.7676 51.1562C61.6478 51.1562 60.6973 50.9186 59.916 50.4434C59.1348 49.9616 58.5488 49.3008 58.1582 48.4609C57.7676 47.6146 57.5723 46.651 57.5723 45.5703C57.5723 44.4505 57.7773 43.4479 58.1875 42.5625C58.5977 41.6771 59.2194 40.9805 60.0527 40.4727C60.8861 39.9648 61.9115 39.7109 63.1289 39.7109ZM77.5527 44.0762C77.5527 45.0137 77.5169 45.7103 77.4453 46.166H70.8633C70.9219 47.084 71.2083 47.7676 71.7227 48.2168C72.2435 48.666 72.9466 48.8906 73.832 48.8906C74.2552 48.8906 74.7663 48.8353 75.3652 48.7246C75.9707 48.6074 76.4134 48.4707 76.6934 48.3145L77.1914 50.043C76.8073 50.3555 76.2311 50.6191 75.4629 50.834C74.6947 51.0488 73.8939 51.1562 73.0605 51.1562C71.9408 51.1562 70.987 50.9284 70.1992 50.4727C69.4115 50.0169 68.8158 49.3594 68.4121 48.5C68.0085 47.6341 67.8066 46.599 67.8066 45.3945C67.8066 44.3008 68.0182 43.3242 68.4414 42.4648C68.8646 41.6055 69.4798 40.9316 70.2871 40.4434C71.1009 39.9551 72.0677 39.7109 73.1875 39.7109C73.9948 39.7109 74.724 39.8574 75.375 40.1504C76.026 40.4434 76.5469 40.9154 76.9375 41.5664C77.3346 42.2174 77.5397 43.054 77.5527 44.0762ZM74.7207 44.4766C74.7272 44.3789 74.7305 44.2357 74.7305 44.0469C74.7305 43.3372 74.597 42.8001 74.3301 42.4355C74.0632 42.0645 73.6302 41.8789 73.0312 41.8789C72.4323 41.8789 71.9538 42.0775 71.5957 42.4746C71.2441 42.8652 71.0163 43.5326 70.9121 44.4766H74.7207ZM82.9629 39.8672L83.0215 41.0586C83.4707 40.7201 84.0306 40.4108 84.7012 40.1309C85.3717 39.8509 86.0195 39.7012 86.6445 39.6816C87.4453 39.6556 88.0996 39.7826 88.6074 40.0625C89.1152 40.3359 89.4928 40.7949 89.7402 41.4395C89.9941 42.0775 90.1211 42.9368 90.1211 44.0176V51H87.0742V44.6719C87.0742 44.0404 87.0254 43.5521 86.9277 43.207C86.8301 42.8555 86.6641 42.6048 86.4297 42.4551C86.1953 42.3053 85.8633 42.237 85.4336 42.25C85.1081 42.2565 84.7402 42.3314 84.3301 42.4746C83.9199 42.6178 83.5586 42.8262 83.2461 43.0996V51H80.1992V39.8672H82.9629ZM93.7637 41.9766H92.4258V40.3262C92.8555 40.2025 93.1647 40.1081 93.3535 40.043C93.5488 39.9714 93.7214 39.877 93.8711 39.7598C94.0208 39.6361 94.138 39.4733 94.2227 39.2715C94.3594 38.946 94.6035 38.2982 94.9551 37.3281H96.8105V39.8672H99.8281V41.9766H96.8105V46.4492C96.8105 47.1914 96.8496 47.7318 96.9277 48.0703C97.0059 48.4089 97.1296 48.627 97.2988 48.7246C97.4681 48.8158 97.7285 48.8613 98.0801 48.8613C98.3535 48.8613 98.666 48.8158 99.0176 48.7246C99.3757 48.627 99.6393 48.5163 99.8086 48.3926L100.18 50.1016C99.8737 50.375 99.4147 50.6191 98.8027 50.834C98.1973 51.0488 97.543 51.1562 96.8398 51.1562C96.0911 51.1562 95.4922 51.0423 95.043 50.8145C94.6003 50.5801 94.2747 50.2122 94.0664 49.7109C93.8646 49.2031 93.7637 48.5293 93.7637 47.6895V41.9766ZM109.945 36.1367C110.538 36.1367 111.322 36.1107 112.299 36.0586C113.21 36.0065 113.887 35.9805 114.33 35.9805C116.094 35.9805 117.439 36.3906 118.363 37.2109C119.294 38.0312 119.76 39.3301 119.76 41.1074C119.76 42.2402 119.529 43.2103 119.066 44.0176C118.611 44.8249 117.937 45.4401 117.045 45.8633C116.16 46.2865 115.082 46.498 113.812 46.498C113.135 46.498 112.569 46.4915 112.113 46.4785V51H109.008V36.1367H109.945ZM113.734 44.1445C114.607 44.1445 115.313 43.9134 115.854 43.4512C116.4 42.9889 116.674 42.1947 116.674 41.0684C116.674 40.1243 116.42 39.4082 115.912 38.9199C115.404 38.4251 114.669 38.1973 113.705 38.2363C113.327 38.2493 113.018 38.2656 112.777 38.2852C112.543 38.2982 112.322 38.3275 112.113 38.373V44.0664C112.536 44.1185 113.077 44.1445 113.734 44.1445ZM121.391 45.3262C121.391 44.1348 121.625 43.1191 122.094 42.2793C122.562 41.4329 123.214 40.7949 124.047 40.3652C124.88 39.929 125.837 39.7109 126.918 39.7109C128.148 39.7109 129.161 39.9714 129.955 40.4922C130.749 41.0065 131.326 41.6999 131.684 42.5723C132.048 43.4382 132.23 44.418 132.23 45.5117C132.23 46.7096 131.996 47.7318 131.527 48.5781C131.059 49.4245 130.408 50.0658 129.574 50.502C128.741 50.9382 127.787 51.1562 126.713 51.1562C125.476 51.1562 124.46 50.8958 123.666 50.375C122.872 49.8542 122.292 49.1576 121.928 48.2852C121.57 47.4062 121.391 46.4199 121.391 45.3262ZM129.076 45.5215C129.076 44.4798 128.891 43.6139 128.52 42.9238C128.148 42.2272 127.585 41.8789 126.83 41.8789C125.307 41.8789 124.545 43.0117 124.545 45.2773C124.545 45.9609 124.623 46.5859 124.779 47.1523C124.942 47.7122 125.193 48.1615 125.531 48.5C125.876 48.8385 126.306 49.0078 126.82 49.0078C128.324 49.0078 129.076 47.8457 129.076 45.5215ZM134.604 48.0312C134.727 48.1289 134.958 48.2493 135.297 48.3926C135.635 48.5293 136.026 48.6497 136.469 48.7539C136.918 48.8581 137.361 48.9102 137.797 48.9102C138.402 48.9167 138.845 48.8483 139.125 48.7051C139.405 48.5618 139.545 48.321 139.545 47.9824C139.545 47.6699 139.35 47.3867 138.959 47.1328C138.575 46.8789 137.966 46.6152 137.133 46.3418C136.143 46.0163 135.427 45.5736 134.984 45.0137C134.548 44.4538 134.33 43.7637 134.33 42.9434C134.33 42.2533 134.519 41.6673 134.896 41.1855C135.281 40.6973 135.811 40.3294 136.488 40.082C137.165 39.8346 137.943 39.7109 138.822 39.7109C139.532 39.7109 140.167 39.7793 140.727 39.916C141.286 40.0527 141.697 40.196 141.957 40.3457L141.625 42.6895C141.404 42.4876 141.046 42.3118 140.551 42.1621C140.062 42.0124 139.587 41.9375 139.125 41.9375C138.461 41.9375 137.979 42.0091 137.68 42.1523C137.387 42.2891 137.24 42.5169 137.24 42.8359C137.24 43.0638 137.309 43.2591 137.445 43.4219C137.582 43.5781 137.8 43.7311 138.1 43.8809C138.406 44.0241 138.845 44.1934 139.418 44.3887C140.18 44.6491 140.785 44.9355 141.234 45.248C141.69 45.554 142.022 45.9089 142.23 46.3125C142.439 46.7096 142.543 47.1849 142.543 47.7383C142.543 48.8646 142.156 49.7174 141.381 50.2969C140.613 50.8698 139.545 51.1562 138.178 51.1562C137.663 51.1562 137.146 51.1139 136.625 51.0293C136.104 50.9447 135.635 50.8372 135.219 50.707C134.809 50.5703 134.499 50.4336 134.291 50.2969L134.604 48.0312ZM145.463 41.9766H144.125V40.3262C144.555 40.2025 144.864 40.1081 145.053 40.043C145.248 39.9714 145.421 39.877 145.57 39.7598C145.72 39.6361 145.837 39.4733 145.922 39.2715C146.059 38.946 146.303 38.2982 146.654 37.3281H148.51V39.8672H151.527V41.9766H148.51V46.4492C148.51 47.1914 148.549 47.7318 148.627 48.0703C148.705 48.4089 148.829 48.627 148.998 48.7246C149.167 48.8158 149.428 48.8613 149.779 48.8613C150.053 48.8613 150.365 48.8158 150.717 48.7246C151.075 48.627 151.339 48.5163 151.508 48.3926L151.879 50.1016C151.573 50.375 151.114 50.6191 150.502 50.834C149.896 51.0488 149.242 51.1562 148.539 51.1562C147.79 51.1562 147.191 51.0423 146.742 50.8145C146.299 50.5801 145.974 50.2122 145.766 49.7109C145.564 49.2031 145.463 48.5293 145.463 47.6895V41.9766ZM153.764 48.0312C153.887 48.1289 154.118 48.2493 154.457 48.3926C154.796 48.5293 155.186 48.6497 155.629 48.7539C156.078 48.8581 156.521 48.9102 156.957 48.9102C157.562 48.9167 158.005 48.8483 158.285 48.7051C158.565 48.5618 158.705 48.321 158.705 47.9824C158.705 47.6699 158.51 47.3867 158.119 47.1328C157.735 46.8789 157.126 46.6152 156.293 46.3418C155.303 46.0163 154.587 45.5736 154.145 45.0137C153.708 44.4538 153.49 43.7637 153.49 42.9434C153.49 42.2533 153.679 41.6673 154.057 41.1855C154.441 40.6973 154.971 40.3294 155.648 40.082C156.326 39.8346 157.104 39.7109 157.982 39.7109C158.692 39.7109 159.327 39.7793 159.887 39.916C160.447 40.0527 160.857 40.196 161.117 40.3457L160.785 42.6895C160.564 42.4876 160.206 42.3118 159.711 42.1621C159.223 42.0124 158.747 41.9375 158.285 41.9375C157.621 41.9375 157.139 42.0091 156.84 42.1523C156.547 42.2891 156.4 42.5169 156.4 42.8359C156.4 43.0638 156.469 43.2591 156.605 43.4219C156.742 43.5781 156.96 43.7311 157.26 43.8809C157.566 44.0241 158.005 44.1934 158.578 44.3887C159.34 44.6491 159.945 44.9355 160.395 45.248C160.85 45.554 161.182 45.9089 161.391 46.3125C161.599 46.7096 161.703 47.1849 161.703 47.7383C161.703 48.8646 161.316 49.7174 160.541 50.2969C159.773 50.8698 158.705 51.1562 157.338 51.1562C156.824 51.1562 156.306 51.1139 155.785 51.0293C155.264 50.9447 154.796 50.8372 154.379 50.707C153.969 50.5703 153.66 50.4336 153.451 50.2969L153.764 48.0312Z" fill="#837E9F"/>
<defs>
<filter id="filter0_d_203_26" x="0" y="0" width="958" height="92" filterUnits="userSpaceOnUse" color-interpolation-filters="sRGB">
<feFlood flood-opacity="0" result="BackgroundImageFix"/>
<feColorMatrix in="SourceAlpha" type="matrix" values="0 0 0 0 0 0 0 0 0 0 0 0 0 0 0 0 0 0 127 0" result="hardAlpha"/>
<feMorphology radius="1" operator="dilate" in="SourceAlpha" result="effect1_dropShadow_203_26"/>
<feOffset dx="2" dy="2"/>
<feGaussianBlur stdDeviation="1"/>
<feComposite in2="hardAlpha" operator="out"/>
<feColorMatrix type="matrix" values="0 0 0 0 0 0 0 0 0 0 0 0 0 0 0 0 0 0 0.2 0"/>
<feBlend mode="normal" in2="BackgroundImageFix" result="effect1_dropShadow_203_26"/>
<feBlend mode="normal" in="SourceGraphic" in2="effect1_dropShadow_203_26" result="shape"/>
</filter>
</defs>
</svg>
