<svg width="354" height="214" viewBox="0 0 354 214" fill="none" xmlns="http://www.w3.org/2000/svg">
<g filter="url(#filter0_d_105_31)">
<rect x="1" y="1" width="348" height="208" rx="20" fill="#302F3D"/>
</g>
<rect x="31" y="77" width="86" height="24" rx="12" fill="#CB92B1"/>
<path d="M43.9121 93.8008C44.2083 93.6901 44.4704 93.5241 44.6982 93.3027C44.9261 93.0814 45.0824 92.79 45.167 92.4287C45.2288 92.1715 45.2695 91.8542 45.2891 91.4766C45.3118 91.0957 45.3232 90.6139 45.3232 90.0312V85.5684H46.8857V90.0068L46.8906 91.0957C46.8906 91.4049 46.8841 91.6768 46.8711 91.9111C46.8581 92.1423 46.832 92.3571 46.793 92.5557C46.7116 92.9821 46.5293 93.3499 46.2461 93.6592C45.9629 93.9684 45.6406 94.2028 45.2793 94.3623C44.9212 94.5251 44.5908 94.6113 44.2881 94.6211L43.9121 93.8008ZM52.6768 91.4277H49.9473L49.4541 93H47.7842L50.5283 85.4902H52.1006L54.8691 93H53.1748L52.6768 91.4277ZM52.3203 90.3096L51.5146 87.7607L51.3047 86.9941L51.0898 87.7607L50.2939 90.3096H52.3203ZM56.4414 85.5684L57.8281 89.626L58.2236 91.042L58.624 89.626L59.9375 85.5684H61.5928L58.8584 93.0293H57.54L54.7764 85.5684H56.4414ZM66.3877 91.4277H63.6582L63.165 93H61.4951L64.2393 85.4902H65.8115L68.5801 93H66.8857L66.3877 91.4277ZM66.0312 90.3096L65.2256 87.7607L65.0156 86.9941L64.8008 87.7607L64.0049 90.3096H66.0312ZM69.4736 91.3936C69.7113 91.5238 69.9977 91.6344 70.333 91.7256C70.6683 91.8167 71.0199 91.8623 71.3877 91.8623C71.7881 91.8623 72.0697 91.8021 72.2324 91.6816C72.3952 91.5579 72.4766 91.3659 72.4766 91.1055C72.4766 90.9297 72.4359 90.7816 72.3545 90.6611C72.2731 90.5374 72.1348 90.4137 71.9395 90.29C71.7474 90.1663 71.4463 90.0036 71.0361 89.8018C70.4893 89.5316 70.0449 89.2158 69.7031 88.8545C69.3613 88.4932 69.1904 88.0391 69.1904 87.4922C69.1904 87.0234 69.3044 86.641 69.5322 86.3447C69.7633 86.0452 70.0726 85.8288 70.46 85.6953C70.8506 85.5586 71.2917 85.4902 71.7832 85.4902C72.2064 85.4902 72.5905 85.5358 72.9355 85.627C73.2839 85.7181 73.5394 85.8158 73.7021 85.9199L73.4482 87.126C73.2269 86.986 72.9844 86.8721 72.7207 86.7842C72.4603 86.6963 72.1624 86.6523 71.8271 86.6523C71.4333 86.6523 71.1484 86.7191 70.9727 86.8525C70.8001 86.9827 70.7139 87.1699 70.7139 87.4141C70.7139 87.5866 70.7562 87.7347 70.8408 87.8584C70.9287 87.9821 71.0573 88.1009 71.2266 88.2148C71.3958 88.3255 71.653 88.472 71.998 88.6543C72.4668 88.9017 72.8395 89.1247 73.1162 89.3232C73.3962 89.5186 73.6191 89.7529 73.7852 90.0264C73.9544 90.2998 74.0391 90.627 74.0391 91.0078C74.0391 91.444 73.9333 91.8184 73.7217 92.1309C73.5101 92.4401 73.2106 92.6761 72.8232 92.8389C72.4391 92.9984 71.9932 93.0781 71.4854 93.0781C71.1826 93.0781 70.8766 93.0537 70.5674 93.0049C70.2614 92.9593 69.9896 92.9023 69.752 92.834C69.5176 92.7656 69.3516 92.7005 69.2539 92.6387L69.4736 91.3936ZM78.541 85.4902C78.9023 85.4902 79.2018 85.5081 79.4395 85.5439C79.6803 85.5798 79.9375 85.6318 80.2109 85.7002C80.4095 85.7458 80.5267 85.7718 80.5625 85.7783L80.3379 87.1455C80.3184 87.1357 80.2337 87.0902 80.084 87.0088C79.9342 86.9242 79.7324 86.8558 79.4785 86.8037C79.2246 86.7484 78.9447 86.7207 78.6387 86.7207C78.235 86.7207 77.8704 86.82 77.5449 87.0186C77.2227 87.2171 76.9671 87.5052 76.7783 87.8828C76.5928 88.2572 76.5 88.6982 76.5 89.2061C76.5 89.7204 76.5895 90.181 76.7686 90.5879C76.9508 90.9915 77.2113 91.3073 77.5498 91.5352C77.8916 91.763 78.2936 91.877 78.7559 91.877C78.9674 91.877 79.1888 91.8525 79.4199 91.8037C79.6543 91.7516 79.8659 91.6898 80.0547 91.6182C80.2467 91.5433 80.3883 91.4733 80.4795 91.4082L80.4844 92.6875C80.2793 92.7689 80.097 92.8356 79.9375 92.8877C79.7812 92.9398 79.5908 92.9837 79.3662 93.0195C79.1416 93.0586 78.8893 93.0781 78.6094 93.0781C77.8574 93.0781 77.2015 92.9219 76.6416 92.6094C76.0817 92.2936 75.6504 91.8509 75.3477 91.2812C75.0482 90.7116 74.8984 90.0524 74.8984 89.3037C74.8984 88.5062 75.0579 87.821 75.377 87.248C75.6992 86.6719 76.1354 86.2357 76.6855 85.9395C77.2389 85.64 77.8574 85.4902 78.541 85.4902ZM87.501 93H85.7725C85.7399 92.9544 85.7074 92.9007 85.6748 92.8389C85.6423 92.7738 85.6064 92.6973 85.5674 92.6094L85.499 92.4629C85.4437 92.3457 85.3916 92.2236 85.3428 92.0967C85.2972 91.9665 85.2386 91.7939 85.167 91.5791C85.0661 91.2699 84.9766 91.0225 84.8984 90.8369C84.8236 90.6481 84.7292 90.4902 84.6152 90.3633C84.5013 90.2363 84.3662 90.1729 84.21 90.1729C83.8779 90.1859 83.5508 90.1924 83.2285 90.1924V93H81.6758V85.5684H82.3936C82.5596 85.5684 82.75 85.5586 82.9648 85.5391C83.1439 85.526 83.3522 85.5146 83.5898 85.5049C83.8275 85.4951 84.0863 85.4902 84.3662 85.4902C85.1572 85.4902 85.8001 85.6628 86.2949 86.0078C86.793 86.3496 87.042 86.9258 87.042 87.7363C87.042 88.319 86.9362 88.7845 86.7246 89.1328C86.5163 89.4811 86.2103 89.735 85.8066 89.8945C85.9792 90.041 86.1289 90.2331 86.2559 90.4707C86.3861 90.7083 86.5391 91.0322 86.7148 91.4424C86.9036 91.8981 87.0632 92.2383 87.1934 92.4629L87.501 93ZM83.2285 89.0742C83.3913 89.0938 83.7314 89.1035 84.249 89.1035C84.6885 89.1035 85.0124 88.9782 85.2207 88.7275C85.429 88.4769 85.5332 88.1611 85.5332 87.7803C85.5332 87.5589 85.4974 87.3669 85.4258 87.2041C85.3574 87.0381 85.224 86.9046 85.0254 86.8037C84.8268 86.6995 84.5452 86.6475 84.1807 86.6475C83.7933 86.6475 83.4759 86.6768 83.2285 86.7354V89.0742ZM90.3135 85.5684V93H88.751V85.5684H90.3135ZM92.6816 85.5684C92.9779 85.5684 93.3701 85.5553 93.8584 85.5293C94.3141 85.5033 94.6527 85.4902 94.874 85.4902C95.7562 85.4902 96.4284 85.6953 96.8906 86.1055C97.3561 86.5156 97.5889 87.165 97.5889 88.0537C97.5889 88.6201 97.4733 89.1051 97.2422 89.5088C97.0143 89.9124 96.6774 90.2201 96.2314 90.4316C95.7887 90.6432 95.25 90.749 94.6152 90.749C94.2767 90.749 93.9935 90.7458 93.7656 90.7393V93H92.2129V85.5684H92.6816ZM94.5762 89.5723C95.0124 89.5723 95.3656 89.4567 95.6357 89.2256C95.9092 88.9945 96.0459 88.5973 96.0459 88.0342C96.0459 87.5622 95.9189 87.2041 95.665 86.96C95.4111 86.7126 95.0433 86.5986 94.5615 86.6182C94.3727 86.6247 94.2181 86.6328 94.0977 86.6426C93.9805 86.6491 93.8698 86.6637 93.7656 86.6865V89.5332C93.9772 89.5592 94.2474 89.5723 94.5762 89.5723ZM98.082 86.7598V85.5684H103.893V86.7598H101.773V93H100.211V86.7598H98.082Z" fill="black"/>
<rect x="31" y="116" width="86" height="24" rx="12" fill="#CB92B1"/>
<path d="M72.2373 127.996V131.561C72.1722 131.564 72.1022 131.577 72.0273 131.6C71.9525 131.622 71.8483 131.657 71.7148 131.702C71.3861 131.816 71.0638 131.907 70.748 131.976C70.4355 132.044 70.0449 132.078 69.5762 132.078C68.834 132.078 68.196 131.925 67.6621 131.619C67.1283 131.31 66.7214 130.874 66.4414 130.311C66.1647 129.744 66.0264 129.082 66.0264 128.323C66.0264 127.464 66.1859 126.748 66.5049 126.175C66.8271 125.602 67.2666 125.179 67.8232 124.905C68.3799 124.629 69.0163 124.49 69.7324 124.49C70.11 124.49 70.4128 124.507 70.6406 124.539C70.8685 124.572 71.1175 124.62 71.3877 124.686C71.5537 124.728 71.7018 124.76 71.832 124.783L71.7832 126.116C71.5098 125.986 71.2249 125.888 70.9287 125.823C70.6325 125.755 70.2354 125.721 69.7373 125.721C69.3076 125.721 68.9349 125.82 68.6191 126.019C68.3066 126.214 68.0658 126.497 67.8965 126.868C67.7272 127.236 67.6426 127.677 67.6426 128.191C67.6426 128.706 67.7109 129.166 67.8477 129.573C67.9844 129.977 68.1927 130.298 68.4727 130.535C68.7526 130.77 69.1009 130.887 69.5176 130.887C70.0156 130.887 70.4307 130.825 70.7627 130.701V129.212L69.625 129.153V127.996H72.2373ZM75.377 124.568V132H73.8145V124.568H75.377ZM76.5049 125.76V124.568H82.3154V125.76H80.1963V132H78.6338V125.76H76.5049Z" fill="black"/>
<rect x="31" y="155" width="86" height="24" rx="12" fill="#CB92B1"/>
<path d="M69.0586 163.49C69.4199 163.49 69.7194 163.508 69.957 163.544C70.1979 163.58 70.4551 163.632 70.7285 163.7C70.9271 163.746 71.0443 163.772 71.0801 163.778L70.8555 165.146C70.8359 165.136 70.7513 165.09 70.6016 165.009C70.4518 164.924 70.25 164.856 69.9961 164.804C69.7422 164.748 69.4622 164.721 69.1562 164.721C68.7526 164.721 68.388 164.82 68.0625 165.019C67.7402 165.217 67.4847 165.505 67.2959 165.883C67.1104 166.257 67.0176 166.698 67.0176 167.206C67.0176 167.72 67.1071 168.181 67.2861 168.588C67.4684 168.992 67.7288 169.307 68.0674 169.535C68.4092 169.763 68.8112 169.877 69.2734 169.877C69.485 169.877 69.7064 169.853 69.9375 169.804C70.1719 169.752 70.3835 169.69 70.5723 169.618C70.7643 169.543 70.9059 169.473 70.9971 169.408L71.002 170.688C70.7969 170.769 70.6146 170.836 70.4551 170.888C70.2988 170.94 70.1084 170.984 69.8838 171.02C69.6592 171.059 69.4069 171.078 69.127 171.078C68.375 171.078 67.7191 170.922 67.1592 170.609C66.5993 170.294 66.168 169.851 65.8652 169.281C65.5658 168.712 65.416 168.052 65.416 167.304C65.416 166.506 65.5755 165.821 65.8945 165.248C66.2168 164.672 66.653 164.236 67.2031 163.939C67.7565 163.64 68.375 163.49 69.0586 163.49ZM72.2373 169.394C72.4749 169.524 72.7614 169.634 73.0967 169.726C73.432 169.817 73.7835 169.862 74.1514 169.862C74.5518 169.862 74.8333 169.802 74.9961 169.682C75.1589 169.558 75.2402 169.366 75.2402 169.105C75.2402 168.93 75.1995 168.782 75.1182 168.661C75.0368 168.537 74.8984 168.414 74.7031 168.29C74.5111 168.166 74.21 168.004 73.7998 167.802C73.2529 167.532 72.8086 167.216 72.4668 166.854C72.125 166.493 71.9541 166.039 71.9541 165.492C71.9541 165.023 72.068 164.641 72.2959 164.345C72.527 164.045 72.8363 163.829 73.2236 163.695C73.6143 163.559 74.0553 163.49 74.5469 163.49C74.9701 163.49 75.3542 163.536 75.6992 163.627C76.0475 163.718 76.3031 163.816 76.4658 163.92L76.2119 165.126C75.9906 164.986 75.748 164.872 75.4844 164.784C75.224 164.696 74.9261 164.652 74.5908 164.652C74.1969 164.652 73.9121 164.719 73.7363 164.853C73.5638 164.983 73.4775 165.17 73.4775 165.414C73.4775 165.587 73.5199 165.735 73.6045 165.858C73.6924 165.982 73.821 166.101 73.9902 166.215C74.1595 166.326 74.4167 166.472 74.7617 166.654C75.2305 166.902 75.6032 167.125 75.8799 167.323C76.1598 167.519 76.3828 167.753 76.5488 168.026C76.7181 168.3 76.8027 168.627 76.8027 169.008C76.8027 169.444 76.6969 169.818 76.4854 170.131C76.2738 170.44 75.9743 170.676 75.5869 170.839C75.2028 170.998 74.7568 171.078 74.249 171.078C73.9463 171.078 73.6403 171.054 73.3311 171.005C73.0251 170.959 72.7533 170.902 72.5156 170.834C72.2812 170.766 72.1152 170.701 72.0176 170.639L72.2373 169.394ZM78.1357 169.394C78.3734 169.524 78.6598 169.634 78.9951 169.726C79.3304 169.817 79.682 169.862 80.0498 169.862C80.4502 169.862 80.7318 169.802 80.8945 169.682C81.0573 169.558 81.1387 169.366 81.1387 169.105C81.1387 168.93 81.098 168.782 81.0166 168.661C80.9352 168.537 80.7969 168.414 80.6016 168.29C80.4095 168.166 80.1084 168.004 79.6982 167.802C79.1514 167.532 78.707 167.216 78.3652 166.854C78.0234 166.493 77.8525 166.039 77.8525 165.492C77.8525 165.023 77.9665 164.641 78.1943 164.345C78.4255 164.045 78.7347 163.829 79.1221 163.695C79.5127 163.559 79.9538 163.49 80.4453 163.49C80.8685 163.49 81.2526 163.536 81.5977 163.627C81.946 163.718 82.2015 163.816 82.3643 163.92L82.1104 165.126C81.889 164.986 81.6465 164.872 81.3828 164.784C81.1224 164.696 80.8245 164.652 80.4893 164.652C80.0954 164.652 79.8105 164.719 79.6348 164.853C79.4622 164.983 79.376 165.17 79.376 165.414C79.376 165.587 79.4183 165.735 79.5029 165.858C79.5908 165.982 79.7194 166.101 79.8887 166.215C80.0579 166.326 80.3151 166.472 80.6602 166.654C81.1289 166.902 81.5016 167.125 81.7783 167.323C82.0583 167.519 82.2812 167.753 82.4473 168.026C82.6165 168.3 82.7012 168.627 82.7012 169.008C82.7012 169.444 82.5954 169.818 82.3838 170.131C82.1722 170.44 81.8727 170.676 81.4854 170.839C81.1012 170.998 80.6553 171.078 80.1475 171.078C79.8447 171.078 79.5387 171.054 79.2295 171.005C78.9235 170.959 78.6517 170.902 78.4141 170.834C78.1797 170.766 78.0137 170.701 77.916 170.639L78.1357 169.394Z" fill="black"/>
<rect x="132" y="77" width="86" height="24" rx="12" fill="#CB92B1"/>
<path d="M160.581 93H158.853C158.82 92.9544 158.787 92.9007 158.755 92.8389C158.722 92.7738 158.687 92.6973 158.647 92.6094L158.579 92.4629C158.524 92.3457 158.472 92.2236 158.423 92.0967C158.377 91.9665 158.319 91.7939 158.247 91.5791C158.146 91.2699 158.057 91.0225 157.979 90.8369C157.904 90.6481 157.809 90.4902 157.695 90.3633C157.581 90.2363 157.446 90.1729 157.29 90.1729C156.958 90.1859 156.631 90.1924 156.309 90.1924V93H154.756V85.5684H155.474C155.64 85.5684 155.83 85.5586 156.045 85.5391C156.224 85.526 156.432 85.5146 156.67 85.5049C156.908 85.4951 157.166 85.4902 157.446 85.4902C158.237 85.4902 158.88 85.6628 159.375 86.0078C159.873 86.3496 160.122 86.9258 160.122 87.7363C160.122 88.319 160.016 88.7845 159.805 89.1328C159.596 89.4811 159.29 89.735 158.887 89.8945C159.059 90.041 159.209 90.2331 159.336 90.4707C159.466 90.7083 159.619 91.0322 159.795 91.4424C159.984 91.8981 160.143 92.2383 160.273 92.4629L160.581 93ZM156.309 89.0742C156.471 89.0938 156.812 89.1035 157.329 89.1035C157.769 89.1035 158.092 88.9782 158.301 88.7275C158.509 88.4769 158.613 88.1611 158.613 87.7803C158.613 87.5589 158.577 87.3669 158.506 87.2041C158.438 87.0381 158.304 86.9046 158.105 86.8037C157.907 86.6995 157.625 86.6475 157.261 86.6475C156.873 86.6475 156.556 86.6768 156.309 86.7354V89.0742ZM166.299 85.5684V86.7598H163.32V88.6055H165.605V89.7822H163.32V91.7744H166.616V93H161.768V85.5684H166.299ZM171.792 91.4277H169.062L168.569 93H166.899L169.644 85.4902H171.216L173.984 93H172.29L171.792 91.4277ZM171.436 90.3096L170.63 87.7607L170.42 86.9941L170.205 87.7607L169.409 90.3096H171.436ZM178.047 85.4902C178.408 85.4902 178.708 85.5081 178.945 85.5439C179.186 85.5798 179.443 85.6318 179.717 85.7002C179.915 85.7458 180.033 85.7718 180.068 85.7783L179.844 87.1455C179.824 87.1357 179.74 87.0902 179.59 87.0088C179.44 86.9242 179.238 86.8558 178.984 86.8037C178.73 86.7484 178.451 86.7207 178.145 86.7207C177.741 86.7207 177.376 86.82 177.051 87.0186C176.729 87.2171 176.473 87.5052 176.284 87.8828C176.099 88.2572 176.006 88.6982 176.006 89.2061C176.006 89.7204 176.095 90.181 176.274 90.5879C176.457 90.9915 176.717 91.3073 177.056 91.5352C177.397 91.763 177.799 91.877 178.262 91.877C178.473 91.877 178.695 91.8525 178.926 91.8037C179.16 91.7516 179.372 91.6898 179.561 91.6182C179.753 91.5433 179.894 91.4733 179.985 91.4082L179.99 92.6875C179.785 92.7689 179.603 92.8356 179.443 92.8877C179.287 92.9398 179.097 92.9837 178.872 93.0195C178.647 93.0586 178.395 93.0781 178.115 93.0781C177.363 93.0781 176.707 92.9219 176.147 92.6094C175.588 92.2936 175.156 91.8509 174.854 91.2812C174.554 90.7116 174.404 90.0524 174.404 89.3037C174.404 88.5062 174.564 87.821 174.883 87.248C175.205 86.6719 175.641 86.2357 176.191 85.9395C176.745 85.64 177.363 85.4902 178.047 85.4902ZM180.41 86.7598V85.5684H186.221V86.7598H184.102V93H182.539V86.7598H180.41ZM186.318 93.8008C186.615 93.6901 186.877 93.5241 187.104 93.3027C187.332 93.0814 187.489 92.79 187.573 92.4287C187.635 92.1715 187.676 91.8542 187.695 91.4766C187.718 91.0957 187.729 90.6139 187.729 90.0312V85.5684H189.292V90.0068L189.297 91.0957C189.297 91.4049 189.29 91.6768 189.277 91.9111C189.264 92.1423 189.238 92.3571 189.199 92.5557C189.118 92.9821 188.936 93.3499 188.652 93.6592C188.369 93.9684 188.047 94.2028 187.686 94.3623C187.327 94.5251 186.997 94.6113 186.694 94.6211L186.318 93.8008ZM191.226 91.3936C191.463 91.5238 191.75 91.6344 192.085 91.7256C192.42 91.8167 192.772 91.8623 193.14 91.8623C193.54 91.8623 193.822 91.8021 193.984 91.6816C194.147 91.5579 194.229 91.3659 194.229 91.1055C194.229 90.9297 194.188 90.7816 194.106 90.6611C194.025 90.5374 193.887 90.4137 193.691 90.29C193.499 90.1663 193.198 90.0036 192.788 89.8018C192.241 89.5316 191.797 89.2158 191.455 88.8545C191.113 88.4932 190.942 88.0391 190.942 87.4922C190.942 87.0234 191.056 86.641 191.284 86.3447C191.515 86.0452 191.825 85.8288 192.212 85.6953C192.603 85.5586 193.044 85.4902 193.535 85.4902C193.958 85.4902 194.342 85.5358 194.688 85.627C195.036 85.7181 195.291 85.8158 195.454 85.9199L195.2 87.126C194.979 86.986 194.736 86.8721 194.473 86.7842C194.212 86.6963 193.914 86.6523 193.579 86.6523C193.185 86.6523 192.9 86.7191 192.725 86.8525C192.552 86.9827 192.466 87.1699 192.466 87.4141C192.466 87.5866 192.508 87.7347 192.593 87.8584C192.681 87.9821 192.809 88.1009 192.979 88.2148C193.148 88.3255 193.405 88.472 193.75 88.6543C194.219 88.9017 194.591 89.1247 194.868 89.3232C195.148 89.5186 195.371 89.7529 195.537 90.0264C195.706 90.2998 195.791 90.627 195.791 91.0078C195.791 91.444 195.685 91.8184 195.474 92.1309C195.262 92.4401 194.963 92.6761 194.575 92.8389C194.191 92.9984 193.745 93.0781 193.237 93.0781C192.935 93.0781 192.629 93.0537 192.319 93.0049C192.013 92.9593 191.742 92.9023 191.504 92.834C191.27 92.7656 191.104 92.7005 191.006 92.6387L191.226 91.3936Z" fill="black"/>
<rect x="132" y="116" width="86" height="24" rx="12" fill="#CB92B1"/>
<path d="M162.129 127.996V131.561C162.064 131.564 161.994 131.577 161.919 131.6C161.844 131.622 161.74 131.657 161.606 131.702C161.278 131.816 160.955 131.907 160.64 131.976C160.327 132.044 159.937 132.078 159.468 132.078C158.726 132.078 158.088 131.925 157.554 131.619C157.02 131.31 156.613 130.874 156.333 130.311C156.056 129.744 155.918 129.082 155.918 128.323C155.918 127.464 156.077 126.748 156.396 126.175C156.719 125.602 157.158 125.179 157.715 124.905C158.271 124.629 158.908 124.49 159.624 124.49C160.002 124.49 160.304 124.507 160.532 124.539C160.76 124.572 161.009 124.62 161.279 124.686C161.445 124.728 161.593 124.76 161.724 124.783L161.675 126.116C161.401 125.986 161.117 125.888 160.82 125.823C160.524 125.755 160.127 125.721 159.629 125.721C159.199 125.721 158.826 125.82 158.511 126.019C158.198 126.214 157.957 126.497 157.788 126.868C157.619 127.236 157.534 127.677 157.534 128.191C157.534 128.706 157.603 129.166 157.739 129.573C157.876 129.977 158.084 130.298 158.364 130.535C158.644 130.77 158.993 130.887 159.409 130.887C159.907 130.887 160.322 130.825 160.654 130.701V129.212L159.517 129.153V127.996H162.129ZM165.269 124.568V132H163.706V124.568H165.269ZM166.396 125.76V124.568H172.207V125.76H170.088V132H168.525V125.76H166.396ZM174.824 124.568V127.654H177.72V124.568H179.253V132H177.72V128.821H174.824V132H173.271V124.568H174.824ZM180.918 124.568H182.456L182.446 128.729C182.446 129.292 182.5 129.726 182.607 130.032C182.718 130.338 182.879 130.55 183.091 130.667C183.302 130.781 183.579 130.838 183.921 130.838C184.25 130.838 184.518 130.776 184.727 130.652C184.935 130.525 185.093 130.309 185.2 130.003C185.311 129.694 185.366 129.269 185.366 128.729V124.568H186.895V128.875C186.895 129.92 186.641 130.716 186.133 131.263C185.625 131.806 184.873 132.078 183.877 132.078C182.816 132.078 182.054 131.797 181.592 131.233C181.133 130.667 180.905 129.86 180.908 128.812L180.918 124.568ZM189.297 124.568C189.43 124.568 189.663 124.559 189.995 124.539C190.448 124.51 190.798 124.495 191.045 124.495C191.657 124.495 192.165 124.573 192.568 124.729C192.975 124.886 193.276 125.105 193.472 125.389C193.667 125.669 193.765 125.997 193.765 126.375C193.765 126.645 193.721 126.896 193.633 127.127C193.545 127.358 193.416 127.555 193.247 127.718C193.081 127.877 192.882 127.988 192.651 128.05C192.944 128.082 193.205 128.174 193.433 128.323C193.66 128.47 193.838 128.667 193.965 128.914C194.095 129.158 194.16 129.437 194.16 129.749C194.16 130.481 193.929 131.051 193.467 131.458C193.005 131.865 192.222 132.068 191.118 132.068C190.646 132.068 190.05 132.046 189.331 132H188.545V124.563L189.297 124.568ZM191.016 127.684C191.465 127.684 191.789 127.592 191.987 127.41C192.186 127.228 192.285 126.927 192.285 126.507C192.285 126.204 192.165 125.983 191.924 125.843C191.686 125.703 191.338 125.633 190.879 125.633C190.749 125.633 190.596 125.638 190.42 125.647C190.244 125.657 190.132 125.674 190.083 125.696V127.64C190.171 127.656 190.312 127.667 190.508 127.674C190.703 127.68 190.872 127.684 191.016 127.684ZM191.162 130.994C191.647 130.994 192.005 130.905 192.236 130.726C192.471 130.547 192.588 130.244 192.588 129.817C192.588 129.437 192.472 129.16 192.241 128.987C192.013 128.812 191.652 128.724 191.157 128.724C190.968 128.724 190.758 128.727 190.527 128.733C190.296 128.74 190.148 128.748 190.083 128.758V130.867C190.145 130.916 190.282 130.95 190.493 130.97C190.708 130.986 190.931 130.994 191.162 130.994Z" fill="black"/>
<rect x="132" y="155" width="86" height="24" rx="12" fill="#CB92B1"/>
<rect x="233" y="77" width="86" height="24" rx="12" fill="#CB92B1"/>
<path d="M263.388 85.5684V93H261.83L259.179 88.7959L258.593 87.6094L258.759 89.3818V93H257.313V85.5684H258.754L261.522 89.9385L262.084 91.0518L261.942 89.2646V85.5684H263.388ZM264.784 89.2451C264.8 88.4118 264.958 87.7201 265.258 87.1699C265.561 86.6165 265.972 86.2031 266.493 85.9297C267.017 85.6562 267.624 85.5098 268.314 85.4902C268.988 85.4707 269.577 85.6172 270.082 85.9297C270.587 86.2422 270.971 86.6882 271.234 87.2676C271.501 87.847 271.628 88.516 271.615 89.2744C271.599 90.1208 271.441 90.8288 271.142 91.3984C270.842 91.9648 270.43 92.3864 269.906 92.6631C269.382 92.9398 268.773 93.0781 268.08 93.0781C267.396 93.0781 266.802 92.917 266.298 92.5947C265.797 92.2692 265.416 91.8167 265.155 91.2373C264.895 90.6579 264.771 89.9938 264.784 89.2451ZM270.009 89.2256C270.009 88.7275 269.944 88.2865 269.813 87.9023C269.687 87.5182 269.493 87.2171 269.232 86.999C268.975 86.7809 268.658 86.6719 268.28 86.6719C267.919 86.6719 267.597 86.7614 267.313 86.9404C267.03 87.1195 266.806 87.4043 266.64 87.7949C266.474 88.1855 266.391 88.6868 266.391 89.2988C266.391 89.7969 266.457 90.2445 266.591 90.6416C266.728 91.0387 266.931 91.3512 267.201 91.5791C267.475 91.807 267.808 91.9209 268.202 91.9209C268.772 91.9209 269.215 91.6979 269.53 91.252C269.849 90.806 270.009 90.1305 270.009 89.2256ZM273.754 85.5684C273.858 85.5684 274.066 85.5586 274.379 85.5391C274.815 85.5065 275.207 85.4902 275.556 85.4902C276.776 85.4902 277.688 85.7995 278.29 86.418C278.896 87.0365 279.198 87.9268 279.198 89.0889C279.198 89.9189 279.047 90.6335 278.744 91.2324C278.441 91.8314 278.01 92.2887 277.45 92.6045C276.894 92.9202 276.238 93.0781 275.482 93.0781C275.248 93.0781 274.9 93.0635 274.438 93.0342C274.154 93.0114 273.931 93 273.769 93H273.017V85.5684H273.754ZM275.58 91.8867C276.199 91.8802 276.682 91.6637 277.03 91.2373C277.382 90.8076 277.558 90.1468 277.558 89.2549C277.558 88.6169 277.479 88.109 277.323 87.7314C277.17 87.3506 276.938 87.0771 276.625 86.9111C276.312 86.7451 275.907 86.6621 275.409 86.6621C275.237 86.6621 275.027 86.6784 274.779 86.7109L274.584 86.7305V91.7988C274.805 91.8574 275.137 91.8867 275.58 91.8867ZM285.136 85.5684V86.7598H282.157V88.6055H284.442V89.7822H282.157V91.7744H285.453V93H280.604V85.5684H285.136ZM285.761 93.8008C286.057 93.6901 286.319 93.5241 286.547 93.3027C286.775 93.0814 286.931 92.79 287.016 92.4287C287.077 92.1715 287.118 91.8542 287.138 91.4766C287.16 91.0957 287.172 90.6139 287.172 90.0312V85.5684H288.734V90.0068L288.739 91.0957C288.739 91.4049 288.733 91.6768 288.72 91.9111C288.707 92.1423 288.681 92.3571 288.642 92.5557C288.56 92.9821 288.378 93.3499 288.095 93.6592C287.812 93.9684 287.489 94.2028 287.128 94.3623C286.77 94.5251 286.439 94.6113 286.137 94.6211L285.761 93.8008ZM290.668 91.3936C290.906 91.5238 291.192 91.6344 291.527 91.7256C291.863 91.8167 292.214 91.8623 292.582 91.8623C292.982 91.8623 293.264 91.8021 293.427 91.6816C293.59 91.5579 293.671 91.3659 293.671 91.1055C293.671 90.9297 293.63 90.7816 293.549 90.6611C293.467 90.5374 293.329 90.4137 293.134 90.29C292.942 90.1663 292.641 90.0036 292.23 89.8018C291.684 89.5316 291.239 89.2158 290.897 88.8545C290.556 88.4932 290.385 88.0391 290.385 87.4922C290.385 87.0234 290.499 86.641 290.727 86.3447C290.958 86.0452 291.267 85.8288 291.654 85.6953C292.045 85.5586 292.486 85.4902 292.978 85.4902C293.401 85.4902 293.785 85.5358 294.13 85.627C294.478 85.7181 294.734 85.8158 294.896 85.9199L294.643 87.126C294.421 86.986 294.179 86.8721 293.915 86.7842C293.655 86.6963 293.357 86.6523 293.021 86.6523C292.628 86.6523 292.343 86.7191 292.167 86.8525C291.994 86.9827 291.908 87.1699 291.908 87.4141C291.908 87.5866 291.951 87.7347 292.035 87.8584C292.123 87.9821 292.252 88.1009 292.421 88.2148C292.59 88.3255 292.847 88.472 293.192 88.6543C293.661 88.9017 294.034 89.1247 294.311 89.3232C294.59 89.5186 294.813 89.7529 294.979 90.0264C295.149 90.2998 295.233 90.627 295.233 91.0078C295.233 91.444 295.128 91.8184 294.916 92.1309C294.704 92.4401 294.405 92.6761 294.018 92.8389C293.633 92.9984 293.188 93.0781 292.68 93.0781C292.377 93.0781 292.071 93.0537 291.762 93.0049C291.456 92.9593 291.184 92.9023 290.946 92.834C290.712 92.7656 290.546 92.7005 290.448 92.6387L290.668 91.3936Z" fill="black"/>
<rect x="233" y="116" width="86" height="24" rx="12" fill="#CB92B1"/>
<path d="M264.169 124.568V127.654H267.064V124.568H268.598V132H267.064V128.821H264.169V132H262.616V124.568H264.169ZM269.667 125.76V124.568H275.478V125.76H273.358V132H271.796V125.76H269.667ZM278.939 124.568L279.931 128.475L280.307 130.115L280.59 128.475L281.483 124.568H283.603L284.491 132H282.968L282.602 128.016L282.47 125.74L281.923 128.016L280.858 132.073H279.628L278.451 128.016L277.899 125.74L277.724 128.016L277.406 132L275.966 132.005L276.757 124.568H278.939ZM287.304 124.568V130.818H289.979V132H285.751V124.568H287.304Z" fill="black"/>
<rect x="233" y="155" width="86" height="24" rx="12" fill="#CB92B1"/>
<path d="M21.293 38.5195V36.1367H32.9141V38.5195H28.6758V51H25.5508V38.5195H21.293ZM43.8809 44.0762C43.8809 45.0137 43.8451 45.7103 43.7734 46.166H37.1914C37.25 47.084 37.5365 47.7676 38.0508 48.2168C38.5716 48.666 39.2747 48.8906 40.1602 48.8906C40.5833 48.8906 41.0944 48.8353 41.6934 48.7246C42.2988 48.6074 42.7415 48.4707 43.0215 48.3145L43.5195 50.043C43.1354 50.3555 42.5592 50.6191 41.791 50.834C41.0228 51.0488 40.222 51.1562 39.3887 51.1562C38.2689 51.1562 37.3151 50.9284 36.5273 50.4727C35.7396 50.0169 35.1439 49.3594 34.7402 48.5C34.3366 47.6341 34.1348 46.599 34.1348 45.3945C34.1348 44.3008 34.3464 43.3242 34.7695 42.4648C35.1927 41.6055 35.8079 40.9316 36.6152 40.4434C37.429 39.9551 38.3958 39.7109 39.5156 39.7109C40.3229 39.7109 41.0521 39.8574 41.7031 40.1504C42.3542 40.4434 42.875 40.9154 43.2656 41.5664C43.6628 42.2174 43.8678 43.054 43.8809 44.0762ZM41.0488 44.4766C41.0553 44.3789 41.0586 44.2357 41.0586 44.0469C41.0586 43.3372 40.9251 42.8001 40.6582 42.4355C40.3913 42.0645 39.9583 41.8789 39.3594 41.8789C38.7604 41.8789 38.2819 42.0775 37.9238 42.4746C37.5723 42.8652 37.3444 43.5326 37.2402 44.4766H41.0488ZM51.3125 39.7109C51.9701 39.7109 52.5658 39.7695 53.0996 39.8867C53.6335 39.9974 54.0013 40.1276 54.2031 40.2773L53.8223 42.6309C53.5423 42.4811 53.2298 42.3737 52.8848 42.3086C52.5462 42.237 52.1263 42.2012 51.625 42.2012C51.1562 42.2012 50.7103 42.3021 50.2871 42.5039C49.8639 42.6992 49.5124 43.0215 49.2324 43.4707C48.9525 43.9134 48.8027 44.4863 48.7832 45.1895C48.7637 45.9642 48.8678 46.6152 49.0957 47.1426C49.3236 47.6699 49.6458 48.0638 50.0625 48.3242C50.4857 48.5781 50.9674 48.7051 51.5078 48.7051C51.9961 48.7051 52.4616 48.6628 52.9043 48.5781C53.3535 48.487 53.6953 48.3763 53.9297 48.2461L54.3691 50.0527C54.0241 50.3848 53.5423 50.6517 52.9238 50.8535C52.3053 51.0553 51.6478 51.1562 50.9512 51.1562C49.8314 51.1562 48.8809 50.9186 48.0996 50.4434C47.3184 49.9616 46.7324 49.3008 46.3418 48.4609C45.9512 47.6146 45.7559 46.651 45.7559 45.5703C45.7559 44.4505 45.9609 43.4479 46.3711 42.5625C46.7812 41.6771 47.403 40.9805 48.2363 40.4727C49.0697 39.9648 50.0951 39.7109 51.3125 39.7109ZM59.5254 39.8672L59.584 41.0586C60.0332 40.7201 60.5931 40.4108 61.2637 40.1309C61.9342 39.8509 62.582 39.7012 63.207 39.6816C64.0078 39.6556 64.6621 39.7826 65.1699 40.0625C65.6777 40.3359 66.0553 40.7949 66.3027 41.4395C66.5566 42.0775 66.6836 42.9368 66.6836 44.0176V51H63.6367V44.6719C63.6367 44.0404 63.5879 43.5521 63.4902 43.207C63.3926 42.8555 63.2266 42.6048 62.9922 42.4551C62.7578 42.3053 62.4258 42.237 61.9961 42.25C61.6706 42.2565 61.3027 42.3314 60.8926 42.4746C60.4824 42.6178 60.1211 42.8262 59.8086 43.0996V51H56.7617V39.8672H59.5254ZM69.2031 45.3262C69.2031 44.1348 69.4375 43.1191 69.9062 42.2793C70.375 41.4329 71.026 40.7949 71.8594 40.3652C72.6927 39.929 73.6497 39.7109 74.7305 39.7109C75.9609 39.7109 76.9733 39.9714 77.7676 40.4922C78.5618 41.0065 79.138 41.6999 79.4961 42.5723C79.8607 43.4382 80.043 44.418 80.043 45.5117C80.043 46.7096 79.8086 47.7318 79.3398 48.5781C78.8711 49.4245 78.2201 50.0658 77.3867 50.502C76.5534 50.9382 75.5996 51.1562 74.5254 51.1562C73.2884 51.1562 72.2728 50.8958 71.4785 50.375C70.6842 49.8542 70.1048 49.1576 69.7402 48.2852C69.3822 47.4062 69.2031 46.4199 69.2031 45.3262ZM76.8887 45.5215C76.8887 44.4798 76.7031 43.6139 76.332 42.9238C75.9609 42.2272 75.3978 41.8789 74.6426 41.8789C73.1191 41.8789 72.3574 43.0117 72.3574 45.2773C72.3574 45.9609 72.4355 46.5859 72.5918 47.1523C72.7546 47.7122 73.0052 48.1615 73.3438 48.5C73.6888 48.8385 74.1185 49.0078 74.6328 49.0078C76.1367 49.0078 76.8887 47.8457 76.8887 45.5215ZM85.7852 34.7695V51H82.7383V34.7695H85.7852ZM88.4805 45.3262C88.4805 44.1348 88.7148 43.1191 89.1836 42.2793C89.6523 41.4329 90.3034 40.7949 91.1367 40.3652C91.9701 39.929 92.9271 39.7109 94.0078 39.7109C95.2383 39.7109 96.2507 39.9714 97.0449 40.4922C97.8392 41.0065 98.4154 41.6999 98.7734 42.5723C99.138 43.4382 99.3203 44.418 99.3203 45.5117C99.3203 46.7096 99.0859 47.7318 98.6172 48.5781C98.1484 49.4245 97.4974 50.0658 96.6641 50.502C95.8307 50.9382 94.877 51.1562 93.8027 51.1562C92.5658 51.1562 91.5501 50.8958 90.7559 50.375C89.9616 49.8542 89.3822 49.1576 89.0176 48.2852C88.6595 47.4062 88.4805 46.4199 88.4805 45.3262ZM96.166 45.5215C96.166 44.4798 95.9805 43.6139 95.6094 42.9238C95.2383 42.2272 94.6751 41.8789 93.9199 41.8789C92.3965 41.8789 91.6348 43.0117 91.6348 45.2773C91.6348 45.9609 91.7129 46.5859 91.8691 47.1523C92.0319 47.7122 92.2826 48.1615 92.6211 48.5C92.9661 48.8385 93.3958 49.0078 93.9102 49.0078C95.4141 49.0078 96.166 47.8457 96.166 45.5215ZM112.836 42.0742H110.99C111.12 42.4518 111.186 42.875 111.186 43.3438C111.186 44.5352 110.753 45.4434 109.887 46.0684C109.027 46.6934 107.81 47.0059 106.234 47.0059C105.87 47.0059 105.548 46.9831 105.268 46.9375C105.131 47.0482 105.027 47.1849 104.955 47.3477C104.883 47.5039 104.848 47.6699 104.848 47.8457C104.848 48.1582 104.945 48.3665 105.141 48.4707C105.336 48.5749 105.678 48.627 106.166 48.627H108.021C109.662 48.627 110.785 48.946 111.391 49.584C112.003 50.2155 112.309 51.0195 112.309 51.9961C112.309 52.8294 112.042 53.5521 111.508 54.1641C110.98 54.776 110.277 55.2415 109.398 55.5605C108.52 55.8796 107.572 56.0391 106.557 56.0391C104.831 56.0391 103.497 55.7591 102.553 55.1992C101.615 54.6458 101.146 53.8418 101.146 52.7871C101.146 52.2728 101.303 51.8138 101.615 51.4102C101.934 51.013 102.351 50.7005 102.865 50.4727C102.553 50.3099 102.322 50.0788 102.172 49.7793C102.029 49.4798 101.957 49.1576 101.957 48.8125C101.957 48.3698 102.094 47.9434 102.367 47.5332C102.641 47.123 103.096 46.7878 103.734 46.5273C103.025 46.2214 102.465 45.7982 102.055 45.2578C101.651 44.7109 101.449 44.1022 101.449 43.4316C101.449 42.1556 101.885 41.2181 102.758 40.6191C103.63 40.0137 104.854 39.7109 106.43 39.7109C107.868 39.7109 108.992 39.9811 109.799 40.5215C110.014 40.3327 110.271 40.1764 110.57 40.0527C110.87 39.929 111.212 39.8672 111.596 39.8672H112.836V42.0742ZM106.283 45.1406C106.921 45.1406 107.416 45.0169 107.768 44.7695C108.126 44.5221 108.305 44.0762 108.305 43.4316C108.305 42.8262 108.145 42.3704 107.826 42.0645C107.514 41.752 107.045 41.5957 106.42 41.5957C105.788 41.5957 105.29 41.7324 104.926 42.0059C104.568 42.2728 104.389 42.735 104.389 43.3926C104.389 43.9395 104.551 44.3691 104.877 44.6816C105.202 44.9876 105.671 45.1406 106.283 45.1406ZM105.189 51C105.046 51 104.844 50.9935 104.584 50.9805C104.311 51.2279 104.174 51.6055 104.174 52.1133C104.174 52.7253 104.363 53.2331 104.74 53.6367C105.124 54.0404 105.73 54.2422 106.557 54.2422C107.416 54.2422 108.087 54.1087 108.568 53.8418C109.057 53.5814 109.301 53.168 109.301 52.6016C109.301 52.2174 109.242 51.9115 109.125 51.6836C109.008 51.4622 108.767 51.293 108.402 51.1758C108.038 51.0586 107.497 51 106.781 51H105.189ZM117.758 39.8672V51H114.711V39.8672H117.758ZM114.34 36.5762C114.34 36.2507 114.431 35.9479 114.613 35.668C114.796 35.388 115.036 35.1667 115.336 35.0039C115.635 34.8346 115.951 34.75 116.283 34.75C116.817 34.75 117.243 34.9062 117.562 35.2188C117.882 35.5247 118.041 35.9219 118.041 36.4102C118.041 36.7357 117.95 37.0417 117.768 37.3281C117.592 37.6081 117.354 37.8327 117.055 38.002C116.762 38.1647 116.446 38.2461 116.107 38.2461C115.775 38.2461 115.476 38.1745 115.209 38.0312C114.942 37.888 114.73 37.6895 114.574 37.4355C114.418 37.1816 114.34 36.8952 114.34 36.5762ZM125.385 39.6523C126.465 39.6523 127.328 39.7728 127.973 40.0137C128.624 40.248 129.109 40.6615 129.428 41.2539C129.747 41.8398 129.906 42.6634 129.906 43.7246V51.1562H128.129C127.836 51.1562 127.615 51.1367 127.465 51.0977C127.315 51.0586 127.198 50.9674 127.113 50.8242C127.029 50.681 126.986 50.4531 126.986 50.1406V50.0625C126.648 50.375 126.231 50.6354 125.736 50.8438C125.242 51.0521 124.691 51.1562 124.086 51.1562C123.37 51.1562 122.735 51.0033 122.182 50.6973C121.635 50.3848 121.208 49.9551 120.902 49.4082C120.603 48.8548 120.453 48.2298 120.453 47.5332C120.453 46.8822 120.619 46.3255 120.951 45.8633C121.29 45.401 121.771 45.0299 122.396 44.75C123.367 44.3203 124.854 44.1055 126.859 44.1055V43.4023C126.859 42.9857 126.804 42.6797 126.693 42.4844C126.589 42.2891 126.384 42.1556 126.078 42.084C125.779 42.0124 125.303 41.9766 124.652 41.9766C124.34 41.9766 123.865 42.0579 123.227 42.2207C122.589 42.377 122.042 42.5592 121.586 42.7676L120.912 40.8145C121.173 40.6582 121.55 40.4889 122.045 40.3066C122.54 40.1243 123.083 39.9714 123.676 39.8477C124.268 39.7174 124.838 39.6523 125.385 39.6523ZM125.131 49.0957C125.456 49.0957 125.798 49.0306 126.156 48.9004C126.514 48.7637 126.749 48.6237 126.859 48.4805V45.8242C126.488 45.8242 126.068 45.8665 125.6 45.9512C125.137 46.0293 124.792 46.1204 124.564 46.2246C124.271 46.3353 124.037 46.485 123.861 46.6738C123.686 46.8626 123.598 47.1426 123.598 47.5137C123.598 48.0345 123.738 48.4284 124.018 48.6953C124.304 48.9622 124.675 49.0957 125.131 49.0957ZM132.846 48.0312C132.969 48.1289 133.201 48.2493 133.539 48.3926C133.878 48.5293 134.268 48.6497 134.711 48.7539C135.16 48.8581 135.603 48.9102 136.039 48.9102C136.645 48.9167 137.087 48.8483 137.367 48.7051C137.647 48.5618 137.787 48.321 137.787 47.9824C137.787 47.6699 137.592 47.3867 137.201 47.1328C136.817 46.8789 136.208 46.6152 135.375 46.3418C134.385 46.0163 133.669 45.5736 133.227 45.0137C132.79 44.4538 132.572 43.7637 132.572 42.9434C132.572 42.2533 132.761 41.6673 133.139 41.1855C133.523 40.6973 134.053 40.3294 134.73 40.082C135.408 39.8346 136.186 39.7109 137.064 39.7109C137.774 39.7109 138.409 39.7793 138.969 39.916C139.529 40.0527 139.939 40.196 140.199 40.3457L139.867 42.6895C139.646 42.4876 139.288 42.3118 138.793 42.1621C138.305 42.0124 137.829 41.9375 137.367 41.9375C136.703 41.9375 136.221 42.0091 135.922 42.1523C135.629 42.2891 135.482 42.5169 135.482 42.8359C135.482 43.0638 135.551 43.2591 135.688 43.4219C135.824 43.5781 136.042 43.7311 136.342 43.8809C136.648 44.0241 137.087 44.1934 137.66 44.3887C138.422 44.6491 139.027 44.9355 139.477 45.248C139.932 45.554 140.264 45.9089 140.473 46.3125C140.681 46.7096 140.785 47.1849 140.785 47.7383C140.785 48.8646 140.398 49.7174 139.623 50.2969C138.855 50.8698 137.787 51.1562 136.42 51.1562C135.906 51.1562 135.388 51.1139 134.867 51.0293C134.346 50.9447 133.878 50.8372 133.461 50.707C133.051 50.5703 132.742 50.4336 132.533 50.2969L132.846 48.0312Z" fill="#837E9F"/>
<defs>
<filter id="filter0_d_105_31" x="0" y="0" width="354" height="214" filterUnits="userSpaceOnUse" color-interpolation-filters="sRGB">
<feFlood flood-opacity="0" result="BackgroundImageFix"/>
<feColorMatrix in="SourceAlpha" type="matrix" values="0 0 0 0 0 0 0 0 0 0 0 0 0 0 0 0 0 0 127 0" result="hardAlpha"/>
<feMorphology radius="1" operator="dilate" in="SourceAlpha" result="effect1_dropShadow_105_31"/>
<feOffset dx="2" dy="2"/>
<feGaussianBlur stdDeviation="1"/>
<feComposite in2="hardAlpha" operator="out"/>
<feColorMatrix type="matrix" values="0 0 0 0 0 0 0 0 0 0 0 0 0 0 0 0 0 0 0.2 0"/>
<feBlend mode="normal" in2="BackgroundImageFix" result="effect1_dropShadow_105_31"/>
<feBlend mode="normal" in="SourceGraphic" in2="effect1_dropShadow_105_31" result="shape"/>
</filter>
</defs>
</svg>
